<mxfile host="app.diagrams.net" modified="2021-04-27T18:33:23.409Z" agent="5.0 (X11; Linux x86_64) AppleWebKit/537.36 (KHTML, like Gecko) Chrome/88.0.4324.150 Safari/537.36" etag="V9Fl4j6U-godrbputbT7" version="14.6.6" type="github">
  <diagram id="a_5FdtYtCZj7OGpo-Fc9" name="Page-1">
    <mxGraphModel dx="8700" dy="3096" grid="1" gridSize="10" guides="1" tooltips="1" connect="1" arrows="1" fold="1" page="1" pageScale="1" pageWidth="3300" pageHeight="4681" math="0" shadow="0">
      <root>
        <mxCell id="0" />
        <mxCell id="1" parent="0" />
        <mxCell id="4YIqJ9_skGSq3MTqp_Pp-7" value="service-1" style="shape=module;align=left;spacingLeft=20;align=center;verticalAlign=middle;html=1;" parent="1" vertex="1">
          <mxGeometry x="-350" y="650" width="210" height="55" as="geometry" />
        </mxCell>
        <mxCell id="4YIqJ9_skGSq3MTqp_Pp-9" value="ROOT" style="html=1;dropTarget=0;" parent="1" vertex="1">
          <mxGeometry x="270" y="40" width="180" height="90" as="geometry" />
        </mxCell>
        <mxCell id="4YIqJ9_skGSq3MTqp_Pp-10" value="" style="shape=module;jettyWidth=8;jettyHeight=4;" parent="4YIqJ9_skGSq3MTqp_Pp-9" vertex="1">
          <mxGeometry x="1" width="20" height="20" relative="1" as="geometry">
            <mxPoint x="-27" y="7" as="offset" />
          </mxGeometry>
        </mxCell>
        <mxCell id="4YIqJ9_skGSq3MTqp_Pp-11" value="LAYOUT" style="html=1;dropTarget=0;" parent="1" vertex="1">
          <mxGeometry x="-210" y="210" width="180" height="90" as="geometry" />
        </mxCell>
        <mxCell id="4YIqJ9_skGSq3MTqp_Pp-12" value="" style="shape=module;jettyWidth=8;jettyHeight=4;" parent="4YIqJ9_skGSq3MTqp_Pp-11" vertex="1">
          <mxGeometry x="1" width="20" height="20" relative="1" as="geometry">
            <mxPoint x="-27" y="7" as="offset" />
          </mxGeometry>
        </mxCell>
        <mxCell id="4YIqJ9_skGSq3MTqp_Pp-13" value="SIDEBAR" style="html=1;dropTarget=0;" parent="1" vertex="1">
          <mxGeometry x="-390" y="390" width="180" height="90" as="geometry" />
        </mxCell>
        <mxCell id="4YIqJ9_skGSq3MTqp_Pp-14" value="" style="shape=module;jettyWidth=8;jettyHeight=4;" parent="4YIqJ9_skGSq3MTqp_Pp-13" vertex="1">
          <mxGeometry x="1" width="20" height="20" relative="1" as="geometry">
            <mxPoint x="-27" y="7" as="offset" />
          </mxGeometry>
        </mxCell>
        <mxCell id="4YIqJ9_skGSq3MTqp_Pp-15" value="CONTENT" style="html=1;dropTarget=0;" parent="1" vertex="1">
          <mxGeometry x="-70" y="380" width="180" height="90" as="geometry" />
        </mxCell>
        <mxCell id="4YIqJ9_skGSq3MTqp_Pp-16" value="" style="shape=module;jettyWidth=8;jettyHeight=4;" parent="4YIqJ9_skGSq3MTqp_Pp-15" vertex="1">
          <mxGeometry x="1" width="20" height="20" relative="1" as="geometry">
            <mxPoint x="-27" y="7" as="offset" />
          </mxGeometry>
        </mxCell>
        <mxCell id="4YIqJ9_skGSq3MTqp_Pp-17" value="service-2" style="shape=module;align=left;spacingLeft=20;align=center;verticalAlign=middle;html=1;" parent="1" vertex="1">
          <mxGeometry x="-80" y="650" width="210" height="55" as="geometry" />
        </mxCell>
        <mxCell id="4YIqJ9_skGSq3MTqp_Pp-18" value="service-2" style="shape=module;align=left;spacingLeft=20;align=center;verticalAlign=middle;html=1;" parent="1" vertex="1">
          <mxGeometry x="180" y="650" width="210" height="55" as="geometry" />
        </mxCell>
        <mxCell id="4YIqJ9_skGSq3MTqp_Pp-19" value="Use" style="endArrow=open;endSize=12;dashed=1;html=1;entryX=0;entryY=1;entryDx=0;entryDy=0;" parent="1" target="4YIqJ9_skGSq3MTqp_Pp-11" edge="1">
          <mxGeometry width="160" relative="1" as="geometry">
            <mxPoint x="-310" y="389" as="sourcePoint" />
            <mxPoint x="-150" y="389" as="targetPoint" />
          </mxGeometry>
        </mxCell>
        <mxCell id="4YIqJ9_skGSq3MTqp_Pp-20" value="ERROR_PAGE" style="html=1;dropTarget=0;" parent="1" vertex="1">
          <mxGeometry x="-610" y="220" width="180" height="90" as="geometry" />
        </mxCell>
        <mxCell id="4YIqJ9_skGSq3MTqp_Pp-21" value="" style="shape=module;jettyWidth=8;jettyHeight=4;" parent="4YIqJ9_skGSq3MTqp_Pp-20" vertex="1">
          <mxGeometry x="1" width="20" height="20" relative="1" as="geometry">
            <mxPoint x="-27" y="7" as="offset" />
          </mxGeometry>
        </mxCell>
        <mxCell id="4YIqJ9_skGSq3MTqp_Pp-22" value="Use" style="endArrow=open;endSize=12;dashed=1;html=1;entryX=0;entryY=0.5;entryDx=0;entryDy=0;" parent="1" target="4YIqJ9_skGSq3MTqp_Pp-9" edge="1">
          <mxGeometry width="160" relative="1" as="geometry">
            <mxPoint x="-490" y="220" as="sourcePoint" />
            <mxPoint x="-330" y="1" as="targetPoint" />
          </mxGeometry>
        </mxCell>
        <mxCell id="4YIqJ9_skGSq3MTqp_Pp-23" value="Use" style="endArrow=open;endSize=12;dashed=1;html=1;entryX=1;entryY=1;entryDx=0;entryDy=0;" parent="1" target="4YIqJ9_skGSq3MTqp_Pp-11" edge="1">
          <mxGeometry width="160" relative="1" as="geometry">
            <mxPoint x="20" y="380" as="sourcePoint" />
            <mxPoint x="120" y="291" as="targetPoint" />
          </mxGeometry>
        </mxCell>
        <mxCell id="4YIqJ9_skGSq3MTqp_Pp-29" value="&lt;code&gt;&lt;font&gt;&lt;code&gt;&lt;font face=&quot;Helvetica&quot; style=&quot;font-size: 14px&quot;&gt;@wildberries/&lt;br&gt;&lt;/font&gt;&lt;/code&gt;&lt;font face=&quot;Helvetica&quot; style=&quot;font-size: 14px&quot;&gt;service-notifications&lt;br&gt;&lt;/font&gt;&lt;/font&gt;&lt;font face=&quot;Helvetica&quot;&gt;&lt;font style=&quot;font-size: 14px&quot;&gt;&lt;br&gt;&lt;span style=&quot;font-weight: normal&quot;&gt;v0.0.1&lt;/span&gt;&lt;/font&gt;&lt;br&gt;&lt;/font&gt;&lt;/code&gt;" style="shape=folder;fontStyle=1;spacingTop=10;tabWidth=40;tabHeight=14;tabPosition=left;html=1;" parent="1" vertex="1">
          <mxGeometry x="-390" y="2380" width="180" height="130" as="geometry" />
        </mxCell>
        <mxCell id="4YIqJ9_skGSq3MTqp_Pp-30" value="&lt;font&gt;&lt;span style=&quot;background-color: rgb(255 , 255 , 255)&quot;&gt;&lt;font style=&quot;font-size: 14px&quot;&gt;@mihanizm56/&lt;/font&gt;&lt;/span&gt;&lt;span style=&quot;font-size: 14px ; background-color: rgb(255 , 255 , 255)&quot;&gt;&lt;font&gt;validators&lt;br&gt;&lt;br&gt;&lt;span style=&quot;font-weight: normal&quot;&gt;&lt;font&gt;v&lt;/font&gt;&lt;/span&gt;&lt;/font&gt;&lt;/span&gt;&lt;span style=&quot;font-size: 14px ; background-color: rgb(255 , 255 , 255) ; font-weight: normal&quot;&gt;1.2.0&lt;/span&gt;&lt;/font&gt;&lt;span style=&quot;background-color: rgb(255 , 255 , 255)&quot;&gt;&lt;font style=&quot;font-size: 14px&quot;&gt;&lt;br&gt;&lt;/font&gt;&lt;/span&gt;" style="shape=folder;fontStyle=1;spacingTop=10;tabWidth=40;tabHeight=14;tabPosition=left;html=1;" parent="1" vertex="1">
          <mxGeometry x="1550" y="950" width="180" height="130" as="geometry" />
        </mxCell>
        <mxCell id="4YIqJ9_skGSq3MTqp_Pp-31" value="&lt;span style=&quot;background-color: rgb(255 , 255 , 255)&quot;&gt;&lt;font style=&quot;font-size: 14px&quot;&gt;typescript&lt;/font&gt;&lt;/span&gt;" style="shape=folder;fontStyle=1;spacingTop=10;tabWidth=40;tabHeight=14;tabPosition=left;html=1;" parent="1" vertex="1">
          <mxGeometry x="1550" y="1145" width="180" height="130" as="geometry" />
        </mxCell>
        <mxCell id="4YIqJ9_skGSq3MTqp_Pp-32" value="&lt;span style=&quot;background-color: rgb(255 , 255 , 255)&quot;&gt;&lt;font style=&quot;font-size: 14px&quot;&gt;query-string&lt;/font&gt;&lt;/span&gt;" style="shape=folder;fontStyle=1;spacingTop=10;tabWidth=40;tabHeight=14;tabPosition=left;html=1;" parent="1" vertex="1">
          <mxGeometry x="250" y="2340" width="180" height="130" as="geometry" />
        </mxCell>
        <mxCell id="4YIqJ9_skGSq3MTqp_Pp-33" value="&lt;font&gt;&lt;font style=&quot;font-size: 14px&quot;&gt;node-fetch&lt;/font&gt;&lt;br&gt;&lt;/font&gt;" style="shape=folder;fontStyle=1;spacingTop=10;tabWidth=40;tabHeight=14;tabPosition=left;html=1;" parent="1" vertex="1">
          <mxGeometry x="640" y="2210" width="180" height="130" as="geometry" />
        </mxCell>
        <mxCell id="4YIqJ9_skGSq3MTqp_Pp-34" value="&lt;font&gt;&lt;font style=&quot;font-size: 14px&quot;&gt;json-mask&lt;/font&gt;&lt;br&gt;&lt;/font&gt;" style="shape=folder;fontStyle=1;spacingTop=10;tabWidth=40;tabHeight=14;tabPosition=left;html=1;" parent="1" vertex="1">
          <mxGeometry x="1010" y="2370" width="180" height="130" as="geometry" />
        </mxCell>
        <mxCell id="4YIqJ9_skGSq3MTqp_Pp-36" value="&lt;font style=&quot;font-size: 14px&quot;&gt;&lt;font style=&quot;font-size: 14px&quot;&gt;&lt;code&gt;&lt;font face=&quot;Helvetica&quot; style=&quot;font-size: 14px&quot;&gt;@mihanizm56/&lt;/font&gt;&lt;/code&gt;fetch-api&lt;/font&gt;&lt;br&gt;&lt;br&gt;&lt;font style=&quot;font-size: 14px ; font-weight: normal&quot;&gt;v3.7.3&lt;/font&gt;&lt;br&gt;&lt;/font&gt;" style="shape=folder;fontStyle=1;spacingTop=10;tabWidth=40;tabHeight=14;tabPosition=left;html=1;" parent="1" vertex="1">
          <mxGeometry x="550" y="2420" width="180" height="130" as="geometry" />
        </mxCell>
        <mxCell id="4YIqJ9_skGSq3MTqp_Pp-37" value="&lt;font&gt;&lt;font style=&quot;font-size: 14px&quot;&gt;colors&lt;/font&gt;&lt;br&gt;&lt;/font&gt;" style="shape=folder;fontStyle=1;spacingTop=10;tabWidth=40;tabHeight=14;tabPosition=left;html=1;" parent="1" vertex="1">
          <mxGeometry x="1010" y="2200" width="180" height="130" as="geometry" />
        </mxCell>
        <mxCell id="4YIqJ9_skGSq3MTqp_Pp-38" value="Use" style="endArrow=open;endSize=12;dashed=1;html=1;entryX=0.183;entryY=1.059;entryDx=0;entryDy=0;entryPerimeter=0;" parent="1" target="4YIqJ9_skGSq3MTqp_Pp-15" edge="1">
          <mxGeometry width="160" relative="1" as="geometry">
            <mxPoint x="-230" y="650" as="sourcePoint" />
            <mxPoint x="20" y="480" as="targetPoint" />
          </mxGeometry>
        </mxCell>
        <mxCell id="4YIqJ9_skGSq3MTqp_Pp-39" value="Use" style="endArrow=open;endSize=12;dashed=1;html=1;entryX=0.544;entryY=1.022;entryDx=0;entryDy=0;entryPerimeter=0;" parent="1" target="4YIqJ9_skGSq3MTqp_Pp-15" edge="1">
          <mxGeometry width="160" relative="1" as="geometry">
            <mxPoint x="20" y="650" as="sourcePoint" />
            <mxPoint x="180" y="470" as="targetPoint" />
          </mxGeometry>
        </mxCell>
        <mxCell id="4YIqJ9_skGSq3MTqp_Pp-40" value="Use" style="endArrow=open;endSize=12;dashed=1;html=1;entryX=0.841;entryY=1.059;entryDx=0;entryDy=0;entryPerimeter=0;" parent="1" target="4YIqJ9_skGSq3MTqp_Pp-15" edge="1">
          <mxGeometry width="160" relative="1" as="geometry">
            <mxPoint x="290" y="650" as="sourcePoint" />
            <mxPoint x="297.9200000000001" y="471.98" as="targetPoint" />
          </mxGeometry>
        </mxCell>
        <mxCell id="4YIqJ9_skGSq3MTqp_Pp-41" value="Use" style="endArrow=open;endSize=12;dashed=1;html=1;entryX=0;entryY=0.844;entryDx=0;entryDy=0;entryPerimeter=0;" parent="1" target="4YIqJ9_skGSq3MTqp_Pp-9" edge="1">
          <mxGeometry width="160" relative="1" as="geometry">
            <mxPoint x="-110" y="210" as="sourcePoint" />
            <mxPoint x="650" y="75" as="targetPoint" />
          </mxGeometry>
        </mxCell>
        <mxCell id="4YIqJ9_skGSq3MTqp_Pp-42" value="NOT_FOUND" style="html=1;dropTarget=0;" parent="1" vertex="1">
          <mxGeometry x="460" y="610" width="180" height="95" as="geometry" />
        </mxCell>
        <mxCell id="4YIqJ9_skGSq3MTqp_Pp-43" value="" style="shape=module;jettyWidth=8;jettyHeight=4;" parent="4YIqJ9_skGSq3MTqp_Pp-42" vertex="1">
          <mxGeometry x="1" width="20" height="20" relative="1" as="geometry">
            <mxPoint x="-27" y="7" as="offset" />
          </mxGeometry>
        </mxCell>
        <mxCell id="4YIqJ9_skGSq3MTqp_Pp-46" value="Use" style="endArrow=open;endSize=12;dashed=1;html=1;exitX=0;exitY=0;exitDx=0;exitDy=0;entryX=1;entryY=0.75;entryDx=0;entryDy=0;" parent="1" source="4YIqJ9_skGSq3MTqp_Pp-42" target="4YIqJ9_skGSq3MTqp_Pp-15" edge="1">
          <mxGeometry width="160" relative="1" as="geometry">
            <mxPoint x="300" y="660" as="sourcePoint" />
            <mxPoint x="30" y="482" as="targetPoint" />
          </mxGeometry>
        </mxCell>
        <mxCell id="KczL7LweS5aCczgaJEiZ-11" value="Label" style="endArrow=classic;html=1;exitX=1.011;exitY=0.497;exitDx=0;exitDy=0;exitPerimeter=0;entryX=-0.019;entryY=0.872;entryDx=0;entryDy=0;entryPerimeter=0;" parent="1" source="4YIqJ9_skGSq3MTqp_Pp-36" target="4YIqJ9_skGSq3MTqp_Pp-34" edge="1">
          <mxGeometry relative="1" as="geometry">
            <mxPoint x="160" y="2951.94" as="sourcePoint" />
            <mxPoint x="980" y="2485" as="targetPoint" />
          </mxGeometry>
        </mxCell>
        <mxCell id="KczL7LweS5aCczgaJEiZ-12" value="&lt;font style=&quot;font-size: 14px&quot;&gt;import&lt;/font&gt;" style="edgeLabel;resizable=0;html=1;align=center;verticalAlign=middle;" parent="KczL7LweS5aCczgaJEiZ-11" connectable="0" vertex="1">
          <mxGeometry relative="1" as="geometry">
            <mxPoint x="1" as="offset" />
          </mxGeometry>
        </mxCell>
        <mxCell id="KczL7LweS5aCczgaJEiZ-14" value="&lt;font style=&quot;font-size: 14px&quot;&gt;v1.0.4&lt;/font&gt;" style="edgeLabel;resizable=0;html=1;align=right;verticalAlign=bottom;" parent="KczL7LweS5aCczgaJEiZ-11" connectable="0" vertex="1">
          <mxGeometry x="1" relative="1" as="geometry">
            <mxPoint x="-7" y="27" as="offset" />
          </mxGeometry>
        </mxCell>
        <mxCell id="KczL7LweS5aCczgaJEiZ-15" value="Label" style="endArrow=classic;html=1;entryX=0;entryY=0;entryDx=0;entryDy=101;entryPerimeter=0;exitX=0;exitY=0;exitDx=180;exitDy=14;exitPerimeter=0;" parent="1" source="4YIqJ9_skGSq3MTqp_Pp-36" target="4YIqJ9_skGSq3MTqp_Pp-37" edge="1">
          <mxGeometry relative="1" as="geometry">
            <mxPoint x="940" y="2711.94" as="sourcePoint" />
            <mxPoint x="850" y="2741.94" as="targetPoint" />
          </mxGeometry>
        </mxCell>
        <mxCell id="KczL7LweS5aCczgaJEiZ-16" value="&lt;font style=&quot;font-size: 14px&quot;&gt;import&lt;/font&gt;" style="edgeLabel;resizable=0;html=1;align=center;verticalAlign=middle;" parent="KczL7LweS5aCczgaJEiZ-15" connectable="0" vertex="1">
          <mxGeometry relative="1" as="geometry">
            <mxPoint x="1" as="offset" />
          </mxGeometry>
        </mxCell>
        <mxCell id="KczL7LweS5aCczgaJEiZ-18" value="&lt;font style=&quot;font-size: 14px&quot;&gt;v1.4.0&lt;/font&gt;" style="edgeLabel;resizable=0;html=1;align=right;verticalAlign=bottom;" parent="KczL7LweS5aCczgaJEiZ-15" connectable="0" vertex="1">
          <mxGeometry x="1" relative="1" as="geometry">
            <mxPoint x="-19" y="-1" as="offset" />
          </mxGeometry>
        </mxCell>
        <mxCell id="KczL7LweS5aCczgaJEiZ-19" value="Label" style="endArrow=classic;html=1;exitX=0.844;exitY=0.123;exitDx=0;exitDy=0;exitPerimeter=0;entryX=0.356;entryY=1.015;entryDx=0;entryDy=0;entryPerimeter=0;" parent="1" target="4YIqJ9_skGSq3MTqp_Pp-33" edge="1" source="4YIqJ9_skGSq3MTqp_Pp-36">
          <mxGeometry relative="1" as="geometry">
            <mxPoint x="775" y="2330" as="sourcePoint" />
            <mxPoint x="700" y="2360" as="targetPoint" />
            <Array as="points" />
          </mxGeometry>
        </mxCell>
        <mxCell id="KczL7LweS5aCczgaJEiZ-20" value="&lt;font style=&quot;font-size: 14px&quot;&gt;import&lt;/font&gt;" style="edgeLabel;resizable=0;html=1;align=center;verticalAlign=middle;" parent="KczL7LweS5aCczgaJEiZ-19" connectable="0" vertex="1">
          <mxGeometry relative="1" as="geometry">
            <mxPoint x="1" as="offset" />
          </mxGeometry>
        </mxCell>
        <mxCell id="KczL7LweS5aCczgaJEiZ-22" value="&lt;font style=&quot;font-size: 14px&quot;&gt;v2.6.1&lt;/font&gt;" style="edgeLabel;resizable=0;html=1;align=right;verticalAlign=bottom;" parent="KczL7LweS5aCczgaJEiZ-19" connectable="0" vertex="1">
          <mxGeometry x="1" relative="1" as="geometry">
            <mxPoint x="-8" y="28" as="offset" />
          </mxGeometry>
        </mxCell>
        <mxCell id="KczL7LweS5aCczgaJEiZ-23" value="Label" style="endArrow=classic;html=1;exitX=-0.026;exitY=0.21;exitDx=0;exitDy=0;exitPerimeter=0;entryX=1.011;entryY=0.826;entryDx=0;entryDy=0;entryPerimeter=0;" parent="1" source="4YIqJ9_skGSq3MTqp_Pp-36" target="4YIqJ9_skGSq3MTqp_Pp-32" edge="1">
          <mxGeometry relative="1" as="geometry">
            <mxPoint x="530" y="2611.94" as="sourcePoint" />
            <mxPoint x="440" y="2450" as="targetPoint" />
          </mxGeometry>
        </mxCell>
        <mxCell id="KczL7LweS5aCczgaJEiZ-24" value="&lt;font style=&quot;font-size: 14px&quot;&gt;import&lt;/font&gt;" style="edgeLabel;resizable=0;html=1;align=center;verticalAlign=middle;" parent="KczL7LweS5aCczgaJEiZ-23" connectable="0" vertex="1">
          <mxGeometry relative="1" as="geometry">
            <mxPoint x="1" as="offset" />
          </mxGeometry>
        </mxCell>
        <mxCell id="KczL7LweS5aCczgaJEiZ-26" value="&lt;span style=&quot;font-family: , &amp;#34;consolas&amp;#34; , &amp;#34;liberation mono&amp;#34; , &amp;#34;menlo&amp;#34; , monospace&quot;&gt;&lt;font style=&quot;font-size: 14px&quot;&gt;v6.13.7&lt;/font&gt;&lt;/span&gt;" style="edgeLabel;resizable=0;html=1;align=right;verticalAlign=bottom;" parent="KczL7LweS5aCczgaJEiZ-23" connectable="0" vertex="1">
          <mxGeometry x="1" relative="1" as="geometry">
            <mxPoint x="57" y="-12" as="offset" />
          </mxGeometry>
        </mxCell>
        <mxCell id="KczL7LweS5aCczgaJEiZ-27" value="&lt;span style=&quot;font-family: , &amp;#34;consolas&amp;#34; , &amp;#34;liberation mono&amp;#34; , &amp;#34;menlo&amp;#34; , monospace ; background-color: rgb(255 , 255 , 255)&quot;&gt;&lt;font style=&quot;font-size: 14px&quot;&gt;redux&lt;/font&gt;&lt;/span&gt;" style="shape=folder;fontStyle=1;spacingTop=10;tabWidth=40;tabHeight=14;tabPosition=left;html=1;" parent="1" vertex="1">
          <mxGeometry x="-1350" y="2680" width="180" height="130" as="geometry" />
        </mxCell>
        <mxCell id="KczL7LweS5aCczgaJEiZ-28" value="&lt;font&gt;&lt;span style=&quot;background-color: rgb(255 , 255 , 255)&quot;&gt;&lt;font style=&quot;font-size: 14px&quot;&gt;redux-batched-actions&lt;/font&gt;&lt;/span&gt;&lt;br&gt;&lt;/font&gt;" style="shape=folder;fontStyle=1;spacingTop=10;tabWidth=40;tabHeight=14;tabPosition=left;html=1;" parent="1" vertex="1">
          <mxGeometry x="-950" y="2800" width="180" height="130" as="geometry" />
        </mxCell>
        <mxCell id="KczL7LweS5aCczgaJEiZ-29" value="&lt;font&gt;&lt;span style=&quot;background-color: rgb(255 , 255 , 255)&quot;&gt;&lt;font style=&quot;font-size: 14px&quot;&gt;redux-devtools-extension&lt;/font&gt;&lt;/span&gt;&lt;br&gt;&lt;/font&gt;" style="shape=folder;fontStyle=1;spacingTop=10;tabWidth=40;tabHeight=14;tabPosition=left;html=1;" parent="1" vertex="1">
          <mxGeometry x="-680" y="2800" width="180" height="130" as="geometry" />
        </mxCell>
        <mxCell id="KczL7LweS5aCczgaJEiZ-30" value="&lt;font&gt;&lt;code&gt;&lt;font face=&quot;Helvetica&quot; style=&quot;font-size: 14px&quot;&gt;@mihanizm56/&lt;/font&gt;&lt;br&gt;&lt;/code&gt;&lt;span style=&quot;background-color: rgb(255 , 255 , 255)&quot;&gt;&lt;font style=&quot;font-size: 14px&quot;&gt;redux-core-modules&lt;/font&gt;&lt;/span&gt;&lt;span style=&quot;font-size: 18px&quot;&gt;&lt;br&gt;&lt;/span&gt;&lt;br&gt;&lt;font style=&quot;font-size: 14px ; font-weight: normal&quot;&gt;v1.3.2&lt;/font&gt;&lt;br&gt;&lt;/font&gt;" style="shape=folder;fontStyle=1;spacingTop=10;tabWidth=40;tabHeight=14;tabPosition=left;html=1;" parent="1" vertex="1">
          <mxGeometry x="-1130" y="2520" width="180" height="130" as="geometry" />
        </mxCell>
        <mxCell id="KczL7LweS5aCczgaJEiZ-31" value="&lt;font&gt;&lt;span style=&quot;font-family: , &amp;#34;consolas&amp;#34; , &amp;#34;liberation mono&amp;#34; , &amp;#34;menlo&amp;#34; , monospace ; background-color: rgb(255 , 255 , 255)&quot;&gt;&lt;font style=&quot;font-size: 14px&quot;&gt;redux-saga&lt;/font&gt;&lt;/span&gt;&lt;br&gt;&lt;/font&gt;" style="shape=folder;fontStyle=1;spacingTop=10;tabWidth=40;tabHeight=14;tabPosition=left;html=1;" parent="1" vertex="1">
          <mxGeometry x="-430" y="2660" width="180" height="130" as="geometry" />
        </mxCell>
        <mxCell id="KczL7LweS5aCczgaJEiZ-32" value="Label" style="endArrow=classic;html=1;exitX=0.907;exitY=1.036;exitDx=0;exitDy=0;exitPerimeter=0;entryX=-0.011;entryY=0.21;entryDx=0;entryDy=0;entryPerimeter=0;" parent="1" source="KczL7LweS5aCczgaJEiZ-30" target="KczL7LweS5aCczgaJEiZ-29" edge="1">
          <mxGeometry relative="1" as="geometry">
            <mxPoint x="-1680" y="2761.94" as="sourcePoint" />
            <mxPoint x="-1460" y="2761.94" as="targetPoint" />
          </mxGeometry>
        </mxCell>
        <mxCell id="KczL7LweS5aCczgaJEiZ-33" value="&lt;font style=&quot;font-size: 14px&quot;&gt;import&lt;/font&gt;" style="edgeLabel;resizable=0;html=1;align=center;verticalAlign=middle;" parent="KczL7LweS5aCczgaJEiZ-32" connectable="0" vertex="1">
          <mxGeometry relative="1" as="geometry">
            <mxPoint x="1" as="offset" />
          </mxGeometry>
        </mxCell>
        <mxCell id="KczL7LweS5aCczgaJEiZ-34" value="&lt;font style=&quot;font-size: 14px&quot;&gt;&lt;font&gt;v&lt;/font&gt;&lt;span style=&quot;font-family: , &amp;#34;consolas&amp;#34; , &amp;#34;liberation mono&amp;#34; , &amp;#34;menlo&amp;#34; , monospace&quot;&gt;2.13.8&lt;/span&gt;&lt;/font&gt;" style="edgeLabel;resizable=0;html=1;align=right;verticalAlign=bottom;" parent="KczL7LweS5aCczgaJEiZ-32" connectable="0" vertex="1">
          <mxGeometry x="1" relative="1" as="geometry">
            <mxPoint x="-8" y="-17" as="offset" />
          </mxGeometry>
        </mxCell>
        <mxCell id="KczL7LweS5aCczgaJEiZ-35" value="Label" style="endArrow=classic;html=1;entryX=-0.004;entryY=0.256;entryDx=0;entryDy=0;entryPerimeter=0;exitX=1.004;exitY=0.918;exitDx=0;exitDy=0;exitPerimeter=0;" parent="1" source="KczL7LweS5aCczgaJEiZ-30" target="KczL7LweS5aCczgaJEiZ-31" edge="1">
          <mxGeometry relative="1" as="geometry">
            <mxPoint x="-980" y="2690" as="sourcePoint" />
            <mxPoint x="-990" y="2551.94" as="targetPoint" />
          </mxGeometry>
        </mxCell>
        <mxCell id="KczL7LweS5aCczgaJEiZ-36" value="&lt;font style=&quot;font-size: 14px&quot;&gt;import&lt;/font&gt;" style="edgeLabel;resizable=0;html=1;align=center;verticalAlign=middle;" parent="KczL7LweS5aCczgaJEiZ-35" connectable="0" vertex="1">
          <mxGeometry relative="1" as="geometry">
            <mxPoint x="1" as="offset" />
          </mxGeometry>
        </mxCell>
        <mxCell id="KczL7LweS5aCczgaJEiZ-37" value="&lt;font style=&quot;font-size: 14px&quot;&gt;&lt;font&gt;v&lt;/font&gt;&lt;span style=&quot;font-family: , &amp;#34;consolas&amp;#34; , &amp;#34;liberation mono&amp;#34; , &amp;#34;menlo&amp;#34; , monospace&quot;&gt;1.1.1&lt;/span&gt;&lt;/font&gt;" style="edgeLabel;resizable=0;html=1;align=right;verticalAlign=bottom;" parent="KczL7LweS5aCczgaJEiZ-35" connectable="0" vertex="1">
          <mxGeometry x="1" relative="1" as="geometry">
            <mxPoint x="-10" y="27" as="offset" />
          </mxGeometry>
        </mxCell>
        <mxCell id="KczL7LweS5aCczgaJEiZ-38" value="Label" style="endArrow=classic;html=1;entryX=0.063;entryY=-0.01;entryDx=0;entryDy=0;entryPerimeter=0;" parent="1" source="KczL7LweS5aCczgaJEiZ-30" target="KczL7LweS5aCczgaJEiZ-28" edge="1">
          <mxGeometry relative="1" as="geometry">
            <mxPoint x="-1200" y="2420.94" as="sourcePoint" />
            <mxPoint x="-1200" y="2466" as="targetPoint" />
          </mxGeometry>
        </mxCell>
        <mxCell id="KczL7LweS5aCczgaJEiZ-39" value="&lt;font style=&quot;font-size: 14px&quot;&gt;import&lt;/font&gt;" style="edgeLabel;resizable=0;html=1;align=center;verticalAlign=middle;" parent="KczL7LweS5aCczgaJEiZ-38" connectable="0" vertex="1">
          <mxGeometry relative="1" as="geometry">
            <mxPoint x="1" as="offset" />
          </mxGeometry>
        </mxCell>
        <mxCell id="KczL7LweS5aCczgaJEiZ-40" value="&lt;font style=&quot;font-size: 14px&quot;&gt;&lt;font&gt;v&lt;/font&gt;&lt;span style=&quot;font-family: , &amp;#34;consolas&amp;#34; , &amp;#34;liberation mono&amp;#34; , &amp;#34;menlo&amp;#34; , monospace&quot;&gt;0.4.1&lt;/span&gt;&lt;/font&gt;" style="edgeLabel;resizable=0;html=1;align=right;verticalAlign=bottom;" parent="KczL7LweS5aCczgaJEiZ-38" connectable="0" vertex="1">
          <mxGeometry x="1" relative="1" as="geometry">
            <mxPoint x="39" y="-8" as="offset" />
          </mxGeometry>
        </mxCell>
        <mxCell id="KczL7LweS5aCczgaJEiZ-41" value="Label" style="endArrow=classic;html=1;exitX=0.5;exitY=0.077;exitDx=0;exitDy=0;exitPerimeter=0;entryX=0.944;entryY=1.005;entryDx=0;entryDy=0;entryPerimeter=0;" parent="1" source="KczL7LweS5aCczgaJEiZ-30" edge="1" target="KczL7LweS5aCczgaJEiZ-46">
          <mxGeometry relative="1" as="geometry">
            <mxPoint x="-1290" y="2421" as="sourcePoint" />
            <mxPoint x="-1540" y="2362" as="targetPoint" />
          </mxGeometry>
        </mxCell>
        <mxCell id="KczL7LweS5aCczgaJEiZ-42" value="&lt;font style=&quot;font-size: 14px&quot;&gt;import&lt;/font&gt;" style="edgeLabel;resizable=0;html=1;align=center;verticalAlign=middle;" parent="KczL7LweS5aCczgaJEiZ-41" connectable="0" vertex="1">
          <mxGeometry relative="1" as="geometry">
            <mxPoint x="1" as="offset" />
          </mxGeometry>
        </mxCell>
        <mxCell id="KczL7LweS5aCczgaJEiZ-43" value="&lt;span style=&quot;font-family: , &amp;#34;consolas&amp;#34; , &amp;#34;liberation mono&amp;#34; , &amp;#34;menlo&amp;#34; , monospace&quot;&gt;&lt;font style=&quot;font-size: 14px&quot;&gt;v6.13.7&lt;/font&gt;&lt;/span&gt;" style="edgeLabel;resizable=0;html=1;align=right;verticalAlign=bottom;" parent="KczL7LweS5aCczgaJEiZ-41" connectable="0" vertex="1">
          <mxGeometry x="1" relative="1" as="geometry">
            <mxPoint x="-4" as="offset" />
          </mxGeometry>
        </mxCell>
        <mxCell id="KczL7LweS5aCczgaJEiZ-44" value="&lt;span style=&quot;background-color: rgb(255 , 255 , 255)&quot;&gt;&lt;font style=&quot;font-size: 14px&quot;&gt;react-redux&lt;/font&gt;&lt;/span&gt;" style="shape=folder;fontStyle=1;spacingTop=10;tabWidth=40;tabHeight=14;tabPosition=left;html=1;" parent="1" vertex="1">
          <mxGeometry x="-1550" y="2490" width="180" height="130" as="geometry" />
        </mxCell>
        <mxCell id="KczL7LweS5aCczgaJEiZ-45" value="&lt;font&gt;&lt;span style=&quot;font-family: , &amp;#34;consolas&amp;#34; , &amp;#34;liberation mono&amp;#34; , &amp;#34;menlo&amp;#34; , monospace ; background-color: rgb(255 , 255 , 255)&quot;&gt;&lt;font style=&quot;font-size: 14px&quot;&gt;reselect&lt;/font&gt;&lt;/span&gt;&lt;br&gt;&lt;/font&gt;" style="shape=folder;fontStyle=1;spacingTop=10;tabWidth=40;tabHeight=14;tabPosition=left;html=1;" parent="1" vertex="1">
          <mxGeometry x="-710" y="2490" width="180" height="130" as="geometry" />
        </mxCell>
        <mxCell id="KczL7LweS5aCczgaJEiZ-46" value="&lt;span style=&quot;font-family: , &amp;#34;consolas&amp;#34; , &amp;#34;liberation mono&amp;#34; , &amp;#34;menlo&amp;#34; , monospace ; background-color: rgb(255 , 255 , 255)&quot;&gt;&lt;font style=&quot;font-size: 14px&quot;&gt;js-file-download&lt;/font&gt;&lt;/span&gt;" style="shape=folder;fontStyle=1;spacingTop=10;tabWidth=40;tabHeight=14;tabPosition=left;html=1;" parent="1" vertex="1">
          <mxGeometry x="-1290" y="2310" width="180" height="130" as="geometry" />
        </mxCell>
        <mxCell id="KczL7LweS5aCczgaJEiZ-47" value="&lt;span style=&quot;background-color: rgb(255 , 255 , 255)&quot;&gt;&lt;font style=&quot;font-size: 14px&quot;&gt;uniqid&lt;/font&gt;&lt;/span&gt;" style="shape=folder;fontStyle=1;spacingTop=10;tabWidth=40;tabHeight=14;tabPosition=left;html=1;" parent="1" vertex="1">
          <mxGeometry x="-710" y="2290" width="180" height="130" as="geometry" />
        </mxCell>
        <mxCell id="KczL7LweS5aCczgaJEiZ-48" value="&lt;font style=&quot;font-size: 14px&quot;&gt;&lt;font&gt;v&lt;/font&gt;&lt;span style=&quot;font-family: , &amp;#34;consolas&amp;#34; , &amp;#34;liberation mono&amp;#34; , &amp;#34;menlo&amp;#34; , monospace&quot;&gt;0.4.11&lt;/span&gt;&lt;/font&gt;" style="edgeLabel;resizable=0;html=1;align=right;verticalAlign=bottom;" parent="1" connectable="0" vertex="1">
          <mxGeometry x="-1130.0042413420524" y="2460.004196012307" as="geometry" />
        </mxCell>
        <mxCell id="KczL7LweS5aCczgaJEiZ-49" value="Label" style="endArrow=classic;html=1;entryX=1.033;entryY=0.851;entryDx=0;entryDy=0;entryPerimeter=0;exitX=-0.006;exitY=0.654;exitDx=0;exitDy=0;exitPerimeter=0;" parent="1" source="KczL7LweS5aCczgaJEiZ-30" target="KczL7LweS5aCczgaJEiZ-44" edge="1">
          <mxGeometry relative="1" as="geometry">
            <mxPoint x="-1285.06" y="2390" as="sourcePoint" />
            <mxPoint x="-1409.9999999999995" y="2470.01" as="targetPoint" />
          </mxGeometry>
        </mxCell>
        <mxCell id="KczL7LweS5aCczgaJEiZ-50" value="&lt;font style=&quot;font-size: 14px&quot;&gt;import&lt;/font&gt;" style="edgeLabel;resizable=0;html=1;align=center;verticalAlign=middle;" parent="KczL7LweS5aCczgaJEiZ-49" connectable="0" vertex="1">
          <mxGeometry relative="1" as="geometry">
            <mxPoint x="1" as="offset" />
          </mxGeometry>
        </mxCell>
        <mxCell id="KczL7LweS5aCczgaJEiZ-51" value="&lt;font style=&quot;font-size: 14px&quot;&gt;&lt;font&gt;v&lt;/font&gt;&lt;span style=&quot;font-family: , &amp;#34;consolas&amp;#34; , &amp;#34;liberation mono&amp;#34; , &amp;#34;menlo&amp;#34; , monospace&quot;&gt;7.2.0&lt;/span&gt;&lt;/font&gt;" style="edgeLabel;resizable=0;html=1;align=right;verticalAlign=bottom;" parent="KczL7LweS5aCczgaJEiZ-49" connectable="0" vertex="1">
          <mxGeometry x="1" relative="1" as="geometry">
            <mxPoint x="55" as="offset" />
          </mxGeometry>
        </mxCell>
        <mxCell id="KczL7LweS5aCczgaJEiZ-52" value="Label" style="endArrow=classic;html=1;entryX=0.506;entryY=0.1;entryDx=0;entryDy=0;entryPerimeter=0;exitX=-0.019;exitY=0.908;exitDx=0;exitDy=0;exitPerimeter=0;" parent="1" source="KczL7LweS5aCczgaJEiZ-30" target="KczL7LweS5aCczgaJEiZ-27" edge="1">
          <mxGeometry relative="1" as="geometry">
            <mxPoint x="-1221.08" y="2385.02" as="sourcePoint" />
            <mxPoint x="-1661.08" y="2510.01" as="targetPoint" />
          </mxGeometry>
        </mxCell>
        <mxCell id="KczL7LweS5aCczgaJEiZ-53" value="&lt;font style=&quot;font-size: 14px&quot;&gt;import&lt;/font&gt;" style="edgeLabel;resizable=0;html=1;align=center;verticalAlign=middle;" parent="KczL7LweS5aCczgaJEiZ-52" connectable="0" vertex="1">
          <mxGeometry relative="1" as="geometry">
            <mxPoint x="1" as="offset" />
          </mxGeometry>
        </mxCell>
        <mxCell id="KczL7LweS5aCczgaJEiZ-54" value="&lt;font style=&quot;font-size: 14px&quot;&gt;&lt;font&gt;v&lt;/font&gt;&lt;span style=&quot;font-family: , &amp;#34;consolas&amp;#34; , &amp;#34;liberation mono&amp;#34; , &amp;#34;menlo&amp;#34; , monospace&quot;&gt;4.0.5&lt;/span&gt;&lt;/font&gt;" style="edgeLabel;resizable=0;html=1;align=right;verticalAlign=bottom;" parent="KczL7LweS5aCczgaJEiZ-52" connectable="0" vertex="1">
          <mxGeometry x="1" relative="1" as="geometry">
            <mxPoint x="-1" y="-3" as="offset" />
          </mxGeometry>
        </mxCell>
        <mxCell id="KczL7LweS5aCczgaJEiZ-55" value="Label" style="endArrow=classic;html=1;entryX=0;entryY=0;entryDx=0;entryDy=72;entryPerimeter=0;exitX=0;exitY=0;exitDx=180;exitDy=72;exitPerimeter=0;" parent="1" source="KczL7LweS5aCczgaJEiZ-30" target="KczL7LweS5aCczgaJEiZ-47" edge="1">
          <mxGeometry relative="1" as="geometry">
            <mxPoint x="-1046" y="2362" as="sourcePoint" />
            <mxPoint x="-1230" y="2471.98" as="targetPoint" />
          </mxGeometry>
        </mxCell>
        <mxCell id="KczL7LweS5aCczgaJEiZ-56" value="&lt;font style=&quot;font-size: 14px&quot;&gt;import&lt;/font&gt;" style="edgeLabel;resizable=0;html=1;align=center;verticalAlign=middle;" parent="KczL7LweS5aCczgaJEiZ-55" connectable="0" vertex="1">
          <mxGeometry relative="1" as="geometry">
            <mxPoint x="1" as="offset" />
          </mxGeometry>
        </mxCell>
        <mxCell id="KczL7LweS5aCczgaJEiZ-57" value="&lt;font style=&quot;font-size: 14px&quot;&gt;&lt;font&gt;v&lt;/font&gt;&lt;span style=&quot;font-family: , &amp;#34;consolas&amp;#34; , &amp;#34;liberation mono&amp;#34; , &amp;#34;menlo&amp;#34; , monospace&quot;&gt;5.3.0&lt;/span&gt;&lt;/font&gt;" style="edgeLabel;resizable=0;html=1;align=right;verticalAlign=bottom;" parent="KczL7LweS5aCczgaJEiZ-55" connectable="0" vertex="1">
          <mxGeometry x="1" relative="1" as="geometry">
            <mxPoint x="-10" y="-12" as="offset" />
          </mxGeometry>
        </mxCell>
        <mxCell id="KczL7LweS5aCczgaJEiZ-58" value="Label" style="endArrow=classic;html=1;exitX=1.006;exitY=0.708;exitDx=0;exitDy=0;exitPerimeter=0;" parent="1" source="KczL7LweS5aCczgaJEiZ-30" target="KczL7LweS5aCczgaJEiZ-45" edge="1">
          <mxGeometry relative="1" as="geometry">
            <mxPoint x="-1035.99" y="2400" as="sourcePoint" />
            <mxPoint x="-802.0500000000004" y="2480.01" as="targetPoint" />
          </mxGeometry>
        </mxCell>
        <mxCell id="KczL7LweS5aCczgaJEiZ-59" value="&lt;font style=&quot;font-size: 14px&quot;&gt;import&lt;/font&gt;" style="edgeLabel;resizable=0;html=1;align=center;verticalAlign=middle;" parent="KczL7LweS5aCczgaJEiZ-58" connectable="0" vertex="1">
          <mxGeometry relative="1" as="geometry">
            <mxPoint x="1" as="offset" />
          </mxGeometry>
        </mxCell>
        <mxCell id="KczL7LweS5aCczgaJEiZ-60" value="&lt;font style=&quot;font-size: 14px&quot;&gt;&lt;font&gt;v&lt;/font&gt;&lt;span style=&quot;font-family: , &amp;#34;consolas&amp;#34; , &amp;#34;liberation mono&amp;#34; , &amp;#34;menlo&amp;#34; , monospace&quot;&gt;4.0.0&lt;/span&gt;&lt;/font&gt;" style="edgeLabel;resizable=0;html=1;align=right;verticalAlign=bottom;" parent="KczL7LweS5aCczgaJEiZ-58" connectable="0" vertex="1">
          <mxGeometry x="1" relative="1" as="geometry">
            <mxPoint x="-10" y="-11" as="offset" />
          </mxGeometry>
        </mxCell>
        <mxCell id="KczL7LweS5aCczgaJEiZ-61" value="Label" style="endArrow=classic;html=1;exitX=0.5;exitY=1;exitDx=0;exitDy=0;exitPerimeter=0;" parent="1" source="4YIqJ9_skGSq3MTqp_Pp-30" edge="1">
          <mxGeometry relative="1" as="geometry">
            <mxPoint x="1900" y="1115" as="sourcePoint" />
            <mxPoint x="1640" y="1154" as="targetPoint" />
          </mxGeometry>
        </mxCell>
        <mxCell id="KczL7LweS5aCczgaJEiZ-62" value="&lt;font style=&quot;font-size: 14px&quot;&gt;import&lt;/font&gt;" style="edgeLabel;resizable=0;html=1;align=center;verticalAlign=middle;" parent="KczL7LweS5aCczgaJEiZ-61" connectable="0" vertex="1">
          <mxGeometry relative="1" as="geometry">
            <mxPoint x="1" as="offset" />
          </mxGeometry>
        </mxCell>
        <mxCell id="KczL7LweS5aCczgaJEiZ-63" value="&lt;font style=&quot;font-size: 14px&quot;&gt;&lt;span style=&quot;font-family: , &amp;#34;consolas&amp;#34; , &amp;#34;liberation mono&amp;#34; , &amp;#34;menlo&amp;#34; , monospace&quot;&gt;&lt;font&gt;v&lt;/font&gt;&lt;/span&gt;&lt;span style=&quot;font-family: , &amp;#34;consolas&amp;#34; , &amp;#34;liberation mono&amp;#34; , &amp;#34;menlo&amp;#34; , monospace&quot;&gt;3.8.3&lt;/span&gt;&lt;/font&gt;" style="edgeLabel;resizable=0;html=1;align=right;verticalAlign=bottom;" parent="KczL7LweS5aCczgaJEiZ-61" connectable="0" vertex="1">
          <mxGeometry x="1" relative="1" as="geometry">
            <mxPoint x="-4" as="offset" />
          </mxGeometry>
        </mxCell>
        <mxCell id="KczL7LweS5aCczgaJEiZ-75" value="&lt;code&gt;&lt;font face=&quot;Helvetica&quot; style=&quot;font-size: 14px&quot;&gt;@ravilm/databus&lt;br&gt;&lt;br&gt;&lt;/font&gt;&lt;font style=&quot;font-family: &amp;#34;helvetica&amp;#34; ; font-size: 14px ; font-weight: 400 ; text-align: right ; background-color: rgb(255 , 255 , 255)&quot;&gt;v&lt;/font&gt;&lt;code style=&quot;font-size: 14px ; font-weight: 400 ; text-align: right ; background-color: rgb(255 , 255 , 255)&quot;&gt;1.0.1&lt;/code&gt;&lt;font face=&quot;Helvetica&quot; style=&quot;font-size: 14px&quot;&gt;&lt;br&gt;&lt;/font&gt;&lt;/code&gt;" style="shape=folder;fontStyle=1;spacingTop=10;tabWidth=40;tabHeight=14;tabPosition=left;html=1;" parent="1" vertex="1">
          <mxGeometry x="1770" y="1560" width="180" height="130" as="geometry" />
        </mxCell>
        <mxCell id="KczL7LweS5aCczgaJEiZ-76" value="&lt;code&gt;&lt;code&gt;&lt;font face=&quot;Helvetica&quot; style=&quot;font-size: 14px&quot;&gt;@wildberries/&lt;/font&gt;&lt;/code&gt;&lt;font face=&quot;Helvetica&quot; style=&quot;font-size: 14px&quot;&gt;service-user-notifications&lt;br&gt;&lt;br&gt;&lt;/font&gt;&lt;code&gt;&lt;font face=&quot;Helvetica&quot; style=&quot;font-size: 14px ; font-weight: normal&quot;&gt;v0.0.2-beta.15&lt;/font&gt;&lt;/code&gt;&lt;font face=&quot;Helvetica&quot; style=&quot;font-size: 14px&quot;&gt;&lt;br&gt;&lt;/font&gt;&lt;/code&gt;" style="shape=folder;fontStyle=1;spacingTop=10;tabWidth=40;tabHeight=14;tabPosition=left;html=1;" parent="1" vertex="1">
          <mxGeometry x="-900" y="1740" width="495" height="130" as="geometry" />
        </mxCell>
        <mxCell id="KczL7LweS5aCczgaJEiZ-77" value="&lt;code&gt;&lt;font face=&quot;Helvetica&quot; style=&quot;font-size: 14px&quot;&gt;react-dom&lt;/font&gt;&lt;/code&gt;" style="shape=folder;fontStyle=1;spacingTop=10;tabWidth=40;tabHeight=14;tabPosition=left;html=1;" parent="1" vertex="1">
          <mxGeometry x="-750" y="1300" width="180" height="130" as="geometry" />
        </mxCell>
        <mxCell id="KczL7LweS5aCczgaJEiZ-78" value="&lt;code&gt;&lt;font face=&quot;Helvetica&quot; style=&quot;font-size: 14px&quot;&gt;tscpaths&lt;/font&gt;&lt;/code&gt;" style="shape=folder;fontStyle=1;spacingTop=10;tabWidth=40;tabHeight=14;tabPosition=left;html=1;" parent="1" vertex="1">
          <mxGeometry x="-980" y="1300" width="180" height="130" as="geometry" />
        </mxCell>
        <mxCell id="KczL7LweS5aCczgaJEiZ-79" value="&lt;font style=&quot;font-size: 14px&quot;&gt;react&lt;br&gt;&lt;/font&gt;" style="shape=folder;fontStyle=1;spacingTop=10;tabWidth=40;tabHeight=14;tabPosition=left;html=1;" parent="1" vertex="1">
          <mxGeometry x="-1210" y="1300" width="180" height="130" as="geometry" />
        </mxCell>
        <mxCell id="KczL7LweS5aCczgaJEiZ-80" value="&lt;code&gt;&lt;code&gt;&lt;font style=&quot;font-size: 14px&quot; face=&quot;Helvetica&quot;&gt;@wildberries/&lt;/font&gt;&lt;br&gt;&lt;/code&gt;&lt;font face=&quot;Helvetica&quot; style=&quot;font-size: 14px&quot;&gt;wb-front-performance-tracker&lt;br&gt;&lt;br&gt;&lt;font style=&quot;font-weight: normal&quot;&gt;v&lt;/font&gt;&lt;font style=&quot;font-weight: normal&quot;&gt;&lt;code&gt;0.0.1-beta.12&lt;/code&gt;&lt;/font&gt;&lt;/font&gt;&lt;br&gt;&lt;/code&gt;" style="shape=folder;fontStyle=1;spacingTop=10;tabWidth=40;tabHeight=14;tabPosition=left;html=1;" parent="1" vertex="1">
          <mxGeometry x="-1030" y="1090" width="260" height="130" as="geometry" />
        </mxCell>
        <mxCell id="KczL7LweS5aCczgaJEiZ-81" value="&lt;code&gt;&lt;font style=&quot;font-size: 14px&quot;&gt;&lt;code&gt;&lt;font face=&quot;Helvetica&quot;&gt;@wildberries/&lt;/font&gt;&lt;br&gt;&lt;/code&gt;&lt;font face=&quot;Helvetica&quot;&gt;service-suppliers&lt;br&gt;&lt;br&gt;&lt;span style=&quot;font-weight: normal&quot;&gt;&lt;font&gt;v&lt;/font&gt;&lt;/span&gt;&lt;/font&gt;&lt;code style=&quot;font-weight: normal&quot;&gt;&lt;font face=&quot;Helvetica&quot;&gt;0.0.14-beta.6&lt;/font&gt;&lt;/code&gt;&lt;/font&gt;&lt;font face=&quot;Helvetica&quot; style=&quot;font-size: 14px&quot;&gt;&lt;br&gt;&lt;/font&gt;&lt;/code&gt;" style="shape=folder;fontStyle=1;spacingTop=10;tabWidth=40;tabHeight=14;tabPosition=left;html=1;" parent="1" vertex="1">
          <mxGeometry x="-600" y="1510" width="180" height="130" as="geometry" />
        </mxCell>
        <mxCell id="KczL7LweS5aCczgaJEiZ-82" value="&lt;code&gt;&lt;font face=&quot;Helvetica&quot; style=&quot;font-size: 14px&quot;&gt;i18next-icu&lt;/font&gt;&lt;/code&gt;" style="shape=folder;fontStyle=1;spacingTop=10;tabWidth=40;tabHeight=14;tabPosition=left;html=1;" parent="1" vertex="1">
          <mxGeometry x="190" y="2730" width="180" height="130" as="geometry" />
        </mxCell>
        <mxCell id="KczL7LweS5aCczgaJEiZ-83" value="&lt;code&gt;&lt;font face=&quot;Helvetica&quot; style=&quot;font-size: 14px&quot;&gt;@hapi/joi&lt;/font&gt;&lt;/code&gt;" style="shape=folder;fontStyle=1;spacingTop=10;tabWidth=40;tabHeight=14;tabPosition=left;html=1;" parent="1" vertex="1">
          <mxGeometry x="-110" y="2721.94" width="180" height="130" as="geometry" />
        </mxCell>
        <mxCell id="KczL7LweS5aCczgaJEiZ-84" value="&lt;code&gt;&lt;code&gt;&lt;font face=&quot;Helvetica&quot; style=&quot;font-size: 14px&quot;&gt;@wildberries/&lt;/font&gt;&lt;br&gt;&lt;/code&gt;&lt;font face=&quot;Helvetica&quot;&gt;&lt;span style=&quot;font-size: 14px&quot;&gt;i18next-utils&lt;/span&gt;&lt;br&gt;&lt;br&gt;&lt;span style=&quot;font-weight: normal&quot;&gt;&lt;font style=&quot;font-size: 14px&quot;&gt;v&lt;/font&gt;&lt;/span&gt;&lt;/font&gt;&lt;code style=&quot;font-weight: normal&quot;&gt;&lt;font face=&quot;Helvetica&quot; size=&quot;3&quot;&gt;1.0.6&lt;/font&gt;&lt;/code&gt;&lt;font face=&quot;Helvetica&quot; style=&quot;font-size: 14px&quot;&gt;&lt;br&gt;&lt;/font&gt;&lt;/code&gt;" style="shape=folder;fontStyle=1;spacingTop=10;tabWidth=40;tabHeight=14;tabPosition=left;html=1;" parent="1" vertex="1">
          <mxGeometry x="60" y="2480" width="180" height="130" as="geometry" />
        </mxCell>
        <mxCell id="KczL7LweS5aCczgaJEiZ-85" value="&lt;code&gt;&lt;font style=&quot;font-size: 14px&quot;&gt;&lt;code&gt;&lt;font face=&quot;Helvetica&quot;&gt;@wildberries/&lt;/font&gt;&lt;br&gt;&lt;/code&gt;&lt;font face=&quot;Helvetica&quot;&gt;service-user&lt;br&gt;&lt;br&gt;&lt;font style=&quot;font-weight: normal&quot;&gt;v&lt;/font&gt;&lt;/font&gt;&lt;code&gt;&lt;font style=&quot;font-weight: normal&quot; face=&quot;Helvetica&quot;&gt;0.0.15&lt;/font&gt;&lt;/code&gt;&lt;/font&gt;&lt;font face=&quot;Helvetica&quot; style=&quot;font-size: 14px&quot;&gt;&lt;br&gt;&lt;/font&gt;&lt;/code&gt;" style="shape=folder;fontStyle=1;spacingTop=10;tabWidth=40;tabHeight=14;tabPosition=left;html=1;" parent="1" vertex="1">
          <mxGeometry x="1769.28" y="2510" width="180" height="130" as="geometry" />
        </mxCell>
        <mxCell id="KczL7LweS5aCczgaJEiZ-86" value="&lt;code&gt;&lt;font style=&quot;font-size: 14px&quot;&gt;&lt;font face=&quot;Helvetica&quot;&gt;react-transition-group&lt;/font&gt;&lt;/font&gt;&lt;font face=&quot;Helvetica&quot; style=&quot;font-size: 14px&quot;&gt;&lt;br&gt;&lt;/font&gt;&lt;/code&gt;" style="shape=folder;fontStyle=1;spacingTop=10;tabWidth=40;tabHeight=14;tabPosition=left;html=1;" parent="1" vertex="1">
          <mxGeometry x="-930" y="2100" width="180" height="130" as="geometry" />
        </mxCell>
        <mxCell id="KczL7LweS5aCczgaJEiZ-87" value="&lt;code&gt;&lt;font style=&quot;font-size: 14px&quot;&gt;&lt;code&gt;&lt;font face=&quot;Helvetica&quot;&gt;@wildberries/&lt;br&gt;&lt;/font&gt;&lt;/code&gt;&lt;font face=&quot;Helvetica&quot;&gt;service-products&lt;br&gt;&lt;br&gt;&lt;font style=&quot;font-weight: normal&quot;&gt;v&lt;/font&gt;&lt;/font&gt;&lt;code&gt;&lt;font face=&quot;Helvetica&quot; style=&quot;font-weight: normal&quot;&gt;0.2.0&lt;/font&gt;&lt;/code&gt;&lt;/font&gt;&lt;font face=&quot;Helvetica&quot; style=&quot;font-size: 14px&quot;&gt;&lt;br&gt;&lt;/font&gt;&lt;/code&gt;" style="shape=folder;fontStyle=1;spacingTop=10;tabWidth=40;tabHeight=14;tabPosition=left;html=1;" parent="1" vertex="1">
          <mxGeometry x="-380" y="1950" width="180" height="130" as="geometry" />
        </mxCell>
        <mxCell id="KczL7LweS5aCczgaJEiZ-88" value="&lt;code&gt;&lt;font style=&quot;font-size: 14px&quot; face=&quot;Helvetica&quot;&gt;&lt;code&gt;@wildberries/&lt;br&gt;&lt;/code&gt;notifications&lt;br&gt;&lt;br&gt;&lt;font style=&quot;font-weight: normal&quot;&gt;v&lt;/font&gt;&lt;code&gt;&lt;font style=&quot;font-weight: normal&quot;&gt;1.0.13-beta.1&lt;/font&gt;&lt;/code&gt;&lt;/font&gt;&lt;font face=&quot;Helvetica&quot; style=&quot;font-size: 14px&quot;&gt;&lt;br&gt;&lt;/font&gt;&lt;/code&gt;" style="shape=folder;fontStyle=1;spacingTop=10;tabWidth=40;tabHeight=14;tabPosition=left;html=1;" parent="1" vertex="1">
          <mxGeometry x="-570" y="2130" width="180" height="130" as="geometry" />
        </mxCell>
        <mxCell id="KczL7LweS5aCczgaJEiZ-89" value="&lt;code&gt;&lt;code&gt;&lt;font face=&quot;Helvetica&quot; style=&quot;font-size: 14px&quot;&gt;@wildberries/&lt;/font&gt;&lt;br&gt;&lt;/code&gt;&lt;font face=&quot;Helvetica&quot;&gt;&lt;font&gt;&lt;span style=&quot;font-size: 14px&quot;&gt;databus-service-user&lt;/span&gt;&lt;br&gt;&lt;br&gt;&lt;font style=&quot;font-size: 14px ; font-weight: normal&quot;&gt;v.&lt;/font&gt;&lt;/font&gt;&lt;code&gt;&lt;font size=&quot;3&quot; style=&quot;font-weight: normal&quot;&gt;0.0.9&lt;/font&gt;&lt;/code&gt;&lt;/font&gt;&lt;font face=&quot;Helvetica&quot; style=&quot;font-size: 14px&quot;&gt;&lt;br&gt;&lt;/font&gt;&lt;/code&gt;" style="shape=folder;fontStyle=1;spacingTop=10;tabWidth=40;tabHeight=14;tabPosition=left;html=1;" parent="1" vertex="1">
          <mxGeometry x="1769.28" y="2320" width="180" height="130" as="geometry" />
        </mxCell>
        <mxCell id="KczL7LweS5aCczgaJEiZ-93" value="&lt;code&gt;&lt;font face=&quot;Helvetica&quot; style=&quot;font-size: 14px&quot;&gt;i18next&lt;/font&gt;&lt;/code&gt;" style="shape=folder;fontStyle=1;spacingTop=10;tabWidth=40;tabHeight=14;tabPosition=left;html=1;" parent="1" vertex="1">
          <mxGeometry x="-200" y="2130" width="180" height="130" as="geometry" />
        </mxCell>
        <mxCell id="KczL7LweS5aCczgaJEiZ-94" value="Label" style="endArrow=classic;html=1;entryX=0.907;entryY=1.015;entryDx=0;entryDy=0;entryPerimeter=0;exitX=0.315;exitY=0.077;exitDx=0;exitDy=0;exitPerimeter=0;" parent="1" source="4YIqJ9_skGSq3MTqp_Pp-29" target="KczL7LweS5aCczgaJEiZ-88" edge="1">
          <mxGeometry relative="1" as="geometry">
            <mxPoint x="-120" y="2010" as="sourcePoint" />
            <mxPoint x="-150.08000000000084" y="2120.01" as="targetPoint" />
          </mxGeometry>
        </mxCell>
        <mxCell id="KczL7LweS5aCczgaJEiZ-95" value="&lt;font style=&quot;font-size: 14px&quot;&gt;import&lt;/font&gt;" style="edgeLabel;resizable=0;html=1;align=center;verticalAlign=middle;" parent="KczL7LweS5aCczgaJEiZ-94" connectable="0" vertex="1">
          <mxGeometry relative="1" as="geometry">
            <mxPoint x="1" as="offset" />
          </mxGeometry>
        </mxCell>
        <mxCell id="KczL7LweS5aCczgaJEiZ-96" value="&lt;font style=&quot;font-size: 14px&quot;&gt;&lt;span style=&quot;font-family: , &amp;#34;consolas&amp;#34; , &amp;#34;liberation mono&amp;#34; , &amp;#34;menlo&amp;#34; , monospace&quot;&gt;&lt;font&gt;v1.0.9&lt;/font&gt;&lt;/span&gt;&lt;/font&gt;" style="edgeLabel;resizable=0;html=1;align=right;verticalAlign=bottom;" parent="KczL7LweS5aCczgaJEiZ-94" connectable="0" vertex="1">
          <mxGeometry x="1" relative="1" as="geometry">
            <mxPoint x="-4" y="18" as="offset" />
          </mxGeometry>
        </mxCell>
        <mxCell id="KczL7LweS5aCczgaJEiZ-97" value="Label" style="endArrow=classic;html=1;entryX=0.319;entryY=1.026;entryDx=0;entryDy=0;entryPerimeter=0;exitX=0.87;exitY=0.108;exitDx=0;exitDy=0;exitPerimeter=0;" parent="1" source="4YIqJ9_skGSq3MTqp_Pp-29" target="KczL7LweS5aCczgaJEiZ-93" edge="1">
          <mxGeometry relative="1" as="geometry">
            <mxPoint x="-37" y="2071.04" as="sourcePoint" />
            <mxPoint x="-140.07999999999993" y="2120.01" as="targetPoint" />
          </mxGeometry>
        </mxCell>
        <mxCell id="KczL7LweS5aCczgaJEiZ-98" value="&lt;font style=&quot;font-size: 14px&quot;&gt;import&lt;/font&gt;" style="edgeLabel;resizable=0;html=1;align=center;verticalAlign=middle;" parent="KczL7LweS5aCczgaJEiZ-97" connectable="0" vertex="1">
          <mxGeometry relative="1" as="geometry">
            <mxPoint x="1" as="offset" />
          </mxGeometry>
        </mxCell>
        <mxCell id="KczL7LweS5aCczgaJEiZ-99" value="&lt;font style=&quot;font-size: 14px&quot;&gt;&lt;font&gt;&lt;font&gt;v&lt;/font&gt;&lt;/font&gt;&lt;code&gt;19.4.4&lt;/code&gt;&lt;/font&gt;" style="edgeLabel;resizable=0;html=1;align=right;verticalAlign=bottom;" parent="KczL7LweS5aCczgaJEiZ-97" connectable="0" vertex="1">
          <mxGeometry x="1" relative="1" as="geometry">
            <mxPoint x="-17" y="17" as="offset" />
          </mxGeometry>
        </mxCell>
        <mxCell id="KczL7LweS5aCczgaJEiZ-100" value="&lt;code&gt;&lt;font face=&quot;Helvetica&quot; style=&quot;font-size: 14px&quot;&gt;react-router5&lt;/font&gt;&lt;/code&gt;" style="shape=folder;fontStyle=1;spacingTop=10;tabWidth=40;tabHeight=14;tabPosition=left;html=1;" parent="1" vertex="1">
          <mxGeometry x="-320" y="1520" width="180" height="130" as="geometry" />
        </mxCell>
        <mxCell id="KczL7LweS5aCczgaJEiZ-101" value="&lt;font&gt;&lt;code&gt;&lt;font face=&quot;Helvetica&quot; style=&quot;font-size: 14px&quot;&gt;router5&lt;/font&gt;&lt;/code&gt;&lt;br&gt;&lt;/font&gt;" style="shape=folder;fontStyle=1;spacingTop=10;tabWidth=40;tabHeight=14;tabPosition=left;html=1;" parent="1" vertex="1">
          <mxGeometry x="-110" y="1520" width="180" height="130" as="geometry" />
        </mxCell>
        <mxCell id="KczL7LweS5aCczgaJEiZ-102" value="&lt;font&gt;&lt;code&gt;&lt;font face=&quot;Helvetica&quot; style=&quot;font-size: 14px&quot;&gt;router5-helpers&lt;/font&gt;&lt;/code&gt;&lt;br&gt;&lt;/font&gt;" style="shape=folder;fontStyle=1;spacingTop=10;tabWidth=40;tabHeight=14;tabPosition=left;html=1;" parent="1" vertex="1">
          <mxGeometry x="320.98" y="1520" width="180" height="130" as="geometry" />
        </mxCell>
        <mxCell id="KczL7LweS5aCczgaJEiZ-103" value="&lt;font style=&quot;font-size: 14px&quot;&gt;&lt;code&gt;&lt;font face=&quot;Helvetica&quot; style=&quot;font-size: 14px&quot;&gt;&lt;font style=&quot;font-size: 14px&quot;&gt;@wildberries/&lt;/font&gt;&lt;br&gt;&lt;/font&gt;&lt;/code&gt;&lt;font face=&quot;Helvetica&quot; style=&quot;font-size: 14px&quot;&gt;&lt;font style=&quot;font-size: 14px&quot;&gt;service-router&lt;/font&gt;&lt;br&gt;&lt;br&gt;&lt;/font&gt;&lt;code&gt;&lt;font face=&quot;Helvetica&quot; style=&quot;font-size: 14px ; font-weight: normal&quot;&gt;v1.0.3&lt;/font&gt;&lt;/code&gt;&lt;br&gt;&lt;/font&gt;" style="shape=folder;fontStyle=1;spacingTop=10;tabWidth=40;tabHeight=14;tabPosition=left;html=1;" parent="1" vertex="1">
          <mxGeometry x="220" y="1320" width="180" height="130" as="geometry" />
        </mxCell>
        <mxCell id="KczL7LweS5aCczgaJEiZ-104" value="&lt;font&gt;&lt;code&gt;&lt;font face=&quot;Helvetica&quot; style=&quot;font-size: 14px&quot;&gt;router5-plugin-browser&lt;/font&gt;&lt;/code&gt;&lt;br&gt;&lt;/font&gt;" style="shape=folder;fontStyle=1;spacingTop=10;tabWidth=40;tabHeight=14;tabPosition=left;html=1;" parent="1" vertex="1">
          <mxGeometry x="530.98" y="1520" width="180" height="130" as="geometry" />
        </mxCell>
        <mxCell id="KczL7LweS5aCczgaJEiZ-105" value="Label" style="endArrow=classic;html=1;exitX=0.65;exitY=1.023;exitDx=0;exitDy=0;exitPerimeter=0;entryX=0.578;entryY=0.085;entryDx=0;entryDy=0;entryPerimeter=0;" parent="1" source="KczL7LweS5aCczgaJEiZ-103" target="KczL7LweS5aCczgaJEiZ-102" edge="1">
          <mxGeometry relative="1" as="geometry">
            <mxPoint x="-230" y="1791.94" as="sourcePoint" />
            <mxPoint x="-10" y="1791.94" as="targetPoint" />
          </mxGeometry>
        </mxCell>
        <mxCell id="KczL7LweS5aCczgaJEiZ-106" value="&lt;font style=&quot;font-size: 14px&quot;&gt;import&lt;/font&gt;" style="edgeLabel;resizable=0;html=1;align=center;verticalAlign=middle;" parent="KczL7LweS5aCczgaJEiZ-105" connectable="0" vertex="1">
          <mxGeometry relative="1" as="geometry">
            <mxPoint x="1" as="offset" />
          </mxGeometry>
        </mxCell>
        <mxCell id="KczL7LweS5aCczgaJEiZ-107" value="&lt;font style=&quot;font-size: 14px&quot;&gt;&lt;font&gt;&lt;font&gt;v&lt;/font&gt;&lt;/font&gt;&lt;code&gt;7.0.1&lt;/code&gt;&lt;/font&gt;" style="edgeLabel;resizable=0;html=1;align=right;verticalAlign=bottom;" parent="KczL7LweS5aCczgaJEiZ-105" connectable="0" vertex="1">
          <mxGeometry x="1" relative="1" as="geometry">
            <mxPoint x="65" as="offset" />
          </mxGeometry>
        </mxCell>
        <mxCell id="KczL7LweS5aCczgaJEiZ-108" value="Label" style="endArrow=classic;html=1;entryX=0.444;entryY=0.077;entryDx=0;entryDy=0;entryPerimeter=0;exitX=0.872;exitY=1;exitDx=0;exitDy=0;exitPerimeter=0;" parent="1" source="KczL7LweS5aCczgaJEiZ-103" target="KczL7LweS5aCczgaJEiZ-104" edge="1">
          <mxGeometry relative="1" as="geometry">
            <mxPoint x="550" y="1551.94" as="sourcePoint" />
            <mxPoint x="460" y="1581.94" as="targetPoint" />
          </mxGeometry>
        </mxCell>
        <mxCell id="KczL7LweS5aCczgaJEiZ-109" value="&lt;font style=&quot;font-size: 14px&quot;&gt;import&lt;/font&gt;" style="edgeLabel;resizable=0;html=1;align=center;verticalAlign=middle;" parent="KczL7LweS5aCczgaJEiZ-108" connectable="0" vertex="1">
          <mxGeometry relative="1" as="geometry">
            <mxPoint x="1" as="offset" />
          </mxGeometry>
        </mxCell>
        <mxCell id="KczL7LweS5aCczgaJEiZ-110" value="&lt;font style=&quot;font-size: 14px&quot;&gt;&lt;font&gt;&lt;font&gt;v&lt;/font&gt;&lt;/font&gt;&lt;code&gt;7.0.2&lt;/code&gt;&lt;/font&gt;" style="edgeLabel;resizable=0;html=1;align=right;verticalAlign=bottom;" parent="KczL7LweS5aCczgaJEiZ-108" connectable="0" vertex="1">
          <mxGeometry x="1" relative="1" as="geometry">
            <mxPoint x="59" as="offset" />
          </mxGeometry>
        </mxCell>
        <mxCell id="KczL7LweS5aCczgaJEiZ-111" value="Label" style="endArrow=classic;html=1;entryX=0.417;entryY=0.077;entryDx=0;entryDy=0;entryPerimeter=0;exitX=-0.013;exitY=0.867;exitDx=0;exitDy=0;exitPerimeter=0;" parent="1" source="KczL7LweS5aCczgaJEiZ-103" target="KczL7LweS5aCczgaJEiZ-101" edge="1">
          <mxGeometry relative="1" as="geometry">
            <mxPoint x="160" y="1440" as="sourcePoint" />
            <mxPoint x="250" y="1551.94" as="targetPoint" />
          </mxGeometry>
        </mxCell>
        <mxCell id="KczL7LweS5aCczgaJEiZ-112" value="&lt;font style=&quot;font-size: 14px&quot;&gt;import&lt;/font&gt;" style="edgeLabel;resizable=0;html=1;align=center;verticalAlign=middle;" parent="KczL7LweS5aCczgaJEiZ-111" connectable="0" vertex="1">
          <mxGeometry relative="1" as="geometry">
            <mxPoint x="1" as="offset" />
          </mxGeometry>
        </mxCell>
        <mxCell id="KczL7LweS5aCczgaJEiZ-113" value="&lt;font style=&quot;font-size: 14px&quot;&gt;&lt;font&gt;&lt;font&gt;v&lt;/font&gt;&lt;/font&gt;&lt;code&gt;7.0.2&lt;/code&gt;&lt;/font&gt;" style="edgeLabel;resizable=0;html=1;align=right;verticalAlign=bottom;" parent="KczL7LweS5aCczgaJEiZ-111" connectable="0" vertex="1">
          <mxGeometry x="1" relative="1" as="geometry">
            <mxPoint x="75" as="offset" />
          </mxGeometry>
        </mxCell>
        <mxCell id="KczL7LweS5aCczgaJEiZ-117" value="&lt;code&gt;&lt;font face=&quot;Helvetica&quot; style=&quot;font-size: 14px&quot;&gt;promise-sequential&lt;/font&gt;&lt;/code&gt;" style="shape=folder;fontStyle=1;spacingTop=10;tabWidth=40;tabHeight=14;tabPosition=left;html=1;" parent="1" vertex="1">
          <mxGeometry x="100" y="1520" width="180" height="130" as="geometry" />
        </mxCell>
        <mxCell id="KczL7LweS5aCczgaJEiZ-118" value="&lt;font&gt;&lt;code&gt;&lt;font face=&quot;Helvetica&quot; style=&quot;font-size: 14px&quot;&gt;router5-plugin-logger&lt;/font&gt;&lt;/code&gt;&lt;br&gt;&lt;/font&gt;" style="shape=folder;fontStyle=1;spacingTop=10;tabWidth=40;tabHeight=14;tabPosition=left;html=1;" parent="1" vertex="1">
          <mxGeometry x="740" y="1520" width="180" height="130" as="geometry" />
        </mxCell>
        <mxCell id="KczL7LweS5aCczgaJEiZ-122" value="Label" style="endArrow=classic;html=1;entryX=0.494;entryY=0.077;entryDx=0;entryDy=0;entryPerimeter=0;exitX=0.172;exitY=1.01;exitDx=0;exitDy=0;exitPerimeter=0;" parent="1" source="KczL7LweS5aCczgaJEiZ-103" target="KczL7LweS5aCczgaJEiZ-117" edge="1">
          <mxGeometry relative="1" as="geometry">
            <mxPoint x="180" y="1440" as="sourcePoint" />
            <mxPoint x="40.000000000000455" y="1500.01" as="targetPoint" />
          </mxGeometry>
        </mxCell>
        <mxCell id="KczL7LweS5aCczgaJEiZ-123" value="&lt;font style=&quot;font-size: 14px&quot;&gt;import&lt;/font&gt;" style="edgeLabel;resizable=0;html=1;align=center;verticalAlign=middle;" parent="KczL7LweS5aCczgaJEiZ-122" connectable="0" vertex="1">
          <mxGeometry relative="1" as="geometry">
            <mxPoint x="1" as="offset" />
          </mxGeometry>
        </mxCell>
        <mxCell id="KczL7LweS5aCczgaJEiZ-124" value="&lt;font style=&quot;font-size: 14px&quot;&gt;&lt;font&gt;&lt;font&gt;v&lt;/font&gt;&lt;/font&gt;&lt;code&gt;1.1.1&lt;/code&gt;&lt;/font&gt;" style="edgeLabel;resizable=0;html=1;align=right;verticalAlign=bottom;" parent="KczL7LweS5aCczgaJEiZ-122" connectable="0" vertex="1">
          <mxGeometry x="1" relative="1" as="geometry">
            <mxPoint x="71" as="offset" />
          </mxGeometry>
        </mxCell>
        <mxCell id="KczL7LweS5aCczgaJEiZ-125" value="Label" style="endArrow=classic;html=1;entryX=0.506;entryY=0.1;entryDx=0;entryDy=0;entryPerimeter=0;exitX=0;exitY=0;exitDx=0;exitDy=72;exitPerimeter=0;" parent="1" source="KczL7LweS5aCczgaJEiZ-103" target="KczL7LweS5aCczgaJEiZ-100" edge="1">
          <mxGeometry relative="1" as="geometry">
            <mxPoint x="110" y="1380" as="sourcePoint" />
            <mxPoint x="-211.07999999999993" y="1540.0100000000002" as="targetPoint" />
          </mxGeometry>
        </mxCell>
        <mxCell id="KczL7LweS5aCczgaJEiZ-126" value="&lt;font style=&quot;font-size: 14px&quot;&gt;import&lt;/font&gt;" style="edgeLabel;resizable=0;html=1;align=center;verticalAlign=middle;" parent="KczL7LweS5aCczgaJEiZ-125" connectable="0" vertex="1">
          <mxGeometry relative="1" as="geometry">
            <mxPoint x="1" as="offset" />
          </mxGeometry>
        </mxCell>
        <mxCell id="KczL7LweS5aCczgaJEiZ-127" value="&lt;font style=&quot;font-size: 14px&quot;&gt;&lt;font&gt;&lt;font&gt;v&lt;/font&gt;&lt;/font&gt;&lt;code&gt;7.1.0&lt;/code&gt;&lt;/font&gt;" style="edgeLabel;resizable=0;html=1;align=right;verticalAlign=bottom;" parent="KczL7LweS5aCczgaJEiZ-125" connectable="0" vertex="1">
          <mxGeometry x="1" relative="1" as="geometry">
            <mxPoint x="79" y="-3" as="offset" />
          </mxGeometry>
        </mxCell>
        <mxCell id="KczL7LweS5aCczgaJEiZ-131" value="Label" style="endArrow=classic;html=1;entryX=0.411;entryY=0.1;entryDx=0;entryDy=0;entryPerimeter=0;exitX=1.006;exitY=0.708;exitDx=0;exitDy=0;exitPerimeter=0;" parent="1" source="KczL7LweS5aCczgaJEiZ-103" target="KczL7LweS5aCczgaJEiZ-118" edge="1">
          <mxGeometry relative="1" as="geometry">
            <mxPoint x="414.01" y="1430" as="sourcePoint" />
            <mxPoint x="647.9499999999996" y="1510.01" as="targetPoint" />
          </mxGeometry>
        </mxCell>
        <mxCell id="KczL7LweS5aCczgaJEiZ-132" value="&lt;font style=&quot;font-size: 14px&quot;&gt;import&lt;/font&gt;" style="edgeLabel;resizable=0;html=1;align=center;verticalAlign=middle;" parent="KczL7LweS5aCczgaJEiZ-131" connectable="0" vertex="1">
          <mxGeometry relative="1" as="geometry">
            <mxPoint x="1" as="offset" />
          </mxGeometry>
        </mxCell>
        <mxCell id="KczL7LweS5aCczgaJEiZ-133" value="&lt;font style=&quot;font-size: 14px&quot;&gt;&lt;font&gt;&lt;font&gt;v&lt;/font&gt;&lt;/font&gt;&lt;code&gt;7.0.2&lt;/code&gt;&lt;/font&gt;" style="edgeLabel;resizable=0;html=1;align=right;verticalAlign=bottom;" parent="KczL7LweS5aCczgaJEiZ-131" connectable="0" vertex="1">
          <mxGeometry x="1" relative="1" as="geometry">
            <mxPoint x="56" as="offset" />
          </mxGeometry>
        </mxCell>
        <mxCell id="KczL7LweS5aCczgaJEiZ-134" value="&lt;font style=&quot;font-size: 14px&quot;&gt;&lt;code&gt;@wildberries/&lt;br&gt;&lt;/code&gt;confirm-modal-portal&lt;br style=&quot;font-size: 12px&quot;&gt;&lt;span style=&quot;background-color: rgb(255 , 255 , 255)&quot;&gt;&lt;font&gt;&lt;br&gt;&lt;span style=&quot;font-weight: normal&quot;&gt;&lt;font&gt;v0.0.9&lt;/font&gt;&lt;/span&gt;&lt;/font&gt;&lt;/span&gt;&lt;/font&gt;&lt;span style=&quot;background-color: rgb(255 , 255 , 255)&quot;&gt;&lt;font style=&quot;font-size: 14px&quot;&gt;&lt;br&gt;&lt;/font&gt;&lt;/span&gt;" style="shape=folder;fontStyle=1;spacingTop=10;tabWidth=40;tabHeight=14;tabPosition=left;html=1;" parent="1" vertex="1">
          <mxGeometry x="1769.28" y="1960" width="180" height="130" as="geometry" />
        </mxCell>
        <mxCell id="KczL7LweS5aCczgaJEiZ-135" value="Label" style="endArrow=classic;html=1;exitX=-0.013;exitY=0.482;exitDx=0;exitDy=0;exitPerimeter=0;" parent="1" source="KczL7LweS5aCczgaJEiZ-88" edge="1">
          <mxGeometry relative="1" as="geometry">
            <mxPoint x="-667.9399999999996" y="1998.04" as="sourcePoint" />
            <mxPoint x="-750" y="2190" as="targetPoint" />
          </mxGeometry>
        </mxCell>
        <mxCell id="KczL7LweS5aCczgaJEiZ-136" value="&lt;font style=&quot;font-size: 14px&quot;&gt;import&lt;/font&gt;" style="edgeLabel;resizable=0;html=1;align=center;verticalAlign=middle;" parent="KczL7LweS5aCczgaJEiZ-135" connectable="0" vertex="1">
          <mxGeometry relative="1" as="geometry">
            <mxPoint x="1" as="offset" />
          </mxGeometry>
        </mxCell>
        <mxCell id="KczL7LweS5aCczgaJEiZ-137" value="&lt;font style=&quot;font-size: 14px&quot;&gt;&lt;font face=&quot;Helvetica&quot; style=&quot;font-weight: 700 ; text-align: center ; background-color: rgb(248 , 249 , 250)&quot;&gt;&lt;font style=&quot;font-weight: normal&quot;&gt;v&lt;/font&gt;&lt;/font&gt;&lt;code style=&quot;font-weight: 700 ; text-align: center ; background-color: rgb(248 , 249 , 250)&quot;&gt;&lt;font face=&quot;Helvetica&quot; style=&quot;font-weight: normal&quot;&gt;4.4.1&lt;/font&gt;&lt;/code&gt;&lt;/font&gt;" style="edgeLabel;resizable=0;html=1;align=right;verticalAlign=bottom;" parent="KczL7LweS5aCczgaJEiZ-135" connectable="0" vertex="1">
          <mxGeometry x="1" relative="1" as="geometry">
            <mxPoint x="47" as="offset" />
          </mxGeometry>
        </mxCell>
        <mxCell id="KczL7LweS5aCczgaJEiZ-138" value="Label" style="endArrow=classic;html=1;entryX=0.522;entryY=0.108;entryDx=0;entryDy=0;entryPerimeter=0;exitX=0.417;exitY=1;exitDx=0;exitDy=0;exitPerimeter=0;" parent="1" source="KczL7LweS5aCczgaJEiZ-88" target="KczL7LweS5aCczgaJEiZ-47" edge="1">
          <mxGeometry relative="1" as="geometry">
            <mxPoint x="-522.9399999999996" y="2240" as="sourcePoint" />
            <mxPoint x="-405" y="2301.96" as="targetPoint" />
          </mxGeometry>
        </mxCell>
        <mxCell id="KczL7LweS5aCczgaJEiZ-139" value="&lt;font style=&quot;font-size: 14px&quot;&gt;import&lt;/font&gt;" style="edgeLabel;resizable=0;html=1;align=center;verticalAlign=middle;" parent="KczL7LweS5aCczgaJEiZ-138" connectable="0" vertex="1">
          <mxGeometry relative="1" as="geometry">
            <mxPoint x="1" as="offset" />
          </mxGeometry>
        </mxCell>
        <mxCell id="KczL7LweS5aCczgaJEiZ-140" value="&lt;font style=&quot;font-size: 14px&quot;&gt;&lt;font&gt;&lt;font face=&quot;Helvetica&quot; style=&quot;font-weight: 700 ; text-align: center ; background-color: rgb(248 , 249 , 250)&quot;&gt;&lt;font style=&quot;font-weight: normal&quot;&gt;v&lt;/font&gt;&lt;/font&gt;&lt;/font&gt;&lt;code&gt;5.3.0&lt;/code&gt;&lt;/font&gt;" style="edgeLabel;resizable=0;html=1;align=right;verticalAlign=bottom;" parent="KczL7LweS5aCczgaJEiZ-138" connectable="0" vertex="1">
          <mxGeometry x="1" relative="1" as="geometry">
            <mxPoint x="1" y="-4" as="offset" />
          </mxGeometry>
        </mxCell>
        <mxCell id="KczL7LweS5aCczgaJEiZ-141" value="Label" style="endArrow=classic;html=1;exitX=0.25;exitY=1;exitDx=0;exitDy=0;exitPerimeter=0;entryX=0.759;entryY=0.082;entryDx=0;entryDy=0;entryPerimeter=0;" parent="1" source="KczL7LweS5aCczgaJEiZ-87" target="KczL7LweS5aCczgaJEiZ-88" edge="1">
          <mxGeometry relative="1" as="geometry">
            <mxPoint x="-300" y="2300" as="sourcePoint" />
            <mxPoint x="-427" y="2250" as="targetPoint" />
          </mxGeometry>
        </mxCell>
        <mxCell id="KczL7LweS5aCczgaJEiZ-142" value="&lt;font style=&quot;font-size: 14px&quot;&gt;import&lt;/font&gt;" style="edgeLabel;resizable=0;html=1;align=center;verticalAlign=middle;" parent="KczL7LweS5aCczgaJEiZ-141" connectable="0" vertex="1">
          <mxGeometry relative="1" as="geometry">
            <mxPoint x="1" as="offset" />
          </mxGeometry>
        </mxCell>
        <mxCell id="KczL7LweS5aCczgaJEiZ-143" value="&lt;font style=&quot;font-size: 14px&quot;&gt;&lt;font&gt;&lt;font&gt;v&lt;/font&gt;&lt;/font&gt;&lt;code&gt;1.0.11&lt;/code&gt;&lt;/font&gt;" style="edgeLabel;resizable=0;html=1;align=right;verticalAlign=bottom;" parent="KczL7LweS5aCczgaJEiZ-141" connectable="0" vertex="1">
          <mxGeometry x="1" relative="1" as="geometry">
            <mxPoint x="94" y="-1" as="offset" />
          </mxGeometry>
        </mxCell>
        <mxCell id="KczL7LweS5aCczgaJEiZ-144" value="Label" style="endArrow=classic;html=1;exitX=0.75;exitY=1;exitDx=0;exitDy=0;exitPerimeter=0;entryX=0.489;entryY=0.092;entryDx=0;entryDy=0;entryPerimeter=0;" parent="1" source="KczL7LweS5aCczgaJEiZ-87" target="KczL7LweS5aCczgaJEiZ-93" edge="1">
          <mxGeometry relative="1" as="geometry">
            <mxPoint x="-189.99999999999955" y="2350.0200000000004" as="sourcePoint" />
            <mxPoint x="-60.059999999999945" y="2260" as="targetPoint" />
          </mxGeometry>
        </mxCell>
        <mxCell id="KczL7LweS5aCczgaJEiZ-145" value="&lt;font style=&quot;font-size: 14px&quot;&gt;import&lt;/font&gt;" style="edgeLabel;resizable=0;html=1;align=center;verticalAlign=middle;" parent="KczL7LweS5aCczgaJEiZ-144" connectable="0" vertex="1">
          <mxGeometry relative="1" as="geometry">
            <mxPoint x="1" as="offset" />
          </mxGeometry>
        </mxCell>
        <mxCell id="KczL7LweS5aCczgaJEiZ-146" value="&lt;font style=&quot;font-size: 14px&quot;&gt;&lt;font&gt;&lt;font&gt;&lt;font&gt;v&lt;/font&gt;&lt;/font&gt;&lt;/font&gt;&lt;code&gt;19.4.4&lt;/code&gt;&lt;/font&gt;" style="edgeLabel;resizable=0;html=1;align=right;verticalAlign=bottom;" parent="KczL7LweS5aCczgaJEiZ-144" connectable="0" vertex="1">
          <mxGeometry x="1" relative="1" as="geometry">
            <mxPoint x="58" y="-12" as="offset" />
          </mxGeometry>
        </mxCell>
        <mxCell id="KczL7LweS5aCczgaJEiZ-147" value="Label" style="endArrow=classic;html=1;exitX=0.107;exitY=1.021;exitDx=0;exitDy=0;exitPerimeter=0;entryX=0;entryY=0;entryDx=110;entryDy=14;entryPerimeter=0;" parent="1" source="KczL7LweS5aCczgaJEiZ-84" target="KczL7LweS5aCczgaJEiZ-83" edge="1">
          <mxGeometry relative="1" as="geometry">
            <mxPoint x="200" y="2490" as="sourcePoint" />
            <mxPoint x="318.0199999999995" y="2610" as="targetPoint" />
          </mxGeometry>
        </mxCell>
        <mxCell id="KczL7LweS5aCczgaJEiZ-148" value="&lt;font style=&quot;font-size: 14px&quot;&gt;import&lt;/font&gt;" style="edgeLabel;resizable=0;html=1;align=center;verticalAlign=middle;" parent="KczL7LweS5aCczgaJEiZ-147" connectable="0" vertex="1">
          <mxGeometry relative="1" as="geometry">
            <mxPoint x="1" as="offset" />
          </mxGeometry>
        </mxCell>
        <mxCell id="KczL7LweS5aCczgaJEiZ-149" value="&lt;font style=&quot;font-size: 14px&quot;&gt;&lt;font&gt;v&lt;/font&gt;&lt;code&gt;17.1.1&lt;/code&gt;&lt;/font&gt;" style="edgeLabel;resizable=0;html=1;align=right;verticalAlign=bottom;" parent="KczL7LweS5aCczgaJEiZ-147" connectable="0" vertex="1">
          <mxGeometry x="1" relative="1" as="geometry">
            <mxPoint x="71" y="-7" as="offset" />
          </mxGeometry>
        </mxCell>
        <mxCell id="KczL7LweS5aCczgaJEiZ-150" value="Label" style="endArrow=classic;html=1;entryX=0.828;entryY=1.015;entryDx=0;entryDy=0;entryPerimeter=0;exitX=0.289;exitY=0.108;exitDx=0;exitDy=0;exitPerimeter=0;" parent="1" source="KczL7LweS5aCczgaJEiZ-84" target="KczL7LweS5aCczgaJEiZ-93" edge="1">
          <mxGeometry relative="1" as="geometry">
            <mxPoint x="-10" y="2490" as="sourcePoint" />
            <mxPoint x="50" y="1937.0100000000002" as="targetPoint" />
          </mxGeometry>
        </mxCell>
        <mxCell id="KczL7LweS5aCczgaJEiZ-151" value="&lt;font style=&quot;font-size: 14px&quot;&gt;import&lt;/font&gt;" style="edgeLabel;resizable=0;html=1;align=center;verticalAlign=middle;" parent="KczL7LweS5aCczgaJEiZ-150" connectable="0" vertex="1">
          <mxGeometry relative="1" as="geometry">
            <mxPoint x="1" as="offset" />
          </mxGeometry>
        </mxCell>
        <mxCell id="KczL7LweS5aCczgaJEiZ-152" value="&lt;font style=&quot;font-size: 14px&quot;&gt;&lt;font&gt;&lt;font&gt;v&lt;/font&gt;&lt;/font&gt;&lt;code&gt;19.4.4&lt;/code&gt;&lt;/font&gt;" style="edgeLabel;resizable=0;html=1;align=right;verticalAlign=bottom;" parent="KczL7LweS5aCczgaJEiZ-150" connectable="0" vertex="1">
          <mxGeometry x="1" relative="1" as="geometry">
            <mxPoint x="71" y="31" as="offset" />
          </mxGeometry>
        </mxCell>
        <mxCell id="KczL7LweS5aCczgaJEiZ-156" value="Label" style="endArrow=classic;html=1;entryX=0;entryY=0;entryDx=180;entryDy=72;entryPerimeter=0;exitX=-0.011;exitY=0.638;exitDx=0;exitDy=0;exitPerimeter=0;" parent="1" source="KczL7LweS5aCczgaJEiZ-84" target="KczL7LweS5aCczgaJEiZ-45" edge="1">
          <mxGeometry relative="1" as="geometry">
            <mxPoint x="20" y="2570" as="sourcePoint" />
            <mxPoint x="-330.48" y="2500" as="targetPoint" />
          </mxGeometry>
        </mxCell>
        <mxCell id="KczL7LweS5aCczgaJEiZ-157" value="&lt;font style=&quot;font-size: 14px&quot;&gt;import&lt;/font&gt;" style="edgeLabel;resizable=0;html=1;align=center;verticalAlign=middle;" parent="KczL7LweS5aCczgaJEiZ-156" connectable="0" vertex="1">
          <mxGeometry relative="1" as="geometry">
            <mxPoint x="1" as="offset" />
          </mxGeometry>
        </mxCell>
        <mxCell id="KczL7LweS5aCczgaJEiZ-158" value="&lt;font style=&quot;font-size: 14px&quot;&gt;&lt;font&gt;&lt;font&gt;&lt;font&gt;v&lt;/font&gt;&lt;/font&gt;&lt;/font&gt;&lt;code&gt;4.0.0&lt;/code&gt;&lt;/font&gt;" style="edgeLabel;resizable=0;html=1;align=right;verticalAlign=bottom;" parent="KczL7LweS5aCczgaJEiZ-156" connectable="0" vertex="1">
          <mxGeometry x="1" relative="1" as="geometry">
            <mxPoint x="60" y="31" as="offset" />
          </mxGeometry>
        </mxCell>
        <mxCell id="KczL7LweS5aCczgaJEiZ-162" value="Label" style="endArrow=classic;html=1;exitX=1.007;exitY=0.467;exitDx=0;exitDy=0;exitPerimeter=0;entryX=0.007;entryY=0.943;entryDx=0;entryDy=0;entryPerimeter=0;" parent="1" source="KczL7LweS5aCczgaJEiZ-84" target="4YIqJ9_skGSq3MTqp_Pp-36" edge="1">
          <mxGeometry relative="1" as="geometry">
            <mxPoint x="567.1199999999999" y="2520" as="sourcePoint" />
            <mxPoint x="120" y="2710" as="targetPoint" />
          </mxGeometry>
        </mxCell>
        <mxCell id="KczL7LweS5aCczgaJEiZ-163" value="&lt;font style=&quot;font-size: 14px&quot;&gt;import&lt;/font&gt;" style="edgeLabel;resizable=0;html=1;align=center;verticalAlign=middle;" parent="KczL7LweS5aCczgaJEiZ-162" connectable="0" vertex="1">
          <mxGeometry relative="1" as="geometry">
            <mxPoint x="1" as="offset" />
          </mxGeometry>
        </mxCell>
        <mxCell id="KczL7LweS5aCczgaJEiZ-164" value="&lt;font style=&quot;font-size: 14px&quot;&gt;&lt;span style=&quot;font-family: , &amp;#34;consolas&amp;#34; , &amp;#34;liberation mono&amp;#34; , &amp;#34;menlo&amp;#34; , monospace&quot;&gt;&lt;font&gt;v&lt;/font&gt;&lt;/span&gt;&lt;code&gt;3.7.2&lt;/code&gt;&lt;/font&gt;" style="edgeLabel;resizable=0;html=1;align=right;verticalAlign=bottom;" parent="KczL7LweS5aCczgaJEiZ-162" connectable="0" vertex="1">
          <mxGeometry x="1" relative="1" as="geometry">
            <mxPoint x="-4" y="-9" as="offset" />
          </mxGeometry>
        </mxCell>
        <mxCell id="Uk2plu6qtKxTgSTMpd2H-1" value="Label" style="endArrow=classic;html=1;entryX=0.744;entryY=0.085;entryDx=0;entryDy=0;entryPerimeter=0;exitX=0.188;exitY=0.992;exitDx=0;exitDy=0;exitPerimeter=0;" edge="1" parent="1" source="KczL7LweS5aCczgaJEiZ-80" target="KczL7LweS5aCczgaJEiZ-79">
          <mxGeometry relative="1" as="geometry">
            <mxPoint x="-1007.97" y="1236.35" as="sourcePoint" />
            <mxPoint x="-1112.0300000000004" y="1300" as="targetPoint" />
          </mxGeometry>
        </mxCell>
        <mxCell id="Uk2plu6qtKxTgSTMpd2H-2" value="&lt;font style=&quot;font-size: 14px&quot;&gt;import&lt;/font&gt;" style="edgeLabel;resizable=0;html=1;align=center;verticalAlign=middle;" connectable="0" vertex="1" parent="Uk2plu6qtKxTgSTMpd2H-1">
          <mxGeometry relative="1" as="geometry">
            <mxPoint x="1" as="offset" />
          </mxGeometry>
        </mxCell>
        <mxCell id="Uk2plu6qtKxTgSTMpd2H-3" value="&lt;font style=&quot;font-size: 14px&quot;&gt;&lt;span style=&quot;text-align: center ; background-color: rgb(248 , 249 , 250)&quot;&gt;v&lt;/span&gt;&lt;code style=&quot;text-align: center ; background-color: rgb(248 , 249 , 250)&quot;&gt;16.12.0&lt;/code&gt;&lt;/font&gt;" style="edgeLabel;resizable=0;html=1;align=right;verticalAlign=bottom;" connectable="0" vertex="1" parent="Uk2plu6qtKxTgSTMpd2H-1">
          <mxGeometry x="1" relative="1" as="geometry">
            <mxPoint x="56" y="-11" as="offset" />
          </mxGeometry>
        </mxCell>
        <mxCell id="Uk2plu6qtKxTgSTMpd2H-4" value="Label" style="endArrow=classic;html=1;exitX=0.5;exitY=1;exitDx=0;exitDy=0;exitPerimeter=0;entryX=0.444;entryY=0.077;entryDx=0;entryDy=0;entryPerimeter=0;" edge="1" parent="1" source="KczL7LweS5aCczgaJEiZ-80" target="KczL7LweS5aCczgaJEiZ-78">
          <mxGeometry relative="1" as="geometry">
            <mxPoint x="-971.1199999999999" y="1228.96" as="sourcePoint" />
            <mxPoint x="-720" y="1260" as="targetPoint" />
          </mxGeometry>
        </mxCell>
        <mxCell id="Uk2plu6qtKxTgSTMpd2H-5" value="&lt;font style=&quot;font-size: 14px&quot;&gt;import&lt;/font&gt;" style="edgeLabel;resizable=0;html=1;align=center;verticalAlign=middle;" connectable="0" vertex="1" parent="Uk2plu6qtKxTgSTMpd2H-4">
          <mxGeometry relative="1" as="geometry">
            <mxPoint x="1" as="offset" />
          </mxGeometry>
        </mxCell>
        <mxCell id="Uk2plu6qtKxTgSTMpd2H-6" value="&lt;font style=&quot;font-size: 14px&quot;&gt;&lt;span style=&quot;text-align: center ; background-color: rgb(248 , 249 , 250)&quot;&gt;v&lt;/span&gt;&lt;code style=&quot;text-align: center ; background-color: rgb(248 , 249 , 250)&quot;&gt;16.12.0&lt;/code&gt;&lt;/font&gt;" style="edgeLabel;resizable=0;html=1;align=right;verticalAlign=bottom;labelBorderColor=none;" connectable="0" vertex="1" parent="Uk2plu6qtKxTgSTMpd2H-4">
          <mxGeometry x="1" relative="1" as="geometry">
            <mxPoint x="280" y="-10" as="offset" />
          </mxGeometry>
        </mxCell>
        <mxCell id="Uk2plu6qtKxTgSTMpd2H-7" value="Label" style="endArrow=classic;html=1;entryX=0.5;entryY=0.077;entryDx=0;entryDy=0;entryPerimeter=0;exitX=0.85;exitY=1.023;exitDx=0;exitDy=0;exitPerimeter=0;" edge="1" parent="1" source="KczL7LweS5aCczgaJEiZ-80" target="KczL7LweS5aCczgaJEiZ-77">
          <mxGeometry relative="1" as="geometry">
            <mxPoint x="-800" y="1250" as="sourcePoint" />
            <mxPoint x="-888.9200000000001" y="1325.9899999999998" as="targetPoint" />
          </mxGeometry>
        </mxCell>
        <mxCell id="Uk2plu6qtKxTgSTMpd2H-8" value="&lt;font style=&quot;font-size: 14px&quot;&gt;import&lt;/font&gt;" style="edgeLabel;resizable=0;html=1;align=center;verticalAlign=middle;" connectable="0" vertex="1" parent="Uk2plu6qtKxTgSTMpd2H-7">
          <mxGeometry relative="1" as="geometry">
            <mxPoint x="1" as="offset" />
          </mxGeometry>
        </mxCell>
        <mxCell id="Uk2plu6qtKxTgSTMpd2H-9" value="&lt;font style=&quot;font-size: 14px&quot;&gt;&lt;font&gt;&lt;span style=&quot;text-align: center ; background-color: rgb(248 , 249 , 250)&quot;&gt;v&lt;/span&gt;&lt;/font&gt;&lt;code&gt;0.0.9&lt;/code&gt;&lt;/font&gt;" style="edgeLabel;resizable=0;html=1;align=right;verticalAlign=bottom;" connectable="0" vertex="1" parent="Uk2plu6qtKxTgSTMpd2H-7">
          <mxGeometry x="1" relative="1" as="geometry">
            <mxPoint x="-180" as="offset" />
          </mxGeometry>
        </mxCell>
        <mxCell id="Uk2plu6qtKxTgSTMpd2H-20" value="&lt;code style=&quot;font-size: 14px&quot;&gt;&lt;code&gt;&lt;font face=&quot;Helvetica&quot;&gt;@wildberries/&lt;/font&gt;&lt;br&gt;&lt;/code&gt;&lt;font face=&quot;Helvetica&quot; style=&quot;font-size: 14px&quot;&gt;&lt;span style=&quot;font-size: 14px&quot;&gt;service-modules-load&lt;/span&gt;&lt;br&gt;&lt;br&gt;&lt;font style=&quot;font-size: 14px ; font-weight: normal&quot;&gt;v&lt;/font&gt;&lt;/font&gt;&lt;code&gt;&lt;font face=&quot;Helvetica&quot; style=&quot;font-weight: normal ; font-size: 14px&quot;&gt;0.1.7-beta.8&lt;/font&gt;&lt;/code&gt;&lt;font face=&quot;Helvetica&quot; style=&quot;font-size: 14px&quot;&gt;&lt;br&gt;&lt;/font&gt;&lt;/code&gt;" style="shape=folder;fontStyle=1;spacingTop=10;tabWidth=40;tabHeight=14;tabPosition=left;html=1;" vertex="1" parent="1">
          <mxGeometry x="1250" y="1590" width="210" height="1020" as="geometry" />
        </mxCell>
        <mxCell id="Uk2plu6qtKxTgSTMpd2H-21" value="&lt;code&gt;&lt;font face=&quot;Helvetica&quot; style=&quot;font-size: 14px&quot;&gt;lodash.isequal&lt;/font&gt;&lt;/code&gt;" style="shape=folder;fontStyle=1;spacingTop=10;tabWidth=40;tabHeight=14;tabPosition=left;html=1;" vertex="1" parent="1">
          <mxGeometry x="-860" y="1510" width="180" height="130" as="geometry" />
        </mxCell>
        <mxCell id="Uk2plu6qtKxTgSTMpd2H-22" value="&lt;code&gt;&lt;font face=&quot;Helvetica&quot; style=&quot;font-size: 14px&quot;&gt;postcss-flexbugs-fixes&lt;/font&gt;&lt;/code&gt;" style="shape=folder;fontStyle=1;spacingTop=10;tabWidth=40;tabHeight=14;tabPosition=left;html=1;" vertex="1" parent="1">
          <mxGeometry x="-1890" y="1720" width="180" height="130" as="geometry" />
        </mxCell>
        <mxCell id="Uk2plu6qtKxTgSTMpd2H-23" value="&lt;code&gt;&lt;font face=&quot;Helvetica&quot; style=&quot;font-size: 14px&quot;&gt;markdown-draft-js&lt;/font&gt;&lt;/code&gt;" style="shape=folder;fontStyle=1;spacingTop=10;tabWidth=40;tabHeight=14;tabPosition=left;html=1;" vertex="1" parent="1">
          <mxGeometry x="-1890" y="1510" width="180" height="130" as="geometry" />
        </mxCell>
        <mxCell id="Uk2plu6qtKxTgSTMpd2H-24" value="&lt;code&gt;&lt;font face=&quot;Helvetica&quot; style=&quot;font-size: 14px&quot;&gt;draft-js-export-html&lt;/font&gt;&lt;/code&gt;" style="shape=folder;fontStyle=1;spacingTop=10;tabWidth=40;tabHeight=14;tabPosition=left;html=1;" vertex="1" parent="1">
          <mxGeometry x="-1420" y="1920" width="180" height="130" as="geometry" />
        </mxCell>
        <mxCell id="Uk2plu6qtKxTgSTMpd2H-25" value="&lt;code&gt;&lt;font face=&quot;Helvetica&quot; style=&quot;font-size: 14px&quot;&gt;draft-js&lt;/font&gt;&lt;/code&gt;" style="shape=folder;fontStyle=1;spacingTop=10;tabWidth=40;tabHeight=14;tabPosition=left;html=1;" vertex="1" parent="1">
          <mxGeometry x="-1340" y="1510" width="180" height="130" as="geometry" />
        </mxCell>
        <mxCell id="Uk2plu6qtKxTgSTMpd2H-26" value="&lt;code&gt;&lt;font face=&quot;Helvetica&quot; style=&quot;font-size: 14px&quot;&gt;@types/markdown-draft-js&lt;/font&gt;&lt;/code&gt;" style="shape=folder;fontStyle=1;spacingTop=10;tabWidth=40;tabHeight=14;tabPosition=left;html=1;" vertex="1" parent="1">
          <mxGeometry x="-1650" y="1510" width="250" height="130" as="geometry" />
        </mxCell>
        <mxCell id="Uk2plu6qtKxTgSTMpd2H-27" value="&lt;font style=&quot;font-size: 14px&quot;&gt;&lt;code&gt;@wildberries/&lt;/code&gt;ui-kit&lt;br&gt;&lt;br&gt;&lt;span style=&quot;font-weight: normal&quot;&gt;v1.0.6-beta.4&lt;/span&gt;&lt;br&gt;&lt;/font&gt;" style="shape=folder;fontStyle=1;spacingTop=10;tabWidth=40;tabHeight=14;tabPosition=left;html=1;" vertex="1" parent="1">
          <mxGeometry x="-1340" y="1740" width="180" height="130" as="geometry" />
        </mxCell>
        <mxCell id="Uk2plu6qtKxTgSTMpd2H-28" value="Label" style="endArrow=classic;html=1;entryX=0.344;entryY=0.077;entryDx=0;entryDy=0;entryPerimeter=0;exitX=0.792;exitY=1.023;exitDx=0;exitDy=0;exitPerimeter=0;" edge="1" parent="1" source="KczL7LweS5aCczgaJEiZ-76" target="KczL7LweS5aCczgaJEiZ-88">
          <mxGeometry relative="1" as="geometry">
            <mxPoint x="-458.89999999999964" y="1830" as="sourcePoint" />
            <mxPoint x="-510.0600000000004" y="2080.01" as="targetPoint" />
          </mxGeometry>
        </mxCell>
        <mxCell id="Uk2plu6qtKxTgSTMpd2H-29" value="&lt;font style=&quot;font-size: 14px&quot;&gt;import&lt;/font&gt;" style="edgeLabel;resizable=0;html=1;align=center;verticalAlign=middle;" connectable="0" vertex="1" parent="Uk2plu6qtKxTgSTMpd2H-28">
          <mxGeometry relative="1" as="geometry">
            <mxPoint x="1" as="offset" />
          </mxGeometry>
        </mxCell>
        <mxCell id="Uk2plu6qtKxTgSTMpd2H-30" value="&lt;font style=&quot;font-size: 14px&quot;&gt;&lt;font&gt;&lt;font face=&quot;Helvetica&quot; style=&quot;font-weight: 700 ; text-align: center ; background-color: rgb(248 , 249 , 250)&quot;&gt;&lt;font style=&quot;font-weight: normal&quot;&gt;v&lt;/font&gt;&lt;/font&gt;&lt;/font&gt;&lt;code&gt;1.0.12&lt;/code&gt;&lt;/font&gt;" style="edgeLabel;resizable=0;html=1;align=right;verticalAlign=bottom;" connectable="0" vertex="1" parent="Uk2plu6qtKxTgSTMpd2H-28">
          <mxGeometry x="1" relative="1" as="geometry">
            <mxPoint x="28" y="-20" as="offset" />
          </mxGeometry>
        </mxCell>
        <mxCell id="Uk2plu6qtKxTgSTMpd2H-31" value="Label" style="endArrow=classic;html=1;entryX=0.567;entryY=1.031;entryDx=0;entryDy=0;entryPerimeter=0;exitX=0.812;exitY=0.1;exitDx=0;exitDy=0;exitPerimeter=0;" edge="1" parent="1" source="KczL7LweS5aCczgaJEiZ-76" target="KczL7LweS5aCczgaJEiZ-81">
          <mxGeometry relative="1" as="geometry">
            <mxPoint x="-318.84000000000015" y="1622.9799999999996" as="sourcePoint" />
            <mxPoint x="-320" y="1870" as="targetPoint" />
          </mxGeometry>
        </mxCell>
        <mxCell id="Uk2plu6qtKxTgSTMpd2H-32" value="&lt;font style=&quot;font-size: 14px&quot;&gt;import&lt;/font&gt;" style="edgeLabel;resizable=0;html=1;align=center;verticalAlign=middle;" connectable="0" vertex="1" parent="Uk2plu6qtKxTgSTMpd2H-31">
          <mxGeometry relative="1" as="geometry">
            <mxPoint x="1" as="offset" />
          </mxGeometry>
        </mxCell>
        <mxCell id="Uk2plu6qtKxTgSTMpd2H-33" value="&lt;font style=&quot;font-size: 14px&quot;&gt;&lt;font&gt;&lt;font&gt;&lt;font face=&quot;Helvetica&quot; style=&quot;font-weight: 700 ; text-align: center ; background-color: rgb(248 , 249 , 250)&quot;&gt;&lt;font style=&quot;font-weight: normal&quot;&gt;v&lt;/font&gt;&lt;/font&gt;&lt;/font&gt;&lt;/font&gt;&lt;code&gt;0.0.14-beta.3&lt;/code&gt;&lt;/font&gt;" style="edgeLabel;resizable=0;html=1;align=right;verticalAlign=bottom;" connectable="0" vertex="1" parent="Uk2plu6qtKxTgSTMpd2H-31">
          <mxGeometry x="1" relative="1" as="geometry">
            <mxPoint x="58" y="36" as="offset" />
          </mxGeometry>
        </mxCell>
        <mxCell id="Uk2plu6qtKxTgSTMpd2H-34" value="Label" style="endArrow=classic;html=1;exitX=0.339;exitY=0.113;exitDx=0;exitDy=0;exitPerimeter=0;entryX=0.844;entryY=1.005;entryDx=0;entryDy=0;entryPerimeter=0;" edge="1" parent="1" source="Uk2plu6qtKxTgSTMpd2H-27" target="Uk2plu6qtKxTgSTMpd2H-26">
          <mxGeometry relative="1" as="geometry">
            <mxPoint x="-1570" y="1720" as="sourcePoint" />
            <mxPoint x="-1590" y="1643" as="targetPoint" />
          </mxGeometry>
        </mxCell>
        <mxCell id="Uk2plu6qtKxTgSTMpd2H-35" value="&lt;font style=&quot;font-size: 14px&quot;&gt;import&lt;/font&gt;" style="edgeLabel;resizable=0;html=1;align=center;verticalAlign=middle;" connectable="0" vertex="1" parent="Uk2plu6qtKxTgSTMpd2H-34">
          <mxGeometry relative="1" as="geometry">
            <mxPoint x="1" as="offset" />
          </mxGeometry>
        </mxCell>
        <mxCell id="Uk2plu6qtKxTgSTMpd2H-36" value="&lt;font style=&quot;font-size: 14px&quot;&gt;&lt;font&gt;&lt;font&gt;v&lt;font face=&quot;monospace&quot;&gt;2.2.2&lt;/font&gt;&lt;/font&gt;&lt;/font&gt;&lt;/font&gt;" style="edgeLabel;resizable=0;html=1;align=right;verticalAlign=bottom;" connectable="0" vertex="1" parent="Uk2plu6qtKxTgSTMpd2H-34">
          <mxGeometry x="1" relative="1" as="geometry">
            <mxPoint x="-1" y="20" as="offset" />
          </mxGeometry>
        </mxCell>
        <mxCell id="Uk2plu6qtKxTgSTMpd2H-37" value="Label" style="endArrow=classic;html=1;exitX=0.48;exitY=0.082;exitDx=0;exitDy=0;exitPerimeter=0;entryX=0.457;entryY=1.005;entryDx=0;entryDy=0;entryPerimeter=0;" edge="1" parent="1" source="Uk2plu6qtKxTgSTMpd2H-27" target="Uk2plu6qtKxTgSTMpd2H-25">
          <mxGeometry relative="1" as="geometry">
            <mxPoint x="-1564.04" y="1878.96" as="sourcePoint" />
            <mxPoint x="-1300" y="1680" as="targetPoint" />
          </mxGeometry>
        </mxCell>
        <mxCell id="Uk2plu6qtKxTgSTMpd2H-38" value="&lt;font style=&quot;font-size: 14px&quot;&gt;import&lt;/font&gt;" style="edgeLabel;resizable=0;html=1;align=center;verticalAlign=middle;" connectable="0" vertex="1" parent="Uk2plu6qtKxTgSTMpd2H-37">
          <mxGeometry relative="1" as="geometry">
            <mxPoint x="1" as="offset" />
          </mxGeometry>
        </mxCell>
        <mxCell id="Uk2plu6qtKxTgSTMpd2H-39" value="&lt;font style=&quot;font-size: 14px&quot;&gt;&lt;font&gt;&lt;font&gt;&lt;font&gt;v&lt;/font&gt;&lt;/font&gt;&lt;/font&gt;&lt;code&gt;0.11.7&lt;/code&gt;&lt;/font&gt;" style="edgeLabel;resizable=0;html=1;align=right;verticalAlign=bottom;" connectable="0" vertex="1" parent="Uk2plu6qtKxTgSTMpd2H-37">
          <mxGeometry x="1" relative="1" as="geometry">
            <mxPoint x="68" y="30" as="offset" />
          </mxGeometry>
        </mxCell>
        <mxCell id="Uk2plu6qtKxTgSTMpd2H-40" value="Label" style="endArrow=classic;html=1;entryX=0.444;entryY=0.077;entryDx=0;entryDy=0;entryPerimeter=0;exitX=0.178;exitY=1.011;exitDx=0;exitDy=0;exitPerimeter=0;" edge="1" parent="1">
          <mxGeometry relative="1" as="geometry">
            <mxPoint x="-1287.88" y="1871.4299999999998" as="sourcePoint" />
            <mxPoint x="-1320" y="1930.0099999999998" as="targetPoint" />
          </mxGeometry>
        </mxCell>
        <mxCell id="Uk2plu6qtKxTgSTMpd2H-41" value="&lt;font style=&quot;font-size: 14px&quot;&gt;import&lt;/font&gt;" style="edgeLabel;resizable=0;html=1;align=center;verticalAlign=middle;" connectable="0" vertex="1" parent="Uk2plu6qtKxTgSTMpd2H-40">
          <mxGeometry relative="1" as="geometry">
            <mxPoint x="1" as="offset" />
          </mxGeometry>
        </mxCell>
        <mxCell id="Uk2plu6qtKxTgSTMpd2H-42" value="&lt;font style=&quot;font-size: 14px&quot;&gt;&lt;font&gt;&lt;font&gt;&lt;font&gt;v&lt;/font&gt;&lt;/font&gt;&lt;/font&gt;&lt;code&gt;1.4.1&lt;/code&gt;&lt;/font&gt;" style="edgeLabel;resizable=0;html=1;align=right;verticalAlign=bottom;" connectable="0" vertex="1" parent="Uk2plu6qtKxTgSTMpd2H-40">
          <mxGeometry x="1" relative="1" as="geometry">
            <mxPoint x="70" as="offset" />
          </mxGeometry>
        </mxCell>
        <mxCell id="Uk2plu6qtKxTgSTMpd2H-44" value="Label" style="endArrow=classic;html=1;entryX=0.75;entryY=1;entryDx=0;entryDy=0;entryPerimeter=0;exitX=0;exitY=0;exitDx=0;exitDy=14;exitPerimeter=0;" edge="1" parent="1" source="Uk2plu6qtKxTgSTMpd2H-27" target="Uk2plu6qtKxTgSTMpd2H-23">
          <mxGeometry relative="1" as="geometry">
            <mxPoint x="-1564.04" y="1878.96" as="sourcePoint" />
            <mxPoint x="-1563" y="1964.04" as="targetPoint" />
          </mxGeometry>
        </mxCell>
        <mxCell id="Uk2plu6qtKxTgSTMpd2H-45" value="&lt;font style=&quot;font-size: 14px&quot;&gt;import&lt;/font&gt;" style="edgeLabel;resizable=0;html=1;align=center;verticalAlign=middle;" connectable="0" vertex="1" parent="Uk2plu6qtKxTgSTMpd2H-44">
          <mxGeometry relative="1" as="geometry">
            <mxPoint x="1" as="offset" />
          </mxGeometry>
        </mxCell>
        <mxCell id="Uk2plu6qtKxTgSTMpd2H-46" value="&lt;font style=&quot;font-size: 14px&quot;&gt;&lt;font&gt;&lt;font&gt;&lt;font&gt;v&lt;/font&gt;&lt;/font&gt;&lt;/font&gt;&lt;code&gt;2.2.1&lt;/code&gt;&lt;/font&gt;" style="edgeLabel;resizable=0;html=1;align=right;verticalAlign=bottom;" connectable="0" vertex="1" parent="Uk2plu6qtKxTgSTMpd2H-44">
          <mxGeometry x="1" relative="1" as="geometry">
            <mxPoint x="-5" y="20" as="offset" />
          </mxGeometry>
        </mxCell>
        <mxCell id="Uk2plu6qtKxTgSTMpd2H-47" value="Label" style="endArrow=classic;html=1;entryX=1.013;entryY=0.626;entryDx=0;entryDy=0;entryPerimeter=0;exitX=-0.02;exitY=0.497;exitDx=0;exitDy=0;exitPerimeter=0;" edge="1" parent="1" source="Uk2plu6qtKxTgSTMpd2H-27" target="Uk2plu6qtKxTgSTMpd2H-22">
          <mxGeometry relative="1" as="geometry">
            <mxPoint x="-1770" y="1690" as="sourcePoint" />
            <mxPoint x="-1660" y="1690" as="targetPoint" />
          </mxGeometry>
        </mxCell>
        <mxCell id="Uk2plu6qtKxTgSTMpd2H-48" value="&lt;font style=&quot;font-size: 14px&quot;&gt;import&lt;/font&gt;" style="edgeLabel;resizable=0;html=1;align=center;verticalAlign=middle;" connectable="0" vertex="1" parent="Uk2plu6qtKxTgSTMpd2H-47">
          <mxGeometry relative="1" as="geometry">
            <mxPoint x="1" as="offset" />
          </mxGeometry>
        </mxCell>
        <mxCell id="Uk2plu6qtKxTgSTMpd2H-49" value="&lt;font style=&quot;font-size: 14px&quot;&gt;&lt;font style=&quot;font-size: 14px&quot;&gt;&lt;font style=&quot;font-size: 14px&quot;&gt;&lt;font style=&quot;font-size: 14px&quot;&gt;&lt;font style=&quot;font-size: 14px&quot;&gt;&lt;font style=&quot;font-size: 14px&quot;&gt;v&lt;/font&gt;&lt;/font&gt;&lt;/font&gt;&lt;/font&gt;&lt;/font&gt;&lt;code&gt;4.2.0&lt;/code&gt;&lt;/font&gt;" style="edgeLabel;resizable=0;html=1;align=right;verticalAlign=bottom;" connectable="0" vertex="1" parent="Uk2plu6qtKxTgSTMpd2H-47">
          <mxGeometry x="1" relative="1" as="geometry">
            <mxPoint x="57" y="-11" as="offset" />
          </mxGeometry>
        </mxCell>
        <mxCell id="Uk2plu6qtKxTgSTMpd2H-50" value="&lt;font style=&quot;font-size: 14px&quot;&gt;import&lt;/font&gt;" style="endArrow=classic;html=1;entryX=-0.017;entryY=0.205;entryDx=0;entryDy=0;entryPerimeter=0;exitX=0.75;exitY=1;exitDx=0;exitDy=0;exitPerimeter=0;" edge="1" parent="1" source="Uk2plu6qtKxTgSTMpd2H-27" target="KczL7LweS5aCczgaJEiZ-47">
          <mxGeometry x="-0.3969" y="2" relative="1" as="geometry">
            <mxPoint x="-1015" y="2100" as="sourcePoint" />
            <mxPoint x="-1170" y="2112.34" as="targetPoint" />
            <Array as="points">
              <mxPoint x="-1015" y="2317" />
            </Array>
            <mxPoint y="-1" as="offset" />
          </mxGeometry>
        </mxCell>
        <mxCell id="Uk2plu6qtKxTgSTMpd2H-52" value="&lt;font style=&quot;font-size: 14px&quot;&gt;&lt;font style=&quot;font-size: 14px&quot;&gt;&lt;font style=&quot;font-size: 14px&quot;&gt;&lt;font style=&quot;font-size: 14px&quot;&gt;&lt;font style=&quot;font-size: 14px&quot;&gt;&lt;font style=&quot;font-size: 14px&quot;&gt;&lt;font style=&quot;font-size: 14px&quot;&gt;&lt;font style=&quot;font-size: 14px&quot;&gt;&lt;font style=&quot;font-size: 14px&quot;&gt;v&lt;/font&gt;&lt;/font&gt;&lt;/font&gt;&lt;/font&gt;&lt;/font&gt;&lt;/font&gt;&lt;/font&gt;&lt;/font&gt;&lt;code&gt;5.3.0&lt;/code&gt;&lt;/font&gt;" style="edgeLabel;resizable=0;html=1;align=right;verticalAlign=bottom;" connectable="0" vertex="1" parent="Uk2plu6qtKxTgSTMpd2H-50">
          <mxGeometry x="1" relative="1" as="geometry">
            <mxPoint x="-7" y="-7" as="offset" />
          </mxGeometry>
        </mxCell>
        <mxCell id="Uk2plu6qtKxTgSTMpd2H-54" value="&lt;code&gt;&lt;font face=&quot;Helvetica&quot; style=&quot;font-size: 14px&quot;&gt;postcss-normalize&lt;/font&gt;&lt;/code&gt;" style="shape=folder;fontStyle=1;spacingTop=10;tabWidth=40;tabHeight=14;tabPosition=left;html=1;" vertex="1" parent="1">
          <mxGeometry x="-1650" y="1920" width="180" height="130" as="geometry" />
        </mxCell>
        <mxCell id="Uk2plu6qtKxTgSTMpd2H-55" value="Label" style="endArrow=classic;html=1;exitX=-0.002;exitY=0.856;exitDx=0;exitDy=0;exitPerimeter=0;" edge="1" parent="1" source="Uk2plu6qtKxTgSTMpd2H-27" target="Uk2plu6qtKxTgSTMpd2H-54">
          <mxGeometry relative="1" as="geometry">
            <mxPoint x="-1560" y="1849.9799999999996" as="sourcePoint" />
            <mxPoint x="-1559.7199999999998" y="1920" as="targetPoint" />
          </mxGeometry>
        </mxCell>
        <mxCell id="Uk2plu6qtKxTgSTMpd2H-56" value="&lt;font style=&quot;font-size: 14px&quot;&gt;import&lt;/font&gt;" style="edgeLabel;resizable=0;html=1;align=center;verticalAlign=middle;" connectable="0" vertex="1" parent="Uk2plu6qtKxTgSTMpd2H-55">
          <mxGeometry relative="1" as="geometry">
            <mxPoint x="1" as="offset" />
          </mxGeometry>
        </mxCell>
        <mxCell id="Uk2plu6qtKxTgSTMpd2H-57" value="&lt;font style=&quot;font-size: 14px&quot;&gt;&lt;font style=&quot;font-size: 14px&quot;&gt;&lt;font style=&quot;font-size: 14px&quot;&gt;&lt;font style=&quot;font-size: 14px&quot;&gt;&lt;font style=&quot;font-size: 14px&quot;&gt;&lt;font style=&quot;font-size: 14px&quot;&gt;&lt;font style=&quot;font-size: 14px&quot;&gt;v&lt;/font&gt;&lt;/font&gt;&lt;/font&gt;&lt;/font&gt;&lt;/font&gt;&lt;/font&gt;&lt;code&gt;8.0.1&lt;/code&gt;&lt;/font&gt;" style="edgeLabel;resizable=0;html=1;align=right;verticalAlign=bottom;" connectable="0" vertex="1" parent="Uk2plu6qtKxTgSTMpd2H-55">
          <mxGeometry x="1" relative="1" as="geometry">
            <mxPoint x="-10" as="offset" />
          </mxGeometry>
        </mxCell>
        <mxCell id="Uk2plu6qtKxTgSTMpd2H-58" value="&lt;code&gt;&lt;font face=&quot;Helvetica&quot; style=&quot;font-size: 14px&quot;&gt;postcss-preset-env&lt;/font&gt;&lt;/code&gt;" style="shape=folder;fontStyle=1;spacingTop=10;tabWidth=40;tabHeight=14;tabPosition=left;html=1;" vertex="1" parent="1">
          <mxGeometry x="-1890" y="1920" width="180" height="130" as="geometry" />
        </mxCell>
        <mxCell id="Uk2plu6qtKxTgSTMpd2H-59" value="Label" style="endArrow=classic;html=1;exitX=-0.009;exitY=0.692;exitDx=0;exitDy=0;exitPerimeter=0;entryX=0.676;entryY=0.087;entryDx=0;entryDy=0;entryPerimeter=0;" edge="1" parent="1" source="Uk2plu6qtKxTgSTMpd2H-27" target="Uk2plu6qtKxTgSTMpd2H-58">
          <mxGeometry relative="1" as="geometry">
            <mxPoint x="-1580.3600000000001" y="1840" as="sourcePoint" />
            <mxPoint x="-1710" y="1918.9267018757969" as="targetPoint" />
          </mxGeometry>
        </mxCell>
        <mxCell id="Uk2plu6qtKxTgSTMpd2H-60" value="&lt;font style=&quot;font-size: 14px&quot;&gt;import&lt;/font&gt;" style="edgeLabel;resizable=0;html=1;align=center;verticalAlign=middle;" connectable="0" vertex="1" parent="Uk2plu6qtKxTgSTMpd2H-59">
          <mxGeometry relative="1" as="geometry">
            <mxPoint x="1" as="offset" />
          </mxGeometry>
        </mxCell>
        <mxCell id="Uk2plu6qtKxTgSTMpd2H-61" value="&lt;font style=&quot;font-size: 14px&quot;&gt;&lt;font style=&quot;font-size: 14px&quot;&gt;&lt;font style=&quot;font-size: 14px&quot;&gt;&lt;font style=&quot;font-size: 14px&quot;&gt;&lt;font style=&quot;font-size: 14px&quot;&gt;&lt;font style=&quot;font-size: 14px&quot;&gt;&lt;font style=&quot;font-size: 14px&quot;&gt;&lt;font style=&quot;font-size: 14px&quot;&gt;&lt;font style=&quot;font-size: 14px&quot;&gt;v&lt;/font&gt;&lt;/font&gt;&lt;/font&gt;&lt;/font&gt;&lt;/font&gt;&lt;/font&gt;&lt;/font&gt;&lt;/font&gt;&lt;code&gt;6.7.0&lt;/code&gt;&lt;/font&gt;" style="edgeLabel;resizable=0;html=1;align=right;verticalAlign=bottom;" connectable="0" vertex="1" parent="Uk2plu6qtKxTgSTMpd2H-59">
          <mxGeometry x="1" relative="1" as="geometry">
            <mxPoint x="-10" as="offset" />
          </mxGeometry>
        </mxCell>
        <mxCell id="Uk2plu6qtKxTgSTMpd2H-62" value="&lt;code&gt;&lt;font face=&quot;Helvetica&quot; style=&quot;font-size: 14px&quot;&gt;react-text-mask&lt;/font&gt;&lt;/code&gt;" style="shape=folder;fontStyle=1;spacingTop=10;tabWidth=40;tabHeight=14;tabPosition=left;html=1;" vertex="1" parent="1">
          <mxGeometry x="-1115" y="1510" width="180" height="130" as="geometry" />
        </mxCell>
        <mxCell id="Uk2plu6qtKxTgSTMpd2H-63" value="Label" style="endArrow=classic;html=1;exitX=0.694;exitY=0.077;exitDx=0;exitDy=0;exitPerimeter=0;entryX=0;entryY=0;entryDx=0;entryDy=130;entryPerimeter=0;" edge="1" parent="1" source="Uk2plu6qtKxTgSTMpd2H-27" target="Uk2plu6qtKxTgSTMpd2H-62">
          <mxGeometry relative="1" as="geometry">
            <mxPoint x="-1082.9299999999998" y="1800.0099999999998" as="sourcePoint" />
            <mxPoint x="-1087.0699999999997" y="1690" as="targetPoint" />
          </mxGeometry>
        </mxCell>
        <mxCell id="Uk2plu6qtKxTgSTMpd2H-64" value="&lt;font style=&quot;font-size: 14px&quot;&gt;import&lt;/font&gt;" style="edgeLabel;resizable=0;html=1;align=center;verticalAlign=middle;" connectable="0" vertex="1" parent="Uk2plu6qtKxTgSTMpd2H-63">
          <mxGeometry relative="1" as="geometry">
            <mxPoint x="1" as="offset" />
          </mxGeometry>
        </mxCell>
        <mxCell id="Uk2plu6qtKxTgSTMpd2H-65" value="&lt;font style=&quot;font-size: 14px&quot;&gt;&lt;font style=&quot;font-size: 14px&quot;&gt;&lt;font style=&quot;font-size: 14px&quot;&gt;&lt;font style=&quot;font-size: 14px&quot;&gt;&lt;font style=&quot;font-size: 14px&quot;&gt;&lt;font style=&quot;font-size: 14px&quot;&gt;v&lt;/font&gt;&lt;/font&gt;&lt;/font&gt;&lt;/font&gt;&lt;/font&gt;&lt;code&gt;5.4.3&lt;/code&gt;&lt;/font&gt;" style="edgeLabel;resizable=0;html=1;align=right;verticalAlign=bottom;" connectable="0" vertex="1" parent="Uk2plu6qtKxTgSTMpd2H-63">
          <mxGeometry x="1" relative="1" as="geometry">
            <mxPoint x="50" y="30" as="offset" />
          </mxGeometry>
        </mxCell>
        <mxCell id="Uk2plu6qtKxTgSTMpd2H-66" value="&lt;code&gt;&lt;font face=&quot;Helvetica&quot; style=&quot;font-size: 14px&quot;&gt;@types/uniqid&lt;/font&gt;&lt;/code&gt;" style="shape=folder;fontStyle=1;spacingTop=10;tabWidth=40;tabHeight=14;tabPosition=left;html=1;" vertex="1" parent="1">
          <mxGeometry x="-1099.02" y="1920" width="180" height="130" as="geometry" />
        </mxCell>
        <mxCell id="Uk2plu6qtKxTgSTMpd2H-69" value="Label" style="endArrow=classic;html=1;exitX=0;exitY=0;exitDx=180;exitDy=130;exitPerimeter=0;entryX=0.55;entryY=0.077;entryDx=0;entryDy=0;entryPerimeter=0;" edge="1" parent="1" source="Uk2plu6qtKxTgSTMpd2H-27" target="Uk2plu6qtKxTgSTMpd2H-66">
          <mxGeometry relative="1" as="geometry">
            <mxPoint x="-1115" y="1810.0100000000002" as="sourcePoint" />
            <mxPoint x="-1014.9200000000001" y="1700" as="targetPoint" />
          </mxGeometry>
        </mxCell>
        <mxCell id="Uk2plu6qtKxTgSTMpd2H-70" value="&lt;font style=&quot;font-size: 14px&quot;&gt;import&lt;/font&gt;" style="edgeLabel;resizable=0;html=1;align=center;verticalAlign=middle;" connectable="0" vertex="1" parent="Uk2plu6qtKxTgSTMpd2H-69">
          <mxGeometry relative="1" as="geometry">
            <mxPoint x="1" as="offset" />
          </mxGeometry>
        </mxCell>
        <mxCell id="Uk2plu6qtKxTgSTMpd2H-71" value="&lt;font style=&quot;font-size: 14px&quot;&gt;&lt;font style=&quot;font-size: 14px&quot;&gt;&lt;font style=&quot;font-size: 14px&quot;&gt;&lt;font style=&quot;font-size: 14px&quot;&gt;&lt;font style=&quot;font-size: 14px&quot;&gt;&lt;font style=&quot;font-size: 14px&quot;&gt;&lt;font style=&quot;font-size: 14px&quot;&gt;v&lt;/font&gt;&lt;/font&gt;&lt;/font&gt;&lt;/font&gt;&lt;/font&gt;&lt;/font&gt;&lt;code&gt;5.2.0&lt;/code&gt;&lt;/font&gt;" style="edgeLabel;resizable=0;html=1;align=right;verticalAlign=bottom;" connectable="0" vertex="1" parent="Uk2plu6qtKxTgSTMpd2H-69">
          <mxGeometry x="1" relative="1" as="geometry">
            <mxPoint x="60" as="offset" />
          </mxGeometry>
        </mxCell>
        <mxCell id="Uk2plu6qtKxTgSTMpd2H-72" value="Label" style="endArrow=classic;html=1;exitX=0;exitY=0;exitDx=0;exitDy=72;exitPerimeter=0;entryX=0;entryY=0;entryDx=180;entryDy=72;entryPerimeter=0;" edge="1" parent="1" source="KczL7LweS5aCczgaJEiZ-76" target="Uk2plu6qtKxTgSTMpd2H-27">
          <mxGeometry relative="1" as="geometry">
            <mxPoint x="-1119.01" y="1790" as="sourcePoint" />
            <mxPoint x="-959.0299999999995" y="1850.0100000000002" as="targetPoint" />
          </mxGeometry>
        </mxCell>
        <mxCell id="Uk2plu6qtKxTgSTMpd2H-73" value="&lt;font style=&quot;font-size: 14px&quot;&gt;import&lt;/font&gt;" style="edgeLabel;resizable=0;html=1;align=center;verticalAlign=middle;" connectable="0" vertex="1" parent="Uk2plu6qtKxTgSTMpd2H-72">
          <mxGeometry relative="1" as="geometry">
            <mxPoint x="1" as="offset" />
          </mxGeometry>
        </mxCell>
        <mxCell id="Uk2plu6qtKxTgSTMpd2H-74" value="&lt;font style=&quot;font-size: 14px&quot;&gt;&lt;font style=&quot;font-size: 14px&quot;&gt;&lt;font style=&quot;font-size: 14px&quot;&gt;&lt;font style=&quot;font-size: 14px&quot;&gt;&lt;font style=&quot;font-size: 14px&quot;&gt;&lt;font style=&quot;font-size: 14px&quot;&gt;&lt;font style=&quot;font-size: 14px&quot;&gt;&lt;font style=&quot;font-size: 14px&quot;&gt;v&lt;/font&gt;&lt;/font&gt;&lt;/font&gt;&lt;/font&gt;&lt;/font&gt;&lt;/font&gt;&lt;/font&gt;&lt;code&gt;1.0.5&lt;/code&gt;&lt;/font&gt;" style="edgeLabel;resizable=0;html=1;align=right;verticalAlign=bottom;" connectable="0" vertex="1" parent="Uk2plu6qtKxTgSTMpd2H-72">
          <mxGeometry x="1" relative="1" as="geometry">
            <mxPoint x="60" y="-12" as="offset" />
          </mxGeometry>
        </mxCell>
        <mxCell id="Uk2plu6qtKxTgSTMpd2H-75" value="Label" style="endArrow=classic;html=1;entryX=0.55;entryY=1.005;entryDx=0;entryDy=0;entryPerimeter=0;exitX=0.281;exitY=0.077;exitDx=0;exitDy=0;exitPerimeter=0;" edge="1" parent="1" source="KczL7LweS5aCczgaJEiZ-76" target="Uk2plu6qtKxTgSTMpd2H-21">
          <mxGeometry relative="1" as="geometry">
            <mxPoint x="-761" y="1720" as="sourcePoint" />
            <mxPoint x="-759.9999999999995" y="1654.0300000000002" as="targetPoint" />
          </mxGeometry>
        </mxCell>
        <mxCell id="Uk2plu6qtKxTgSTMpd2H-76" value="&lt;font style=&quot;font-size: 14px&quot;&gt;import&lt;/font&gt;" style="edgeLabel;resizable=0;html=1;align=center;verticalAlign=middle;" connectable="0" vertex="1" parent="Uk2plu6qtKxTgSTMpd2H-75">
          <mxGeometry relative="1" as="geometry">
            <mxPoint x="1" as="offset" />
          </mxGeometry>
        </mxCell>
        <mxCell id="Uk2plu6qtKxTgSTMpd2H-77" value="&lt;font style=&quot;font-size: 14px&quot;&gt;&lt;font&gt;&lt;font&gt;&lt;font&gt;&lt;font face=&quot;Helvetica&quot; style=&quot;font-weight: 700 ; text-align: center ; background-color: rgb(248 , 249 , 250)&quot;&gt;&lt;font style=&quot;font-weight: normal&quot;&gt;v&lt;/font&gt;&lt;/font&gt;&lt;/font&gt;&lt;/font&gt;&lt;/font&gt;&lt;code&gt;4.5.0&lt;/code&gt;&lt;/font&gt;" style="edgeLabel;resizable=0;html=1;align=right;verticalAlign=bottom;" connectable="0" vertex="1" parent="Uk2plu6qtKxTgSTMpd2H-75">
          <mxGeometry x="1" relative="1" as="geometry">
            <mxPoint x="-12" y="26" as="offset" />
          </mxGeometry>
        </mxCell>
        <mxCell id="Uk2plu6qtKxTgSTMpd2H-78" value="Label" style="endArrow=classic;html=1;entryX=0.12;entryY=1.021;entryDx=0;entryDy=0;entryPerimeter=0;exitX=0;exitY=0;exitDx=490;exitDy=14;exitPerimeter=0;" edge="1" parent="1" source="KczL7LweS5aCczgaJEiZ-76" target="KczL7LweS5aCczgaJEiZ-100">
          <mxGeometry relative="1" as="geometry">
            <mxPoint x="-279.8499999999999" y="1798.9700000000003" as="sourcePoint" />
            <mxPoint x="-280.6699999999996" y="1690" as="targetPoint" />
          </mxGeometry>
        </mxCell>
        <mxCell id="Uk2plu6qtKxTgSTMpd2H-79" value="&lt;font style=&quot;font-size: 14px&quot;&gt;import&lt;/font&gt;" style="edgeLabel;resizable=0;html=1;align=center;verticalAlign=middle;" connectable="0" vertex="1" parent="Uk2plu6qtKxTgSTMpd2H-78">
          <mxGeometry relative="1" as="geometry">
            <mxPoint x="1" as="offset" />
          </mxGeometry>
        </mxCell>
        <mxCell id="Uk2plu6qtKxTgSTMpd2H-80" value="&lt;font style=&quot;font-size: 14px&quot;&gt;&lt;font&gt;&lt;font&gt;&lt;font&gt;&lt;font face=&quot;Helvetica&quot; style=&quot;font-weight: 700 ; text-align: center ; background-color: rgb(248 , 249 , 250)&quot;&gt;&lt;font style=&quot;font-weight: normal&quot;&gt;v&lt;/font&gt;&lt;/font&gt;&lt;/font&gt;&lt;/font&gt;&lt;/font&gt;&lt;code&gt;7.1.0&lt;/code&gt;&lt;/font&gt;" style="edgeLabel;resizable=0;html=1;align=right;verticalAlign=bottom;" connectable="0" vertex="1" parent="Uk2plu6qtKxTgSTMpd2H-78">
          <mxGeometry x="1" relative="1" as="geometry">
            <mxPoint x="59" y="26" as="offset" />
          </mxGeometry>
        </mxCell>
        <mxCell id="Uk2plu6qtKxTgSTMpd2H-81" value="Label" style="endArrow=classic;html=1;entryX=0.717;entryY=0.108;entryDx=0;entryDy=0;entryPerimeter=0;exitX=0.207;exitY=1.031;exitDx=0;exitDy=0;exitPerimeter=0;" edge="1" parent="1" source="KczL7LweS5aCczgaJEiZ-76" target="KczL7LweS5aCczgaJEiZ-86">
          <mxGeometry relative="1" as="geometry">
            <mxPoint x="-801" y="1910" as="sourcePoint" />
            <mxPoint x="-798.79" y="1906.6100000000001" as="targetPoint" />
          </mxGeometry>
        </mxCell>
        <mxCell id="Uk2plu6qtKxTgSTMpd2H-82" value="&lt;font style=&quot;font-size: 14px&quot;&gt;import&lt;/font&gt;" style="edgeLabel;resizable=0;html=1;align=center;verticalAlign=middle;" connectable="0" vertex="1" parent="Uk2plu6qtKxTgSTMpd2H-81">
          <mxGeometry relative="1" as="geometry">
            <mxPoint x="1" as="offset" />
          </mxGeometry>
        </mxCell>
        <mxCell id="Uk2plu6qtKxTgSTMpd2H-83" value="&lt;font style=&quot;font-size: 14px&quot;&gt;&lt;font style=&quot;font-size: 14px&quot;&gt;&lt;font style=&quot;font-size: 14px&quot;&gt;&lt;font style=&quot;font-size: 14px&quot;&gt;&lt;font style=&quot;font-size: 14px&quot;&gt;&lt;font style=&quot;font-size: 14px&quot;&gt;&lt;font face=&quot;Helvetica&quot; style=&quot;font-weight: 700 ; text-align: center ; background-color: rgb(248 , 249 , 250) ; font-size: 14px&quot;&gt;&lt;font style=&quot;font-weight: normal ; font-size: 14px&quot;&gt;v&lt;/font&gt;&lt;/font&gt;&lt;/font&gt;&lt;/font&gt;&lt;/font&gt;&lt;/font&gt;&lt;/font&gt;&lt;code&gt;4.4.1&lt;/code&gt;&lt;/font&gt;" style="edgeLabel;resizable=0;html=1;align=right;verticalAlign=bottom;" connectable="0" vertex="1" parent="Uk2plu6qtKxTgSTMpd2H-81">
          <mxGeometry x="1" relative="1" as="geometry">
            <mxPoint x="-12" y="-4" as="offset" />
          </mxGeometry>
        </mxCell>
        <mxCell id="Uk2plu6qtKxTgSTMpd2H-84" value="Label" style="endArrow=classic;html=1;exitX=1.005;exitY=0.928;exitDx=0;exitDy=0;exitPerimeter=0;entryX=0.326;entryY=0.072;entryDx=0;entryDy=0;entryPerimeter=0;" edge="1" parent="1" source="KczL7LweS5aCczgaJEiZ-76" target="4YIqJ9_skGSq3MTqp_Pp-36">
          <mxGeometry relative="1" as="geometry">
            <mxPoint x="-350" y="1861.27" as="sourcePoint" />
            <mxPoint x="629" y="2319" as="targetPoint" />
            <Array as="points">
              <mxPoint x="610" y="1861" />
              <mxPoint x="610" y="2210" />
            </Array>
          </mxGeometry>
        </mxCell>
        <mxCell id="Uk2plu6qtKxTgSTMpd2H-85" value="&lt;font style=&quot;font-size: 14px&quot;&gt;import&lt;/font&gt;" style="edgeLabel;resizable=0;html=1;align=center;verticalAlign=middle;" connectable="0" vertex="1" parent="Uk2plu6qtKxTgSTMpd2H-84">
          <mxGeometry relative="1" as="geometry">
            <mxPoint x="1" as="offset" />
          </mxGeometry>
        </mxCell>
        <mxCell id="Uk2plu6qtKxTgSTMpd2H-86" value="&lt;font style=&quot;font-size: 14px&quot;&gt;&lt;font style=&quot;font-size: 14px&quot;&gt;&lt;font style=&quot;font-size: 14px&quot;&gt;&lt;font style=&quot;font-size: 14px&quot;&gt;&lt;font style=&quot;font-size: 14px&quot;&gt;&lt;font face=&quot;Helvetica&quot; style=&quot;font-weight: 700 ; text-align: center ; background-color: rgb(248 , 249 , 250) ; font-size: 14px&quot;&gt;&lt;font style=&quot;font-weight: normal ; font-size: 14px&quot;&gt;v&lt;/font&gt;&lt;/font&gt;&lt;/font&gt;&lt;/font&gt;&lt;/font&gt;&lt;/font&gt;&lt;code&gt;3.7.2&lt;/code&gt;&lt;/font&gt;" style="edgeLabel;resizable=0;html=1;align=right;verticalAlign=bottom;" connectable="0" vertex="1" parent="Uk2plu6qtKxTgSTMpd2H-84">
          <mxGeometry x="1" relative="1" as="geometry">
            <mxPoint x="59" y="-4" as="offset" />
          </mxGeometry>
        </mxCell>
        <mxCell id="Uk2plu6qtKxTgSTMpd2H-87" value="Label" style="endArrow=classic;html=1;entryX=0.5;entryY=1;entryDx=0;entryDy=0;entryPerimeter=0;exitX=0.02;exitY=-0.015;exitDx=0;exitDy=0;exitPerimeter=0;" edge="1" parent="1" source="KczL7LweS5aCczgaJEiZ-76" target="KczL7LweS5aCczgaJEiZ-78">
          <mxGeometry relative="1" as="geometry">
            <mxPoint x="-650" y="1754" as="sourcePoint" />
            <mxPoint x="-638.79" y="1570" as="targetPoint" />
          </mxGeometry>
        </mxCell>
        <mxCell id="Uk2plu6qtKxTgSTMpd2H-88" value="&lt;font style=&quot;font-size: 14px&quot;&gt;import&lt;/font&gt;" style="edgeLabel;resizable=0;html=1;align=center;verticalAlign=middle;" connectable="0" vertex="1" parent="Uk2plu6qtKxTgSTMpd2H-87">
          <mxGeometry relative="1" as="geometry">
            <mxPoint x="1" as="offset" />
          </mxGeometry>
        </mxCell>
        <mxCell id="Uk2plu6qtKxTgSTMpd2H-89" value="&lt;font style=&quot;font-size: 14px&quot;&gt;&lt;font style=&quot;font-size: 14px&quot;&gt;&lt;font style=&quot;font-size: 14px&quot;&gt;&lt;font style=&quot;font-size: 14px&quot;&gt;&lt;font style=&quot;font-size: 14px&quot;&gt;&lt;font face=&quot;Helvetica&quot; style=&quot;font-weight: 700 ; text-align: center ; background-color: rgb(248 , 249 , 250) ; font-size: 14px&quot;&gt;&lt;font style=&quot;font-weight: normal ; font-size: 14px&quot;&gt;v&lt;/font&gt;&lt;/font&gt;&lt;/font&gt;&lt;/font&gt;&lt;/font&gt;&lt;/font&gt;&lt;code&gt;0.0.9&lt;/code&gt;&lt;/font&gt;" style="edgeLabel;resizable=0;html=1;align=right;verticalAlign=bottom;" connectable="0" vertex="1" parent="Uk2plu6qtKxTgSTMpd2H-87">
          <mxGeometry x="1" relative="1" as="geometry">
            <mxPoint x="-10" y="30" as="offset" />
          </mxGeometry>
        </mxCell>
        <mxCell id="Uk2plu6qtKxTgSTMpd2H-96" value="Label" style="endArrow=classic;html=1;entryX=0.25;entryY=1;entryDx=0;entryDy=0;entryPerimeter=0;exitX=0;exitY=0;exitDx=490;exitDy=43;exitPerimeter=0;" edge="1" parent="1" source="KczL7LweS5aCczgaJEiZ-76" target="KczL7LweS5aCczgaJEiZ-101">
          <mxGeometry relative="1" as="geometry">
            <mxPoint x="-260" y="1811.27" as="sourcePoint" />
            <mxPoint x="-153.40000000000055" y="1710" as="targetPoint" />
          </mxGeometry>
        </mxCell>
        <mxCell id="Uk2plu6qtKxTgSTMpd2H-97" value="&lt;font style=&quot;font-size: 14px&quot;&gt;import&lt;/font&gt;" style="edgeLabel;resizable=0;html=1;align=center;verticalAlign=middle;" connectable="0" vertex="1" parent="Uk2plu6qtKxTgSTMpd2H-96">
          <mxGeometry relative="1" as="geometry">
            <mxPoint x="1" as="offset" />
          </mxGeometry>
        </mxCell>
        <mxCell id="Uk2plu6qtKxTgSTMpd2H-98" value="&lt;font style=&quot;font-size: 14px&quot;&gt;&lt;font style=&quot;font-size: 14px&quot;&gt;&lt;font style=&quot;font-size: 14px&quot;&gt;&lt;font style=&quot;font-size: 14px&quot;&gt;&lt;font style=&quot;font-size: 14px&quot;&gt;&lt;font face=&quot;Helvetica&quot; style=&quot;font-weight: 700 ; text-align: center ; background-color: rgb(248 , 249 , 250) ; font-size: 14px&quot;&gt;&lt;font style=&quot;font-weight: normal ; font-size: 14px&quot;&gt;v&lt;/font&gt;&lt;/font&gt;&lt;/font&gt;&lt;/font&gt;&lt;/font&gt;&lt;/font&gt;&lt;code&gt;7.0.2&lt;/code&gt;&lt;/font&gt;" style="edgeLabel;resizable=0;html=1;align=right;verticalAlign=bottom;" connectable="0" vertex="1" parent="Uk2plu6qtKxTgSTMpd2H-96">
          <mxGeometry x="1" relative="1" as="geometry">
            <mxPoint x="45" y="26" as="offset" />
          </mxGeometry>
        </mxCell>
        <mxCell id="Uk2plu6qtKxTgSTMpd2H-99" value="&lt;code&gt;&lt;code&gt;&lt;font face=&quot;Helvetica&quot; style=&quot;font-size: 14px&quot;&gt;react-virtualized&lt;/font&gt;&lt;/code&gt;&lt;font face=&quot;Helvetica&quot; style=&quot;font-size: 14px&quot;&gt;&lt;br&gt;&lt;/font&gt;&lt;/code&gt;" style="shape=folder;fontStyle=1;spacingTop=10;tabWidth=40;tabHeight=14;tabPosition=left;html=1;" vertex="1" parent="1">
          <mxGeometry x="-740" y="1950" width="180" height="130" as="geometry" />
        </mxCell>
        <mxCell id="Uk2plu6qtKxTgSTMpd2H-100" value="Label" style="endArrow=classic;html=1;exitX=0.5;exitY=1;exitDx=0;exitDy=0;exitPerimeter=0;entryX=0.498;entryY=0.085;entryDx=0;entryDy=0;entryPerimeter=0;" edge="1" parent="1" source="KczL7LweS5aCczgaJEiZ-76" target="Uk2plu6qtKxTgSTMpd2H-99">
          <mxGeometry relative="1" as="geometry">
            <mxPoint x="-649.5100000000002" y="1920" as="sourcePoint" />
            <mxPoint x="-648" y="1950" as="targetPoint" />
          </mxGeometry>
        </mxCell>
        <mxCell id="Uk2plu6qtKxTgSTMpd2H-101" value="&lt;font style=&quot;font-size: 14px&quot;&gt;import&lt;/font&gt;" style="edgeLabel;resizable=0;html=1;align=center;verticalAlign=middle;" connectable="0" vertex="1" parent="Uk2plu6qtKxTgSTMpd2H-100">
          <mxGeometry relative="1" as="geometry">
            <mxPoint x="1" as="offset" />
          </mxGeometry>
        </mxCell>
        <mxCell id="Uk2plu6qtKxTgSTMpd2H-102" value="&lt;font style=&quot;font-size: 14px&quot;&gt;&lt;font style=&quot;font-size: 14px&quot;&gt;&lt;font style=&quot;font-size: 14px&quot;&gt;&lt;font face=&quot;Helvetica&quot; style=&quot;font-weight: 700 ; text-align: center ; background-color: rgb(248 , 249 , 250) ; font-size: 14px&quot;&gt;&lt;font style=&quot;font-weight: normal ; font-size: 14px&quot;&gt;v&lt;/font&gt;&lt;/font&gt;&lt;/font&gt;&lt;/font&gt;&lt;code&gt;9.22.3&lt;/code&gt;&lt;/font&gt;" style="edgeLabel;resizable=0;html=1;align=right;verticalAlign=bottom;" connectable="0" vertex="1" parent="Uk2plu6qtKxTgSTMpd2H-100">
          <mxGeometry x="1" relative="1" as="geometry">
            <mxPoint x="68" y="-5" as="offset" />
          </mxGeometry>
        </mxCell>
        <mxCell id="Uk2plu6qtKxTgSTMpd2H-103" value="&lt;code&gt;&lt;code&gt;&lt;font face=&quot;Helvetica&quot; style=&quot;font-size: 14px&quot;&gt;webpackbar&lt;/font&gt;&lt;/code&gt;&lt;font face=&quot;Helvetica&quot;&gt;&lt;br&gt;&lt;/font&gt;&lt;/code&gt;" style="shape=folder;fontStyle=1;spacingTop=10;tabWidth=40;tabHeight=14;tabPosition=left;html=1;" vertex="1" parent="1">
          <mxGeometry x="-110" y="1710" width="180" height="130" as="geometry" />
        </mxCell>
        <mxCell id="Uk2plu6qtKxTgSTMpd2H-104" value="Label" style="endArrow=classic;html=1;entryX=0;entryY=0;entryDx=0;entryDy=101;entryPerimeter=0;exitX=0;exitY=0;exitDx=490;exitDy=72;exitPerimeter=0;" edge="1" parent="1" source="KczL7LweS5aCczgaJEiZ-76" target="Uk2plu6qtKxTgSTMpd2H-103">
          <mxGeometry relative="1" as="geometry">
            <mxPoint x="-209.51" y="1780" as="sourcePoint" />
            <mxPoint x="-210.66999999999985" y="2027.0200000000004" as="targetPoint" />
          </mxGeometry>
        </mxCell>
        <mxCell id="Uk2plu6qtKxTgSTMpd2H-105" value="&lt;font style=&quot;font-size: 14px&quot;&gt;import&lt;/font&gt;" style="edgeLabel;resizable=0;html=1;align=center;verticalAlign=middle;" connectable="0" vertex="1" parent="Uk2plu6qtKxTgSTMpd2H-104">
          <mxGeometry relative="1" as="geometry">
            <mxPoint x="1" as="offset" />
          </mxGeometry>
        </mxCell>
        <mxCell id="Uk2plu6qtKxTgSTMpd2H-106" value="&lt;font style=&quot;font-size: 14px&quot;&gt;&lt;font style=&quot;font-size: 14px&quot;&gt;&lt;font style=&quot;font-size: 14px&quot;&gt;&lt;font face=&quot;Helvetica&quot; style=&quot;font-weight: 700 ; text-align: center ; background-color: rgb(248 , 249 , 250) ; font-size: 14px&quot;&gt;&lt;font style=&quot;font-weight: normal ; font-size: 14px&quot;&gt;v&lt;/font&gt;&lt;/font&gt;&lt;/font&gt;&lt;/font&gt;&lt;code&gt;5.0.0-3&lt;/code&gt;&lt;/font&gt;" style="edgeLabel;resizable=0;html=1;align=right;verticalAlign=bottom;" connectable="0" vertex="1" parent="Uk2plu6qtKxTgSTMpd2H-104">
          <mxGeometry x="1" relative="1" as="geometry">
            <mxPoint x="-10" y="-11" as="offset" />
          </mxGeometry>
        </mxCell>
        <mxCell id="Uk2plu6qtKxTgSTMpd2H-107" value="Label" style="endArrow=classic;html=1;entryX=0.5;entryY=1;entryDx=0;entryDy=0;entryPerimeter=0;exitX=0.086;exitY=1;exitDx=0;exitDy=0;exitPerimeter=0;" edge="1" parent="1" source="Uk2plu6qtKxTgSTMpd2H-20" target="KczL7LweS5aCczgaJEiZ-83">
          <mxGeometry relative="1" as="geometry">
            <mxPoint x="1340" y="2630" as="sourcePoint" />
            <mxPoint x="1532.96" y="3071.9500000000007" as="targetPoint" />
            <Array as="points">
              <mxPoint x="1268" y="2920" />
              <mxPoint x="-20" y="2920" />
            </Array>
          </mxGeometry>
        </mxCell>
        <mxCell id="Uk2plu6qtKxTgSTMpd2H-108" value="&lt;font style=&quot;font-size: 14px&quot;&gt;import&lt;/font&gt;" style="edgeLabel;resizable=0;html=1;align=center;verticalAlign=middle;" connectable="0" vertex="1" parent="Uk2plu6qtKxTgSTMpd2H-107">
          <mxGeometry relative="1" as="geometry">
            <mxPoint x="1" as="offset" />
          </mxGeometry>
        </mxCell>
        <mxCell id="Uk2plu6qtKxTgSTMpd2H-109" value="&lt;font style=&quot;font-size: 14px&quot;&gt;&lt;font style=&quot;font-size: 14px&quot;&gt;v&lt;/font&gt;&lt;code&gt;17.1.1&lt;/code&gt;&lt;/font&gt;" style="edgeLabel;resizable=0;html=1;align=right;verticalAlign=bottom;" connectable="0" vertex="1" parent="Uk2plu6qtKxTgSTMpd2H-107">
          <mxGeometry x="1" relative="1" as="geometry">
            <mxPoint x="70" y="29" as="offset" />
          </mxGeometry>
        </mxCell>
        <mxCell id="Uk2plu6qtKxTgSTMpd2H-110" value="Label" style="endArrow=classic;html=1;entryX=1.011;entryY=0.905;entryDx=0;entryDy=0;entryPerimeter=0;exitX=-0.011;exitY=0.928;exitDx=0;exitDy=0;exitPerimeter=0;" edge="1" parent="1" source="Uk2plu6qtKxTgSTMpd2H-20" target="4YIqJ9_skGSq3MTqp_Pp-36">
          <mxGeometry relative="1" as="geometry">
            <mxPoint x="1210" y="2538" as="sourcePoint" />
            <mxPoint x="1150" y="2591.9500000000007" as="targetPoint" />
          </mxGeometry>
        </mxCell>
        <mxCell id="Uk2plu6qtKxTgSTMpd2H-111" value="&lt;font style=&quot;font-size: 14px&quot;&gt;import&lt;/font&gt;" style="edgeLabel;resizable=0;html=1;align=center;verticalAlign=middle;" connectable="0" vertex="1" parent="Uk2plu6qtKxTgSTMpd2H-110">
          <mxGeometry relative="1" as="geometry">
            <mxPoint x="1" as="offset" />
          </mxGeometry>
        </mxCell>
        <mxCell id="Uk2plu6qtKxTgSTMpd2H-112" value="&lt;font style=&quot;font-size: 14px&quot;&gt;&lt;font style=&quot;font-size: 14px&quot;&gt;v&lt;/font&gt;&lt;code&gt;3.7.3&lt;/code&gt;&lt;/font&gt;" style="edgeLabel;resizable=0;html=1;align=right;verticalAlign=bottom;" connectable="0" vertex="1" parent="Uk2plu6qtKxTgSTMpd2H-110">
          <mxGeometry x="1" relative="1" as="geometry">
            <mxPoint x="60" y="-12" as="offset" />
          </mxGeometry>
        </mxCell>
        <mxCell id="Uk2plu6qtKxTgSTMpd2H-113" value="Label" style="endArrow=classic;html=1;entryX=0.5;entryY=1;entryDx=0;entryDy=0;entryPerimeter=0;exitX=0.441;exitY=1;exitDx=0;exitDy=0;exitPerimeter=0;" edge="1" parent="1" source="Uk2plu6qtKxTgSTMpd2H-20" target="KczL7LweS5aCczgaJEiZ-30">
          <mxGeometry relative="1" as="geometry">
            <mxPoint x="1420" y="2650" as="sourcePoint" />
            <mxPoint x="40" y="2901.9400000000005" as="targetPoint" />
            <Array as="points">
              <mxPoint x="1340" y="3030" />
              <mxPoint x="-980" y="3030" />
              <mxPoint x="-1040" y="3030" />
              <mxPoint x="-1040" y="3010" />
            </Array>
          </mxGeometry>
        </mxCell>
        <mxCell id="Uk2plu6qtKxTgSTMpd2H-114" value="&lt;font style=&quot;font-size: 14px&quot;&gt;import&lt;/font&gt;" style="edgeLabel;resizable=0;html=1;align=center;verticalAlign=middle;" connectable="0" vertex="1" parent="Uk2plu6qtKxTgSTMpd2H-113">
          <mxGeometry relative="1" as="geometry">
            <mxPoint x="1" as="offset" />
          </mxGeometry>
        </mxCell>
        <mxCell id="Uk2plu6qtKxTgSTMpd2H-115" value="&lt;font style=&quot;font-size: 14px&quot;&gt;&lt;font&gt;&lt;font&gt;v&lt;/font&gt;&lt;/font&gt;&lt;code&gt;1.3.2&lt;/code&gt;&lt;/font&gt;" style="edgeLabel;resizable=0;html=1;align=right;verticalAlign=bottom;" connectable="0" vertex="1" parent="Uk2plu6qtKxTgSTMpd2H-113">
          <mxGeometry x="1" relative="1" as="geometry">
            <mxPoint x="20" y="40" as="offset" />
          </mxGeometry>
        </mxCell>
        <mxCell id="Uk2plu6qtKxTgSTMpd2H-117" value="Label" style="endArrow=classic;html=1;entryX=0.004;entryY=0.641;entryDx=0;entryDy=0;entryPerimeter=0;exitX=1.004;exitY=0.05;exitDx=0;exitDy=0;exitPerimeter=0;" edge="1" parent="1" source="Uk2plu6qtKxTgSTMpd2H-20" target="KczL7LweS5aCczgaJEiZ-75">
          <mxGeometry relative="1" as="geometry">
            <mxPoint x="1187.1" y="1399.0400000000004" as="sourcePoint" />
            <mxPoint x="1600.0000000000005" y="1520" as="targetPoint" />
          </mxGeometry>
        </mxCell>
        <mxCell id="Uk2plu6qtKxTgSTMpd2H-118" value="&lt;font style=&quot;font-size: 14px&quot;&gt;import&lt;/font&gt;" style="edgeLabel;resizable=0;html=1;align=center;verticalAlign=middle;" connectable="0" vertex="1" parent="Uk2plu6qtKxTgSTMpd2H-117">
          <mxGeometry relative="1" as="geometry">
            <mxPoint x="1" as="offset" />
          </mxGeometry>
        </mxCell>
        <mxCell id="Uk2plu6qtKxTgSTMpd2H-119" value="&lt;font style=&quot;font-size: 14px&quot;&gt;&lt;font&gt;&lt;font&gt;&lt;font&gt;v&lt;/font&gt;&lt;/font&gt;&lt;/font&gt;&lt;code&gt;1.0.1&lt;/code&gt;&lt;/font&gt;" style="edgeLabel;resizable=0;html=1;align=right;verticalAlign=bottom;" connectable="0" vertex="1" parent="Uk2plu6qtKxTgSTMpd2H-117">
          <mxGeometry x="1" relative="1" as="geometry">
            <mxPoint x="-11" y="-13" as="offset" />
          </mxGeometry>
        </mxCell>
        <mxCell id="Uk2plu6qtKxTgSTMpd2H-120" value="&lt;code&gt;&lt;span style=&quot;background-color: rgb(255 , 255 , 255)&quot;&gt;&lt;font face=&quot;Helvetica&quot; style=&quot;font-size: 14px&quot;&gt;@ravilm/databus-react&lt;/font&gt;&lt;/span&gt;&lt;font face=&quot;Helvetica&quot; style=&quot;font-size: 14px&quot;&gt;&lt;br&gt;&lt;br&gt;&lt;/font&gt;&lt;font style=&quot;font-family: &amp;#34;helvetica&amp;#34; ; font-size: 14px ; font-weight: 400 ; text-align: right ; background-color: rgb(255 , 255 , 255)&quot;&gt;v&lt;/font&gt;&lt;code style=&quot;font-size: 14px ; font-weight: 400 ; text-align: right ; background-color: rgb(255 , 255 , 255)&quot;&gt;1.0.1&lt;/code&gt;&lt;font face=&quot;Helvetica&quot; style=&quot;font-size: 14px&quot;&gt;&lt;br&gt;&lt;/font&gt;&lt;/code&gt;" style="shape=folder;fontStyle=1;spacingTop=10;tabWidth=40;tabHeight=14;tabPosition=left;html=1;" vertex="1" parent="1">
          <mxGeometry x="1769.28" y="1766" width="180" height="130" as="geometry" />
        </mxCell>
        <mxCell id="Uk2plu6qtKxTgSTMpd2H-121" value="Label" style="endArrow=classic;html=1;entryX=0.004;entryY=0.641;entryDx=0;entryDy=0;entryPerimeter=0;exitX=1.019;exitY=0.251;exitDx=0;exitDy=0;exitPerimeter=0;" edge="1" parent="1" target="Uk2plu6qtKxTgSTMpd2H-120" source="Uk2plu6qtKxTgSTMpd2H-20">
          <mxGeometry relative="1" as="geometry">
            <mxPoint x="1450" y="1849" as="sourcePoint" />
            <mxPoint x="1599.2800000000004" y="1726" as="targetPoint" />
          </mxGeometry>
        </mxCell>
        <mxCell id="Uk2plu6qtKxTgSTMpd2H-122" value="&lt;font style=&quot;font-size: 14px&quot;&gt;import&lt;/font&gt;" style="edgeLabel;resizable=0;html=1;align=center;verticalAlign=middle;" connectable="0" vertex="1" parent="Uk2plu6qtKxTgSTMpd2H-121">
          <mxGeometry relative="1" as="geometry">
            <mxPoint x="1" as="offset" />
          </mxGeometry>
        </mxCell>
        <mxCell id="Uk2plu6qtKxTgSTMpd2H-123" value="&lt;font style=&quot;font-size: 14px&quot;&gt;&lt;font&gt;&lt;font&gt;&lt;font&gt;v&lt;/font&gt;&lt;/font&gt;&lt;/font&gt;&lt;code&gt;1.0.1&lt;/code&gt;&lt;/font&gt;" style="edgeLabel;resizable=0;html=1;align=right;verticalAlign=bottom;" connectable="0" vertex="1" parent="Uk2plu6qtKxTgSTMpd2H-121">
          <mxGeometry x="1" relative="1" as="geometry">
            <mxPoint x="-11" y="-13" as="offset" />
          </mxGeometry>
        </mxCell>
        <mxCell id="Uk2plu6qtKxTgSTMpd2H-124" value="Label" style="endArrow=classic;html=1;entryX=0.5;entryY=1;entryDx=0;entryDy=0;entryPerimeter=0;exitX=0.511;exitY=0.092;exitDx=0;exitDy=0;exitPerimeter=0;" edge="1" parent="1" source="Uk2plu6qtKxTgSTMpd2H-120" target="KczL7LweS5aCczgaJEiZ-75">
          <mxGeometry relative="1" as="geometry">
            <mxPoint x="1909.999999999999" y="1710" as="sourcePoint" />
            <mxPoint x="2246.58" y="1713.31" as="targetPoint" />
          </mxGeometry>
        </mxCell>
        <mxCell id="Uk2plu6qtKxTgSTMpd2H-125" value="&lt;font style=&quot;font-size: 14px&quot;&gt;import&lt;/font&gt;" style="edgeLabel;resizable=0;html=1;align=center;verticalAlign=middle;" connectable="0" vertex="1" parent="Uk2plu6qtKxTgSTMpd2H-124">
          <mxGeometry relative="1" as="geometry">
            <mxPoint x="1" as="offset" />
          </mxGeometry>
        </mxCell>
        <mxCell id="Uk2plu6qtKxTgSTMpd2H-126" value="&lt;font style=&quot;font-size: 14px&quot;&gt;&lt;font&gt;&lt;font&gt;&lt;font&gt;v&lt;/font&gt;&lt;/font&gt;&lt;/font&gt;&lt;code&gt;1.0.1&lt;/code&gt;&lt;/font&gt;" style="edgeLabel;resizable=0;html=1;align=right;verticalAlign=bottom;" connectable="0" vertex="1" parent="Uk2plu6qtKxTgSTMpd2H-124">
          <mxGeometry x="1" relative="1" as="geometry">
            <mxPoint x="60" y="20" as="offset" />
          </mxGeometry>
        </mxCell>
        <mxCell id="Uk2plu6qtKxTgSTMpd2H-127" value="Label" style="endArrow=classic;html=1;entryX=0;entryY=0;entryDx=0;entryDy=72;entryPerimeter=0;exitX=1.013;exitY=0.433;exitDx=0;exitDy=0;exitPerimeter=0;" edge="1" parent="1" source="Uk2plu6qtKxTgSTMpd2H-20" target="KczL7LweS5aCczgaJEiZ-134">
          <mxGeometry relative="1" as="geometry">
            <mxPoint x="1480" y="2032" as="sourcePoint" />
            <mxPoint x="1740" y="2040" as="targetPoint" />
          </mxGeometry>
        </mxCell>
        <mxCell id="Uk2plu6qtKxTgSTMpd2H-128" value="&lt;font style=&quot;font-size: 14px&quot;&gt;import&lt;/font&gt;" style="edgeLabel;resizable=0;html=1;align=center;verticalAlign=middle;" connectable="0" vertex="1" parent="Uk2plu6qtKxTgSTMpd2H-127">
          <mxGeometry relative="1" as="geometry">
            <mxPoint x="1" as="offset" />
          </mxGeometry>
        </mxCell>
        <mxCell id="Uk2plu6qtKxTgSTMpd2H-129" value="&lt;font style=&quot;font-size: 14px&quot;&gt;&lt;font&gt;&lt;font&gt;&lt;font&gt;v&lt;font face=&quot;monospace&quot;&gt;0.0.9&lt;/font&gt;&lt;/font&gt;&lt;/font&gt;&lt;/font&gt;&lt;/font&gt;" style="edgeLabel;resizable=0;html=1;align=right;verticalAlign=bottom;" connectable="0" vertex="1" parent="Uk2plu6qtKxTgSTMpd2H-127">
          <mxGeometry x="1" relative="1" as="geometry">
            <mxPoint x="-11" y="-13" as="offset" />
          </mxGeometry>
        </mxCell>
        <mxCell id="Uk2plu6qtKxTgSTMpd2H-130" value="&lt;font style=&quot;font-size: 14px&quot;&gt;&lt;code&gt;@wildberries/&lt;br&gt;databus-service-products&lt;/code&gt;&lt;br style=&quot;font-size: 12px&quot;&gt;&lt;span style=&quot;background-color: rgb(255 , 255 , 255)&quot;&gt;&lt;font&gt;&lt;br&gt;&lt;span style=&quot;font-weight: normal&quot;&gt;&lt;font&gt;v0.0.1&lt;/font&gt;&lt;/span&gt;&lt;/font&gt;&lt;/span&gt;&lt;/font&gt;&lt;span style=&quot;background-color: rgb(255 , 255 , 255)&quot;&gt;&lt;font style=&quot;font-size: 14px&quot;&gt;&lt;br&gt;&lt;/font&gt;&lt;/span&gt;" style="shape=folder;fontStyle=1;spacingTop=10;tabWidth=40;tabHeight=14;tabPosition=left;html=1;" vertex="1" parent="1">
          <mxGeometry x="1769.28" y="2130" width="240.72" height="130" as="geometry" />
        </mxCell>
        <mxCell id="Uk2plu6qtKxTgSTMpd2H-131" value="Label" style="endArrow=classic;html=1;entryX=0;entryY=0;entryDx=0;entryDy=72;entryPerimeter=0;exitX=1.019;exitY=0.6;exitDx=0;exitDy=0;exitPerimeter=0;" edge="1" parent="1" target="Uk2plu6qtKxTgSTMpd2H-130" source="Uk2plu6qtKxTgSTMpd2H-20">
          <mxGeometry relative="1" as="geometry">
            <mxPoint x="1440" y="2202" as="sourcePoint" />
            <mxPoint x="1740" y="2210" as="targetPoint" />
          </mxGeometry>
        </mxCell>
        <mxCell id="Uk2plu6qtKxTgSTMpd2H-132" value="&lt;font style=&quot;font-size: 14px&quot;&gt;import&lt;/font&gt;" style="edgeLabel;resizable=0;html=1;align=center;verticalAlign=middle;" connectable="0" vertex="1" parent="Uk2plu6qtKxTgSTMpd2H-131">
          <mxGeometry relative="1" as="geometry">
            <mxPoint x="1" as="offset" />
          </mxGeometry>
        </mxCell>
        <mxCell id="Uk2plu6qtKxTgSTMpd2H-133" value="&lt;font style=&quot;font-size: 14px&quot;&gt;&lt;font&gt;&lt;font&gt;&lt;font&gt;v&lt;font face=&quot;monospace&quot;&gt;0.0.1&lt;/font&gt;&lt;/font&gt;&lt;/font&gt;&lt;/font&gt;&lt;/font&gt;" style="edgeLabel;resizable=0;html=1;align=right;verticalAlign=bottom;" connectable="0" vertex="1" parent="Uk2plu6qtKxTgSTMpd2H-131">
          <mxGeometry x="1" relative="1" as="geometry">
            <mxPoint x="-11" y="-13" as="offset" />
          </mxGeometry>
        </mxCell>
        <mxCell id="Uk2plu6qtKxTgSTMpd2H-134" value="Label" style="endArrow=classic;html=1;entryX=0;entryY=0;entryDx=0;entryDy=72;entryPerimeter=0;exitX=1.019;exitY=0.788;exitDx=0;exitDy=0;exitPerimeter=0;" edge="1" parent="1" source="Uk2plu6qtKxTgSTMpd2H-20" target="KczL7LweS5aCczgaJEiZ-89">
          <mxGeometry relative="1" as="geometry">
            <mxPoint x="1500" y="2385" as="sourcePoint" />
            <mxPoint x="1755.8599999999997" y="2400" as="targetPoint" />
          </mxGeometry>
        </mxCell>
        <mxCell id="Uk2plu6qtKxTgSTMpd2H-135" value="&lt;font style=&quot;font-size: 14px&quot;&gt;import&lt;/font&gt;" style="edgeLabel;resizable=0;html=1;align=center;verticalAlign=middle;" connectable="0" vertex="1" parent="Uk2plu6qtKxTgSTMpd2H-134">
          <mxGeometry relative="1" as="geometry">
            <mxPoint x="1" as="offset" />
          </mxGeometry>
        </mxCell>
        <mxCell id="Uk2plu6qtKxTgSTMpd2H-136" value="&lt;code&gt;&lt;font style=&quot;font-size: 14px&quot; face=&quot;Helvetica&quot;&gt;v0.0.8-beta.1&lt;/font&gt;&lt;/code&gt;" style="edgeLabel;resizable=0;html=1;align=right;verticalAlign=bottom;" connectable="0" vertex="1" parent="Uk2plu6qtKxTgSTMpd2H-134">
          <mxGeometry x="1" relative="1" as="geometry">
            <mxPoint x="-11" y="-13" as="offset" />
          </mxGeometry>
        </mxCell>
        <mxCell id="Uk2plu6qtKxTgSTMpd2H-137" value="Label" style="endArrow=classic;html=1;entryX=0;entryY=0;entryDx=180;entryDy=101;entryPerimeter=0;exitX=-0.004;exitY=0.975;exitDx=0;exitDy=0;exitPerimeter=0;" edge="1" parent="1" source="Uk2plu6qtKxTgSTMpd2H-20" target="KczL7LweS5aCczgaJEiZ-84">
          <mxGeometry relative="1" as="geometry">
            <mxPoint x="1190.7200000000003" y="2585.88" as="sourcePoint" />
            <mxPoint x="740" y="2584.12" as="targetPoint" />
          </mxGeometry>
        </mxCell>
        <mxCell id="Uk2plu6qtKxTgSTMpd2H-138" value="&lt;font style=&quot;font-size: 14px&quot;&gt;import&lt;/font&gt;" style="edgeLabel;resizable=0;html=1;align=center;verticalAlign=middle;" connectable="0" vertex="1" parent="Uk2plu6qtKxTgSTMpd2H-137">
          <mxGeometry relative="1" as="geometry">
            <mxPoint x="1" as="offset" />
          </mxGeometry>
        </mxCell>
        <mxCell id="Uk2plu6qtKxTgSTMpd2H-139" value="&lt;font style=&quot;font-size: 14px&quot;&gt;&lt;font&gt;&lt;font&gt;v&lt;/font&gt;&lt;/font&gt;&lt;code&gt;1.0.4&lt;/code&gt;&lt;/font&gt;" style="edgeLabel;resizable=0;html=1;align=right;verticalAlign=bottom;" connectable="0" vertex="1" parent="Uk2plu6qtKxTgSTMpd2H-137">
          <mxGeometry x="1" relative="1" as="geometry">
            <mxPoint x="60" y="29" as="offset" />
          </mxGeometry>
        </mxCell>
        <mxCell id="Uk2plu6qtKxTgSTMpd2H-140" value="Label" style="endArrow=classic;html=1;entryX=0;entryY=0;entryDx=0;entryDy=43;entryPerimeter=0;exitX=1.019;exitY=0.939;exitDx=0;exitDy=0;exitPerimeter=0;" edge="1" parent="1" source="Uk2plu6qtKxTgSTMpd2H-20" target="KczL7LweS5aCczgaJEiZ-85">
          <mxGeometry relative="1" as="geometry">
            <mxPoint x="1420.0000000000002" y="1540" as="sourcePoint" />
            <mxPoint x="1760.0000000000002" y="1542.33" as="targetPoint" />
          </mxGeometry>
        </mxCell>
        <mxCell id="Uk2plu6qtKxTgSTMpd2H-141" value="&lt;font style=&quot;font-size: 14px&quot;&gt;import&lt;/font&gt;" style="edgeLabel;resizable=0;html=1;align=center;verticalAlign=middle;" connectable="0" vertex="1" parent="Uk2plu6qtKxTgSTMpd2H-140">
          <mxGeometry relative="1" as="geometry">
            <mxPoint x="1" as="offset" />
          </mxGeometry>
        </mxCell>
        <mxCell id="Uk2plu6qtKxTgSTMpd2H-142" value="&lt;font style=&quot;font-size: 14px&quot;&gt;&lt;font style=&quot;font-size: 14px&quot;&gt;&lt;font style=&quot;font-size: 14px&quot;&gt;&lt;font style=&quot;font-size: 14px&quot;&gt;&lt;font style=&quot;font-size: 14px&quot;&gt;&lt;font style=&quot;font-size: 14px&quot;&gt;v&lt;/font&gt;&lt;/font&gt;&lt;/font&gt;&lt;/font&gt;&lt;/font&gt;&lt;code&gt;0.0.15&lt;/code&gt;&lt;/font&gt;" style="edgeLabel;resizable=0;html=1;align=right;verticalAlign=bottom;" connectable="0" vertex="1" parent="Uk2plu6qtKxTgSTMpd2H-140">
          <mxGeometry x="1" relative="1" as="geometry">
            <mxPoint x="-9" y="-13" as="offset" />
          </mxGeometry>
        </mxCell>
        <mxCell id="Uk2plu6qtKxTgSTMpd2H-148" value="Label" style="endArrow=classic;html=1;exitX=0.5;exitY=1;exitDx=0;exitDy=0;exitPerimeter=0;entryX=0.389;entryY=0.123;entryDx=0;entryDy=0;entryPerimeter=0;" edge="1" parent="1" source="KczL7LweS5aCczgaJEiZ-84" target="KczL7LweS5aCczgaJEiZ-82">
          <mxGeometry relative="1" as="geometry">
            <mxPoint x="59.26000000000022" y="2622.7300000000005" as="sourcePoint" />
            <mxPoint x="10" y="2745.9400000000005" as="targetPoint" />
          </mxGeometry>
        </mxCell>
        <mxCell id="Uk2plu6qtKxTgSTMpd2H-149" value="&lt;font style=&quot;font-size: 14px&quot;&gt;import&lt;/font&gt;" style="edgeLabel;resizable=0;html=1;align=center;verticalAlign=middle;" connectable="0" vertex="1" parent="Uk2plu6qtKxTgSTMpd2H-148">
          <mxGeometry relative="1" as="geometry">
            <mxPoint x="1" as="offset" />
          </mxGeometry>
        </mxCell>
        <mxCell id="Uk2plu6qtKxTgSTMpd2H-150" value="&lt;font style=&quot;font-size: 14px&quot;&gt;&lt;font&gt;&lt;font&gt;v&lt;/font&gt;&lt;/font&gt;&lt;code&gt;1.3.1&lt;/code&gt;&lt;/font&gt;" style="edgeLabel;resizable=0;html=1;align=right;verticalAlign=bottom;" connectable="0" vertex="1" parent="Uk2plu6qtKxTgSTMpd2H-148">
          <mxGeometry x="1" relative="1" as="geometry">
            <mxPoint x="60" y="-7" as="offset" />
          </mxGeometry>
        </mxCell>
        <mxCell id="Uk2plu6qtKxTgSTMpd2H-153" value="Label" style="endArrow=classic;html=1;entryX=0;entryY=0;entryDx=110;entryDy=14;entryPerimeter=0;" edge="1" parent="1" target="KczL7LweS5aCczgaJEiZ-88">
          <mxGeometry relative="1" as="geometry">
            <mxPoint x="1247" y="1890" as="sourcePoint" />
            <mxPoint x="-420" y="1910" as="targetPoint" />
            <Array as="points">
              <mxPoint x="-460" y="1890" />
            </Array>
          </mxGeometry>
        </mxCell>
        <mxCell id="Uk2plu6qtKxTgSTMpd2H-154" value="&lt;font style=&quot;font-size: 14px&quot;&gt;import&lt;/font&gt;" style="edgeLabel;resizable=0;html=1;align=center;verticalAlign=middle;" connectable="0" vertex="1" parent="Uk2plu6qtKxTgSTMpd2H-153">
          <mxGeometry relative="1" as="geometry">
            <mxPoint x="1" as="offset" />
          </mxGeometry>
        </mxCell>
        <mxCell id="Uk2plu6qtKxTgSTMpd2H-155" value="&lt;font style=&quot;font-size: 14px&quot;&gt;&lt;font style=&quot;font-size: 14px&quot;&gt;&lt;font style=&quot;font-size: 14px&quot;&gt;&lt;font style=&quot;font-size: 14px&quot;&gt;&lt;font style=&quot;font-size: 14px&quot;&gt;&lt;font style=&quot;font-size: 14px&quot;&gt;v&lt;/font&gt;&lt;/font&gt;&lt;/font&gt;&lt;/font&gt;&lt;/font&gt;&lt;code&gt;1.0.12&lt;/code&gt;&lt;/font&gt;" style="edgeLabel;resizable=0;html=1;align=right;verticalAlign=bottom;" connectable="0" vertex="1" parent="Uk2plu6qtKxTgSTMpd2H-153">
          <mxGeometry x="1" relative="1" as="geometry">
            <mxPoint x="30" y="-74" as="offset" />
          </mxGeometry>
        </mxCell>
        <mxCell id="Uk2plu6qtKxTgSTMpd2H-156" value="&lt;code&gt;&lt;code&gt;&lt;font face=&quot;Helvetica&quot; style=&quot;font-size: 14px&quot;&gt;@wildberries/&lt;br&gt;service-logger&lt;/font&gt;&lt;/code&gt;&lt;font face=&quot;Helvetica&quot;&gt;&lt;font size=&quot;3&quot;&gt;&lt;br&gt;&lt;/font&gt;&lt;br&gt;&lt;/font&gt;&lt;font style=&quot;font-family: &amp;#34;helvetica&amp;#34; ; font-size: 14px ; font-weight: 400 ; text-align: right ; background-color: rgb(255 , 255 , 255)&quot;&gt;v?&lt;/font&gt;&lt;font face=&quot;Helvetica&quot; style=&quot;font-size: 14px&quot;&gt;&lt;br&gt;&lt;/font&gt;&lt;/code&gt;" style="shape=folder;fontStyle=1;spacingTop=10;tabWidth=40;tabHeight=14;tabPosition=left;html=1;" vertex="1" parent="1">
          <mxGeometry x="1770" y="1360" width="180" height="130" as="geometry" />
        </mxCell>
        <mxCell id="Uk2plu6qtKxTgSTMpd2H-157" value="Label" style="endArrow=classic;html=1;entryX=-0.019;entryY=0.703;entryDx=0;entryDy=0;entryPerimeter=0;exitX=1.019;exitY=0.026;exitDx=0;exitDy=0;exitPerimeter=0;" edge="1" parent="1" source="Uk2plu6qtKxTgSTMpd2H-20" target="Uk2plu6qtKxTgSTMpd2H-156">
          <mxGeometry relative="1" as="geometry">
            <mxPoint x="1598.67" y="1560.0000000000005" as="sourcePoint" />
            <mxPoint x="1598.67" y="1419.8" as="targetPoint" />
          </mxGeometry>
        </mxCell>
        <mxCell id="Uk2plu6qtKxTgSTMpd2H-158" value="&lt;font style=&quot;font-size: 14px&quot;&gt;import&lt;/font&gt;" style="edgeLabel;resizable=0;html=1;align=center;verticalAlign=middle;" connectable="0" vertex="1" parent="Uk2plu6qtKxTgSTMpd2H-157">
          <mxGeometry relative="1" as="geometry">
            <mxPoint x="1" as="offset" />
          </mxGeometry>
        </mxCell>
        <mxCell id="Uk2plu6qtKxTgSTMpd2H-159" value="&lt;font style=&quot;font-size: 14px&quot;&gt;&lt;font style=&quot;font-size: 14px&quot;&gt;&lt;font style=&quot;font-size: 14px&quot;&gt;&lt;font style=&quot;font-size: 14px&quot;&gt;&lt;font style=&quot;font-size: 14px&quot;&gt;&lt;font style=&quot;font-size: 14px&quot;&gt;&lt;font style=&quot;font-size: 14px&quot;&gt;&lt;font style=&quot;font-size: 14px&quot;&gt;v&lt;/font&gt;&lt;/font&gt;&lt;/font&gt;&lt;/font&gt;&lt;/font&gt;&lt;/font&gt;&lt;/font&gt;&lt;code&gt;0.0.1&lt;/code&gt;&lt;/font&gt;" style="edgeLabel;resizable=0;html=1;align=right;verticalAlign=bottom;" connectable="0" vertex="1" parent="Uk2plu6qtKxTgSTMpd2H-157">
          <mxGeometry x="1" relative="1" as="geometry">
            <mxPoint x="-6" y="-12" as="offset" />
          </mxGeometry>
        </mxCell>
        <mxCell id="Uk2plu6qtKxTgSTMpd2H-160" value="Label" style="endArrow=classic;html=1;entryX=1.015;entryY=0.267;entryDx=0;entryDy=0;entryPerimeter=0;exitX=-0.004;exitY=0.388;exitDx=0;exitDy=0;exitPerimeter=0;" edge="1" parent="1" source="Uk2plu6qtKxTgSTMpd2H-20" target="KczL7LweS5aCczgaJEiZ-87">
          <mxGeometry relative="1" as="geometry">
            <mxPoint x="679.7" y="2024.35" as="sourcePoint" />
            <mxPoint x="930.2999999999995" y="1831" as="targetPoint" />
          </mxGeometry>
        </mxCell>
        <mxCell id="Uk2plu6qtKxTgSTMpd2H-161" value="&lt;font style=&quot;font-size: 14px&quot;&gt;import&lt;/font&gt;" style="edgeLabel;resizable=0;html=1;align=center;verticalAlign=middle;" connectable="0" vertex="1" parent="Uk2plu6qtKxTgSTMpd2H-160">
          <mxGeometry relative="1" as="geometry">
            <mxPoint x="1" as="offset" />
          </mxGeometry>
        </mxCell>
        <mxCell id="Uk2plu6qtKxTgSTMpd2H-162" value="&lt;font style=&quot;font-size: 14px&quot;&gt;v0.2.0&lt;/font&gt;" style="edgeLabel;resizable=0;html=1;align=right;verticalAlign=bottom;" connectable="0" vertex="1" parent="Uk2plu6qtKxTgSTMpd2H-160">
          <mxGeometry x="1" relative="1" as="geometry">
            <mxPoint x="50" y="29" as="offset" />
          </mxGeometry>
        </mxCell>
        <mxCell id="Uk2plu6qtKxTgSTMpd2H-163" value="Label" style="endArrow=classic;html=1;exitX=-0.019;exitY=0.565;exitDx=0;exitDy=0;exitPerimeter=0;entryX=0;entryY=0;entryDx=180;entryDy=43;entryPerimeter=0;" edge="1" parent="1" source="Uk2plu6qtKxTgSTMpd2H-20" target="KczL7LweS5aCczgaJEiZ-93">
          <mxGeometry relative="1" as="geometry">
            <mxPoint x="1230" y="2170" as="sourcePoint" />
            <mxPoint x="30" y="2160" as="targetPoint" />
          </mxGeometry>
        </mxCell>
        <mxCell id="Uk2plu6qtKxTgSTMpd2H-164" value="&lt;font style=&quot;font-size: 14px&quot;&gt;import&lt;/font&gt;" style="edgeLabel;resizable=0;html=1;align=center;verticalAlign=middle;" connectable="0" vertex="1" parent="Uk2plu6qtKxTgSTMpd2H-163">
          <mxGeometry relative="1" as="geometry">
            <mxPoint x="1" as="offset" />
          </mxGeometry>
        </mxCell>
        <mxCell id="Uk2plu6qtKxTgSTMpd2H-165" value="&lt;font style=&quot;font-size: 14px&quot;&gt;&lt;font&gt;v&lt;/font&gt;&lt;code&gt;19.4.4&lt;/code&gt;&lt;/font&gt;" style="edgeLabel;resizable=0;html=1;align=right;verticalAlign=bottom;" connectable="0" vertex="1" parent="Uk2plu6qtKxTgSTMpd2H-163">
          <mxGeometry x="1" relative="1" as="geometry">
            <mxPoint x="70" y="29" as="offset" />
          </mxGeometry>
        </mxCell>
        <mxCell id="Uk2plu6qtKxTgSTMpd2H-166" value="Label" style="endArrow=classic;html=1;entryX=0;entryY=0;entryDx=180;entryDy=43;entryPerimeter=0;exitX=0;exitY=0;exitDx=20;exitDy=0;exitPerimeter=0;" edge="1" parent="1" source="Uk2plu6qtKxTgSTMpd2H-20" target="KczL7LweS5aCczgaJEiZ-103">
          <mxGeometry relative="1" as="geometry">
            <mxPoint x="1270" y="1560" as="sourcePoint" />
            <mxPoint x="1064.33" y="1400" as="targetPoint" />
            <Array as="points">
              <mxPoint x="1270" y="1363" />
              <mxPoint x="1090" y="1363" />
            </Array>
          </mxGeometry>
        </mxCell>
        <mxCell id="Uk2plu6qtKxTgSTMpd2H-167" value="&lt;font style=&quot;font-size: 14px&quot;&gt;import&lt;/font&gt;" style="edgeLabel;resizable=0;html=1;align=center;verticalAlign=middle;" connectable="0" vertex="1" parent="Uk2plu6qtKxTgSTMpd2H-166">
          <mxGeometry relative="1" as="geometry">
            <mxPoint x="1" as="offset" />
          </mxGeometry>
        </mxCell>
        <mxCell id="Uk2plu6qtKxTgSTMpd2H-168" value="&lt;font style=&quot;font-size: 14px&quot;&gt;&lt;font style=&quot;font-size: 14px&quot;&gt;&lt;font style=&quot;font-size: 14px&quot;&gt;&lt;font style=&quot;font-size: 14px&quot;&gt;&lt;font style=&quot;font-size: 14px&quot;&gt;&lt;font style=&quot;font-size: 14px&quot;&gt;&lt;font style=&quot;font-size: 14px&quot;&gt;v&lt;/font&gt;&lt;/font&gt;&lt;/font&gt;&lt;/font&gt;&lt;/font&gt;&lt;/font&gt;&lt;code&gt;1.0.3&lt;/code&gt;&lt;/font&gt;" style="edgeLabel;resizable=0;html=1;align=right;verticalAlign=bottom;" connectable="0" vertex="1" parent="Uk2plu6qtKxTgSTMpd2H-166">
          <mxGeometry x="1" relative="1" as="geometry">
            <mxPoint x="70" y="-3" as="offset" />
          </mxGeometry>
        </mxCell>
        <mxCell id="Uk2plu6qtKxTgSTMpd2H-169" value="Label" style="endArrow=classic;html=1;exitX=0.746;exitY=0.016;exitDx=0;exitDy=0;exitPerimeter=0;entryX=0;entryY=0;entryDx=260;entryDy=43;entryPerimeter=0;" edge="1" parent="1" source="Uk2plu6qtKxTgSTMpd2H-20" target="KczL7LweS5aCczgaJEiZ-80">
          <mxGeometry relative="1" as="geometry">
            <mxPoint x="1290" y="1527" as="sourcePoint" />
            <mxPoint x="-760" y="1130" as="targetPoint" />
            <Array as="points">
              <mxPoint x="1404" y="1370" />
              <mxPoint x="1404" y="1133" />
            </Array>
          </mxGeometry>
        </mxCell>
        <mxCell id="Uk2plu6qtKxTgSTMpd2H-170" value="&lt;font style=&quot;font-size: 14px&quot;&gt;import&lt;/font&gt;" style="edgeLabel;resizable=0;html=1;align=center;verticalAlign=middle;" connectable="0" vertex="1" parent="Uk2plu6qtKxTgSTMpd2H-169">
          <mxGeometry relative="1" as="geometry">
            <mxPoint x="1" as="offset" />
          </mxGeometry>
        </mxCell>
        <mxCell id="Uk2plu6qtKxTgSTMpd2H-171" value="&lt;font style=&quot;font-size: 14px&quot;&gt;&lt;font style=&quot;font-size: 14px&quot;&gt;&lt;font style=&quot;font-size: 14px&quot;&gt;&lt;font style=&quot;font-size: 14px&quot;&gt;&lt;font style=&quot;font-size: 14px&quot;&gt;&lt;font style=&quot;font-size: 14px&quot;&gt;&lt;font style=&quot;font-size: 14px&quot;&gt;&lt;font style=&quot;font-size: 14px&quot;&gt;&lt;font style=&quot;font-size: 14px&quot;&gt;v&lt;/font&gt;&lt;/font&gt;&lt;/font&gt;&lt;/font&gt;&lt;/font&gt;&lt;/font&gt;&lt;/font&gt;&lt;/font&gt;&lt;code&gt;0.0.1-beta.11&lt;/code&gt;&lt;/font&gt;" style="edgeLabel;resizable=0;html=1;align=right;verticalAlign=bottom;" connectable="0" vertex="1" parent="Uk2plu6qtKxTgSTMpd2H-169">
          <mxGeometry x="1" relative="1" as="geometry">
            <mxPoint x="131" y="-12" as="offset" />
          </mxGeometry>
        </mxCell>
        <mxCell id="Uk2plu6qtKxTgSTMpd2H-172" value="Label" style="endArrow=classic;html=1;exitX=0.829;exitY=0.016;exitDx=0;exitDy=0;exitPerimeter=0;entryX=0.293;entryY=0.087;entryDx=0;entryDy=0;entryPerimeter=0;" edge="1" parent="1" source="Uk2plu6qtKxTgSTMpd2H-20" target="KczL7LweS5aCczgaJEiZ-79">
          <mxGeometry relative="1" as="geometry">
            <mxPoint x="1424" y="1570" as="sourcePoint" />
            <mxPoint x="-1130" y="1050" as="targetPoint" />
            <Array as="points">
              <mxPoint x="1424" y="1338" />
              <mxPoint x="1424" y="1138" />
              <mxPoint x="1424" y="1050" />
              <mxPoint x="-1157" y="1050" />
            </Array>
          </mxGeometry>
        </mxCell>
        <mxCell id="Uk2plu6qtKxTgSTMpd2H-173" value="&lt;font style=&quot;font-size: 14px&quot;&gt;import&lt;/font&gt;" style="edgeLabel;resizable=0;html=1;align=center;verticalAlign=middle;" connectable="0" vertex="1" parent="Uk2plu6qtKxTgSTMpd2H-172">
          <mxGeometry relative="1" as="geometry">
            <mxPoint x="1" as="offset" />
          </mxGeometry>
        </mxCell>
        <mxCell id="Uk2plu6qtKxTgSTMpd2H-174" value="&lt;font style=&quot;font-size: 14px&quot;&gt;&lt;font style=&quot;font-size: 14px&quot;&gt;&lt;font style=&quot;font-size: 14px&quot;&gt;&lt;font style=&quot;font-size: 14px&quot;&gt;&lt;font style=&quot;font-size: 14px&quot;&gt;&lt;font style=&quot;font-size: 14px&quot;&gt;&lt;font style=&quot;font-size: 14px&quot;&gt;&lt;font style=&quot;font-size: 14px&quot;&gt;&lt;font style=&quot;font-size: 14px&quot;&gt;&lt;font style=&quot;font-size: 14px&quot;&gt;&lt;font style=&quot;font-size: 14px&quot;&gt;v&lt;/font&gt;&lt;/font&gt;&lt;/font&gt;&lt;/font&gt;&lt;/font&gt;&lt;/font&gt;&lt;/font&gt;&lt;/font&gt;&lt;/font&gt;&lt;/font&gt;&lt;code&gt;16.12.0&lt;/code&gt;&lt;/font&gt;" style="edgeLabel;resizable=0;html=1;align=right;verticalAlign=bottom;" connectable="0" vertex="1" parent="Uk2plu6qtKxTgSTMpd2H-172">
          <mxGeometry x="1" relative="1" as="geometry">
            <mxPoint x="27" y="-41" as="offset" />
          </mxGeometry>
        </mxCell>
        <mxCell id="Uk2plu6qtKxTgSTMpd2H-175" value="Label" style="endArrow=classic;html=1;exitX=0;exitY=0;exitDx=125;exitDy=14;exitPerimeter=0;entryX=0.878;entryY=0.077;entryDx=0;entryDy=0;entryPerimeter=0;" edge="1" parent="1" source="Uk2plu6qtKxTgSTMpd2H-20" target="KczL7LweS5aCczgaJEiZ-77">
          <mxGeometry relative="1" as="geometry">
            <mxPoint x="1376.6599999999999" y="1583.3199999999997" as="sourcePoint" />
            <mxPoint x="-580" y="1180" as="targetPoint" />
            <Array as="points">
              <mxPoint x="1374" y="1347" />
              <mxPoint x="1374" y="1180" />
              <mxPoint x="-592" y="1180" />
            </Array>
          </mxGeometry>
        </mxCell>
        <mxCell id="Uk2plu6qtKxTgSTMpd2H-176" value="&lt;font style=&quot;font-size: 14px&quot;&gt;import&lt;/font&gt;" style="edgeLabel;resizable=0;html=1;align=center;verticalAlign=middle;" connectable="0" vertex="1" parent="Uk2plu6qtKxTgSTMpd2H-175">
          <mxGeometry relative="1" as="geometry">
            <mxPoint x="1" as="offset" />
          </mxGeometry>
        </mxCell>
        <mxCell id="Uk2plu6qtKxTgSTMpd2H-177" value="&lt;font style=&quot;font-size: 14px&quot;&gt;&lt;font style=&quot;font-size: 14px&quot;&gt;&lt;font style=&quot;font-size: 14px&quot;&gt;&lt;font style=&quot;font-size: 14px&quot;&gt;&lt;font style=&quot;font-size: 14px&quot;&gt;&lt;font style=&quot;font-size: 14px&quot;&gt;&lt;font style=&quot;font-size: 14px&quot;&gt;&lt;font style=&quot;font-size: 14px&quot;&gt;&lt;font style=&quot;font-size: 14px&quot;&gt;&lt;font style=&quot;font-size: 14px&quot;&gt;v&lt;/font&gt;&lt;/font&gt;&lt;/font&gt;&lt;/font&gt;&lt;/font&gt;&lt;/font&gt;&lt;/font&gt;&lt;/font&gt;&lt;/font&gt;&lt;code&gt;16.12.0&lt;/code&gt;&lt;/font&gt;" style="edgeLabel;resizable=0;html=1;align=right;verticalAlign=bottom;" connectable="0" vertex="1" parent="Uk2plu6qtKxTgSTMpd2H-175">
          <mxGeometry x="1" relative="1" as="geometry">
            <mxPoint x="42" y="-50" as="offset" />
          </mxGeometry>
        </mxCell>
        <mxCell id="Uk2plu6qtKxTgSTMpd2H-178" value="Label" style="endArrow=classic;html=1;entryX=0.5;entryY=1;entryDx=0;entryDy=0;entryPerimeter=0;exitX=0.194;exitY=1.002;exitDx=0;exitDy=0;exitPerimeter=0;" edge="1" parent="1" source="Uk2plu6qtKxTgSTMpd2H-20" target="KczL7LweS5aCczgaJEiZ-31">
          <mxGeometry relative="1" as="geometry">
            <mxPoint x="1304.0300000000004" y="2640" as="sourcePoint" />
            <mxPoint x="15.970000000000027" y="2881.9400000000005" as="targetPoint" />
            <Array as="points">
              <mxPoint x="1291" y="2940" />
              <mxPoint x="-340" y="2940" />
            </Array>
          </mxGeometry>
        </mxCell>
        <mxCell id="Uk2plu6qtKxTgSTMpd2H-179" value="&lt;font style=&quot;font-size: 14px&quot;&gt;import&lt;/font&gt;" style="edgeLabel;resizable=0;html=1;align=center;verticalAlign=middle;" connectable="0" vertex="1" parent="Uk2plu6qtKxTgSTMpd2H-178">
          <mxGeometry relative="1" as="geometry">
            <mxPoint x="1" as="offset" />
          </mxGeometry>
        </mxCell>
        <mxCell id="Uk2plu6qtKxTgSTMpd2H-180" value="&lt;font style=&quot;font-size: 14px&quot;&gt;&lt;font style=&quot;font-size: 14px&quot;&gt;v&lt;/font&gt;&lt;code&gt;1.1.1&lt;/code&gt;&lt;/font&gt;" style="edgeLabel;resizable=0;html=1;align=right;verticalAlign=bottom;" connectable="0" vertex="1" parent="Uk2plu6qtKxTgSTMpd2H-178">
          <mxGeometry x="1" relative="1" as="geometry">
            <mxPoint x="60" y="29" as="offset" />
          </mxGeometry>
        </mxCell>
        <mxCell id="Uk2plu6qtKxTgSTMpd2H-181" value="Label" style="endArrow=classic;html=1;entryX=0.5;entryY=1;entryDx=0;entryDy=0;entryPerimeter=0;exitX=0.619;exitY=1;exitDx=0;exitDy=0;exitPerimeter=0;" edge="1" parent="1" source="Uk2plu6qtKxTgSTMpd2H-20" target="KczL7LweS5aCczgaJEiZ-27">
          <mxGeometry relative="1" as="geometry">
            <mxPoint x="1381.3000000000006" y="2630" as="sourcePoint" />
            <mxPoint x="-1001.31" y="2670" as="targetPoint" />
            <Array as="points">
              <mxPoint x="1379" y="3060" />
              <mxPoint x="-1001" y="3070" />
              <mxPoint x="-1260" y="3070" />
              <mxPoint x="-1260" y="3050" />
            </Array>
          </mxGeometry>
        </mxCell>
        <mxCell id="Uk2plu6qtKxTgSTMpd2H-182" value="&lt;font style=&quot;font-size: 14px&quot;&gt;import&lt;/font&gt;" style="edgeLabel;resizable=0;html=1;align=center;verticalAlign=middle;" connectable="0" vertex="1" parent="Uk2plu6qtKxTgSTMpd2H-181">
          <mxGeometry relative="1" as="geometry">
            <mxPoint x="1" as="offset" />
          </mxGeometry>
        </mxCell>
        <mxCell id="Uk2plu6qtKxTgSTMpd2H-183" value="&lt;font style=&quot;font-size: 14px&quot;&gt;&lt;font&gt;&lt;font&gt;v&lt;font face=&quot;monospace&quot;&gt;4.0.5&lt;/font&gt;&lt;/font&gt;&lt;/font&gt;&lt;/font&gt;" style="edgeLabel;resizable=0;html=1;align=right;verticalAlign=bottom;" connectable="0" vertex="1" parent="Uk2plu6qtKxTgSTMpd2H-181">
          <mxGeometry x="1" relative="1" as="geometry">
            <mxPoint x="60" y="29" as="offset" />
          </mxGeometry>
        </mxCell>
        <mxCell id="Uk2plu6qtKxTgSTMpd2H-184" value="Label" style="endArrow=classic;html=1;entryX=0.441;entryY=1.026;entryDx=0;entryDy=0;entryPerimeter=0;exitX=0.803;exitY=1.004;exitDx=0;exitDy=0;exitPerimeter=0;" edge="1" parent="1" source="Uk2plu6qtKxTgSTMpd2H-20" target="KczL7LweS5aCczgaJEiZ-44">
          <mxGeometry relative="1" as="geometry">
            <mxPoint x="1420.0000000000007" y="2650" as="sourcePoint" />
            <mxPoint x="-1219.99" y="2850" as="targetPoint" />
            <Array as="points">
              <mxPoint x="1419.01" y="3100" />
              <mxPoint x="-1471" y="3100" />
            </Array>
          </mxGeometry>
        </mxCell>
        <mxCell id="Uk2plu6qtKxTgSTMpd2H-185" value="&lt;font style=&quot;font-size: 14px&quot;&gt;import&lt;/font&gt;" style="edgeLabel;resizable=0;html=1;align=center;verticalAlign=middle;" connectable="0" vertex="1" parent="Uk2plu6qtKxTgSTMpd2H-184">
          <mxGeometry relative="1" as="geometry">
            <mxPoint x="1" as="offset" />
          </mxGeometry>
        </mxCell>
        <mxCell id="Uk2plu6qtKxTgSTMpd2H-186" value="&lt;font style=&quot;font-size: 14px&quot;&gt;&lt;font&gt;&lt;font&gt;&lt;font&gt;v&lt;/font&gt;&lt;/font&gt;&lt;/font&gt;&lt;code&gt;7.2.0&lt;/code&gt;&lt;/font&gt;" style="edgeLabel;resizable=0;html=1;align=right;verticalAlign=bottom;" connectable="0" vertex="1" parent="Uk2plu6qtKxTgSTMpd2H-184">
          <mxGeometry x="1" relative="1" as="geometry">
            <mxPoint x="60" y="29" as="offset" />
          </mxGeometry>
        </mxCell>
        <mxCell id="Uk2plu6qtKxTgSTMpd2H-187" value="Label" style="endArrow=classic;html=1;entryX=0.915;entryY=1.021;entryDx=0;entryDy=0;entryPerimeter=0;exitX=-0.01;exitY=0.209;exitDx=0;exitDy=0;exitPerimeter=0;" edge="1" parent="1" source="Uk2plu6qtKxTgSTMpd2H-20" target="KczL7LweS5aCczgaJEiZ-101">
          <mxGeometry relative="1" as="geometry">
            <mxPoint x="750.0000000000001" y="1766" as="sourcePoint" />
            <mxPoint x="1059.88" y="1768.33" as="targetPoint" />
            <Array as="points">
              <mxPoint x="190" y="1800" />
            </Array>
          </mxGeometry>
        </mxCell>
        <mxCell id="Uk2plu6qtKxTgSTMpd2H-188" value="&lt;font style=&quot;font-size: 14px&quot;&gt;import&lt;/font&gt;" style="edgeLabel;resizable=0;html=1;align=center;verticalAlign=middle;" connectable="0" vertex="1" parent="Uk2plu6qtKxTgSTMpd2H-187">
          <mxGeometry relative="1" as="geometry">
            <mxPoint x="1" as="offset" />
          </mxGeometry>
        </mxCell>
        <mxCell id="Uk2plu6qtKxTgSTMpd2H-189" value="&lt;font style=&quot;font-size: 14px&quot;&gt;&lt;font style=&quot;font-size: 14px&quot;&gt;&lt;font style=&quot;font-size: 14px&quot;&gt;&lt;font style=&quot;font-size: 14px&quot;&gt;&lt;font style=&quot;font-size: 14px&quot;&gt;&lt;font style=&quot;font-size: 14px&quot;&gt;v&lt;/font&gt;&lt;/font&gt;&lt;/font&gt;&lt;/font&gt;&lt;/font&gt;&lt;code&gt;7.0.2&lt;/code&gt;&lt;/font&gt;" style="edgeLabel;resizable=0;html=1;align=right;verticalAlign=bottom;" connectable="0" vertex="1" parent="Uk2plu6qtKxTgSTMpd2H-187">
          <mxGeometry x="1" relative="1" as="geometry">
            <mxPoint x="45" y="37" as="offset" />
          </mxGeometry>
        </mxCell>
        <mxCell id="Uk2plu6qtKxTgSTMpd2H-190" value="Label" style="endArrow=classic;html=1;entryX=0.5;entryY=1;entryDx=0;entryDy=0;entryPerimeter=0;exitX=-0.022;exitY=0.17;exitDx=0;exitDy=0;exitPerimeter=0;" edge="1" parent="1" source="Uk2plu6qtKxTgSTMpd2H-20" target="KczL7LweS5aCczgaJEiZ-102">
          <mxGeometry relative="1" as="geometry">
            <mxPoint x="1233.2000000000005" y="1750.4500000000003" as="sourcePoint" />
            <mxPoint x="39.99999999999977" y="1600" as="targetPoint" />
            <Array as="points">
              <mxPoint x="410" y="1760" />
            </Array>
          </mxGeometry>
        </mxCell>
        <mxCell id="Uk2plu6qtKxTgSTMpd2H-191" value="&lt;font style=&quot;font-size: 14px&quot;&gt;import&lt;/font&gt;" style="edgeLabel;resizable=0;html=1;align=center;verticalAlign=middle;" connectable="0" vertex="1" parent="Uk2plu6qtKxTgSTMpd2H-190">
          <mxGeometry relative="1" as="geometry">
            <mxPoint x="1" as="offset" />
          </mxGeometry>
        </mxCell>
        <mxCell id="Uk2plu6qtKxTgSTMpd2H-192" value="&lt;font style=&quot;font-size: 14px;&quot;&gt;&lt;font style=&quot;font-size: 14px;&quot;&gt;&lt;font style=&quot;font-size: 14px;&quot;&gt;&lt;font style=&quot;font-size: 14px;&quot;&gt;&lt;font style=&quot;font-size: 14px;&quot;&gt;&lt;font style=&quot;font-size: 14px;&quot;&gt;&lt;font style=&quot;font-size: 14px;&quot;&gt;v&lt;/font&gt;&lt;/font&gt;&lt;/font&gt;&lt;/font&gt;&lt;/font&gt;&lt;/font&gt;&lt;/font&gt;&lt;code style=&quot;font-size: 14px;&quot;&gt;7.0.1&lt;/code&gt;" style="edgeLabel;resizable=0;html=1;align=right;verticalAlign=bottom;fontSize=14;" connectable="0" vertex="1" parent="Uk2plu6qtKxTgSTMpd2H-190">
          <mxGeometry x="1" relative="1" as="geometry">
            <mxPoint x="29" y="40" as="offset" />
          </mxGeometry>
        </mxCell>
        <mxCell id="Uk2plu6qtKxTgSTMpd2H-193" value="Label" style="endArrow=classic;html=1;entryX=0.5;entryY=1;entryDx=0;entryDy=0;entryPerimeter=0;exitX=-0.016;exitY=0.137;exitDx=0;exitDy=0;exitPerimeter=0;" edge="1" parent="1" source="Uk2plu6qtKxTgSTMpd2H-20" target="KczL7LweS5aCczgaJEiZ-104">
          <mxGeometry relative="1" as="geometry">
            <mxPoint x="1185.38" y="1733.4" as="sourcePoint" />
            <mxPoint x="350.97999999999956" y="1620" as="targetPoint" />
            <Array as="points">
              <mxPoint x="621" y="1730" />
            </Array>
          </mxGeometry>
        </mxCell>
        <mxCell id="Uk2plu6qtKxTgSTMpd2H-194" value="&lt;font style=&quot;font-size: 14px&quot;&gt;import&lt;/font&gt;" style="edgeLabel;resizable=0;html=1;align=center;verticalAlign=middle;" connectable="0" vertex="1" parent="Uk2plu6qtKxTgSTMpd2H-193">
          <mxGeometry relative="1" as="geometry">
            <mxPoint x="1" as="offset" />
          </mxGeometry>
        </mxCell>
        <mxCell id="Uk2plu6qtKxTgSTMpd2H-195" value="&lt;font style=&quot;font-size: 14px&quot;&gt;&lt;font style=&quot;font-size: 14px&quot;&gt;&lt;font style=&quot;font-size: 14px&quot;&gt;&lt;font style=&quot;font-size: 14px&quot;&gt;&lt;font style=&quot;font-size: 14px&quot;&gt;&lt;font style=&quot;font-size: 14px&quot;&gt;&lt;font style=&quot;font-size: 14px&quot;&gt;v&lt;/font&gt;&lt;/font&gt;&lt;/font&gt;&lt;/font&gt;&lt;/font&gt;&lt;/font&gt;&lt;/font&gt;&lt;code style=&quot;font-size: 14px&quot;&gt;7.0.2&lt;/code&gt;" style="edgeLabel;resizable=0;html=1;align=right;verticalAlign=bottom;fontSize=14;" connectable="0" vertex="1" parent="Uk2plu6qtKxTgSTMpd2H-193">
          <mxGeometry x="1" relative="1" as="geometry">
            <mxPoint x="29" y="40" as="offset" />
          </mxGeometry>
        </mxCell>
        <mxCell id="Uk2plu6qtKxTgSTMpd2H-196" value="Label" style="endArrow=classic;html=1;entryX=0;entryY=0;entryDx=180;entryDy=101;entryPerimeter=0;exitX=-0.01;exitY=0.034;exitDx=0;exitDy=0;exitPerimeter=0;" edge="1" parent="1" source="Uk2plu6qtKxTgSTMpd2H-20" target="KczL7LweS5aCczgaJEiZ-118">
          <mxGeometry relative="1" as="geometry">
            <mxPoint x="1210" y="1630" as="sourcePoint" />
            <mxPoint x="1776.5800000000008" y="1461.3899999999999" as="targetPoint" />
          </mxGeometry>
        </mxCell>
        <mxCell id="Uk2plu6qtKxTgSTMpd2H-197" value="&lt;font style=&quot;font-size: 14px&quot;&gt;import&lt;/font&gt;" style="edgeLabel;resizable=0;html=1;align=center;verticalAlign=middle;" connectable="0" vertex="1" parent="Uk2plu6qtKxTgSTMpd2H-196">
          <mxGeometry relative="1" as="geometry">
            <mxPoint x="1" as="offset" />
          </mxGeometry>
        </mxCell>
        <mxCell id="Uk2plu6qtKxTgSTMpd2H-198" value="&lt;font style=&quot;font-size: 14px&quot;&gt;&lt;font style=&quot;font-size: 14px&quot;&gt;&lt;font style=&quot;font-size: 14px&quot;&gt;&lt;font style=&quot;font-size: 14px&quot;&gt;&lt;font style=&quot;font-size: 14px&quot;&gt;&lt;font style=&quot;font-size: 14px&quot;&gt;&lt;font style=&quot;font-size: 14px&quot;&gt;&lt;font style=&quot;font-size: 14px&quot;&gt;v&lt;font face=&quot;monospace&quot;&gt;7.0.2&lt;/font&gt;&lt;/font&gt;&lt;/font&gt;&lt;/font&gt;&lt;/font&gt;&lt;/font&gt;&lt;/font&gt;&lt;/font&gt;&lt;/font&gt;" style="edgeLabel;resizable=0;html=1;align=right;verticalAlign=bottom;" connectable="0" vertex="1" parent="Uk2plu6qtKxTgSTMpd2H-196">
          <mxGeometry x="1" relative="1" as="geometry">
            <mxPoint x="60" y="-12" as="offset" />
          </mxGeometry>
        </mxCell>
        <mxCell id="Uk2plu6qtKxTgSTMpd2H-199" value="Label" style="endArrow=classic;html=1;entryX=0.163;entryY=-0.005;entryDx=0;entryDy=0;entryPerimeter=0;exitX=0.333;exitY=0.013;exitDx=0;exitDy=0;exitPerimeter=0;" edge="1" parent="1" source="Uk2plu6qtKxTgSTMpd2H-20" target="KczL7LweS5aCczgaJEiZ-100">
          <mxGeometry relative="1" as="geometry">
            <mxPoint x="1320" y="1478.5" as="sourcePoint" />
            <mxPoint x="450" y="1251.5" as="targetPoint" />
            <Array as="points">
              <mxPoint x="1320" y="1251.5" />
              <mxPoint x="1140" y="1251.5" />
              <mxPoint x="-291" y="1252" />
            </Array>
          </mxGeometry>
        </mxCell>
        <mxCell id="Uk2plu6qtKxTgSTMpd2H-200" value="&lt;font style=&quot;font-size: 14px&quot;&gt;import&lt;/font&gt;" style="edgeLabel;resizable=0;html=1;align=center;verticalAlign=middle;" connectable="0" vertex="1" parent="Uk2plu6qtKxTgSTMpd2H-199">
          <mxGeometry relative="1" as="geometry">
            <mxPoint x="1" as="offset" />
          </mxGeometry>
        </mxCell>
        <mxCell id="Uk2plu6qtKxTgSTMpd2H-201" value="&lt;font style=&quot;font-size: 14px&quot;&gt;&lt;font style=&quot;font-size: 14px&quot;&gt;&lt;font style=&quot;font-size: 14px&quot;&gt;&lt;font style=&quot;font-size: 14px&quot;&gt;&lt;font style=&quot;font-size: 14px&quot;&gt;&lt;font style=&quot;font-size: 14px&quot;&gt;&lt;font style=&quot;font-size: 14px&quot;&gt;&lt;font style=&quot;font-size: 14px&quot;&gt;&lt;font style=&quot;font-size: 14px&quot;&gt;&lt;font style=&quot;font-size: 14px&quot;&gt;v&lt;/font&gt;&lt;/font&gt;&lt;/font&gt;&lt;/font&gt;&lt;/font&gt;&lt;/font&gt;&lt;/font&gt;&lt;/font&gt;&lt;/font&gt;&lt;code&gt;7.1.0&lt;/code&gt;&lt;/font&gt;" style="edgeLabel;resizable=0;html=1;align=right;verticalAlign=bottom;" connectable="0" vertex="1" parent="Uk2plu6qtKxTgSTMpd2H-199">
          <mxGeometry x="1" relative="1" as="geometry">
            <mxPoint x="21" y="-30" as="offset" />
          </mxGeometry>
        </mxCell>
        <mxCell id="Uk2plu6qtKxTgSTMpd2H-210" value="Label" style="endArrow=classic;html=1;entryX=0.619;entryY=1.026;entryDx=0;entryDy=0;entryPerimeter=0;exitX=0.34;exitY=1.002;exitDx=0;exitDy=0;exitPerimeter=0;" edge="1" parent="1" source="Uk2plu6qtKxTgSTMpd2H-20" target="KczL7LweS5aCczgaJEiZ-28">
          <mxGeometry relative="1" as="geometry">
            <mxPoint x="1303" y="2640" as="sourcePoint" />
            <mxPoint x="-610" y="2810" as="targetPoint" />
            <Array as="points">
              <mxPoint x="1320" y="3010" />
              <mxPoint x="-839" y="3010" />
              <mxPoint x="-839" y="2970" />
            </Array>
          </mxGeometry>
        </mxCell>
        <mxCell id="Uk2plu6qtKxTgSTMpd2H-211" value="&lt;font style=&quot;font-size: 14px&quot;&gt;import&lt;/font&gt;" style="edgeLabel;resizable=0;html=1;align=center;verticalAlign=middle;" connectable="0" vertex="1" parent="Uk2plu6qtKxTgSTMpd2H-210">
          <mxGeometry relative="1" as="geometry">
            <mxPoint x="1" as="offset" />
          </mxGeometry>
        </mxCell>
        <mxCell id="Uk2plu6qtKxTgSTMpd2H-212" value="&lt;font style=&quot;font-size: 14px&quot;&gt;v&lt;/font&gt;&lt;code style=&quot;font-size: 14px&quot;&gt;0.4.1&lt;/code&gt;" style="edgeLabel;resizable=0;html=1;align=right;verticalAlign=bottom;" connectable="0" vertex="1" parent="Uk2plu6qtKxTgSTMpd2H-210">
          <mxGeometry x="1" relative="1" as="geometry">
            <mxPoint x="60" y="29" as="offset" />
          </mxGeometry>
        </mxCell>
        <mxCell id="Uk2plu6qtKxTgSTMpd2H-213" value="Label" style="endArrow=classic;html=1;entryX=0.5;entryY=1;entryDx=0;entryDy=0;entryPerimeter=0;exitX=0.25;exitY=1;exitDx=0;exitDy=0;exitPerimeter=0;" edge="1" parent="1" source="Uk2plu6qtKxTgSTMpd2H-20" target="KczL7LweS5aCczgaJEiZ-29">
          <mxGeometry relative="1" as="geometry">
            <mxPoint x="1305.2000000000005" y="2619.9999999999995" as="sourcePoint" />
            <mxPoint x="-854.78" y="2941.34" as="targetPoint" />
            <Array as="points">
              <mxPoint x="1300" y="2980" />
              <mxPoint x="-590" y="2980" />
            </Array>
          </mxGeometry>
        </mxCell>
        <mxCell id="Uk2plu6qtKxTgSTMpd2H-214" value="&lt;font style=&quot;font-size: 14px&quot;&gt;import&lt;/font&gt;" style="edgeLabel;resizable=0;html=1;align=center;verticalAlign=middle;" connectable="0" vertex="1" parent="Uk2plu6qtKxTgSTMpd2H-213">
          <mxGeometry relative="1" as="geometry">
            <mxPoint x="1" as="offset" />
          </mxGeometry>
        </mxCell>
        <mxCell id="Uk2plu6qtKxTgSTMpd2H-215" value="&lt;font style=&quot;font-size: 14px&quot;&gt;v&lt;/font&gt;&lt;code style=&quot;font-size: 14px&quot;&gt;2.13.8&lt;/code&gt;" style="edgeLabel;resizable=0;html=1;align=right;verticalAlign=bottom;" connectable="0" vertex="1" parent="Uk2plu6qtKxTgSTMpd2H-213">
          <mxGeometry x="1" relative="1" as="geometry">
            <mxPoint x="70" y="29" as="offset" />
          </mxGeometry>
        </mxCell>
      </root>
    </mxGraphModel>
  </diagram>
</mxfile>
